<svg xmlns="http://www.w3.org/2000/svg" width="376.992" height="280.904" viewBox="0 0 376.992 280.904">
  <g id="Forgot_password-rafiki" data-name="Forgot password-rafiki" transform="translate(0 -55)">
    <g id="freepik--background-complete--inject-2" transform="translate(0 55)">
      <rect id="Rectangle_17366" data-name="Rectangle 17366" width="376.992" height="0.188" transform="translate(0 246.854)" fill="#ebebeb"/>
      <rect id="Rectangle_17367" data-name="Rectangle 17367" width="19.196" height="0.188" transform="translate(218.814 251.989)" fill="#ebebeb"/>
      <rect id="Rectangle_17368" data-name="Rectangle 17368" width="45.488" height="0.188" transform="translate(297.907 256.068)" fill="#ebebeb"/>
      <rect id="Rectangle_17369" data-name="Rectangle 17369" width="46.996" height="0.188" transform="translate(167.731 252.08)" fill="#ebebeb"/>
      <rect id="Rectangle_17370" data-name="Rectangle 17370" width="9.832" height="0.188" transform="translate(127.423 257.719)" fill="#ebebeb"/>
      <rect id="Rectangle_17371" data-name="Rectangle 17371" width="44.772" height="0.188" transform="translate(146.808 257.719)" fill="#ebebeb"/>
      <rect id="Rectangle_17372" data-name="Rectangle 17372" width="28.991" height="0.188" transform="translate(39.554 254.538)" fill="#ebebeb"/>
      <path id="Path_28970" data-name="Path 28970" d="M188.095,268.227H42.508a4.305,4.305,0,0,1-4.3-4.305V59.268A4.305,4.305,0,0,1,42.508,55H188.095a4.305,4.305,0,0,1,4.305,4.305V263.921A4.305,4.305,0,0,1,188.095,268.227ZM42.508,55.151A4.117,4.117,0,0,0,38.4,59.268V263.921a4.117,4.117,0,0,0,4.109,4.117H188.095a4.124,4.124,0,0,0,4.117-4.117V59.268a4.124,4.124,0,0,0-4.117-4.117Z" transform="translate(-9.4 -55)" fill="#ebebeb"/>
      <path id="Path_28971" data-name="Path 28971" d="M404.4,268.227H258.805a4.313,4.313,0,0,1-4.305-4.305V59.268A4.313,4.313,0,0,1,258.805,55H404.4a4.305,4.305,0,0,1,4.29,4.268V263.921A4.305,4.305,0,0,1,404.4,268.227ZM258.805,55.151a4.124,4.124,0,0,0-4.117,4.117V263.921a4.124,4.124,0,0,0,4.117,4.117H404.4a4.124,4.124,0,0,0,4.117-4.117V59.268a4.124,4.124,0,0,0-4.117-4.117Z" transform="translate(-62.611 -55)" fill="#ebebeb"/>
      <path id="Path_28972" data-name="Path 28972" d="M178.633,284.23H128.569l-3.039-35.06h50.065Z" transform="translate(-30.882 -102.769)" fill="#e6e6e6"/>
      <path id="Path_28973" data-name="Path 28973" d="M182.073,284.23H132.009l-3.039-35.06h50.065Z" transform="translate(-31.729 -102.769)" fill="#f0f0f0"/>
      <path id="Path_28974" data-name="Path 28974" d="M141.534,279.153l-1.674-20h35.007l1.674,20Z" transform="translate(-34.408 -105.224)" fill="#fff"/>
      <rect id="Rectangle_17373" data-name="Rectangle 17373" width="5.874" height="65.393" transform="translate(153.134 181.461)" fill="#e6e6e6"/>
      <rect id="Rectangle_17374" data-name="Rectangle 17374" width="4.079" height="65.393" transform="translate(156.783 181.461)" fill="#f0f0f0"/>
      <rect id="Rectangle_17375" data-name="Rectangle 17375" width="56.858" height="7.216" transform="translate(160.863 188.677) rotate(180)" fill="#f0f0f0"/>
      <rect id="Rectangle_17376" data-name="Rectangle 17376" width="5.874" height="58.177" transform="translate(100.137 188.677)" fill="#e6e6e6"/>
      <rect id="Rectangle_17377" data-name="Rectangle 17377" width="4.079" height="58.177" transform="translate(103.786 188.677)" fill="#f0f0f0"/>
      <rect id="Rectangle_17378" data-name="Rectangle 17378" width="5.874" height="58.177" transform="translate(58.328 188.677)" fill="#e6e6e6"/>
      <rect id="Rectangle_17379" data-name="Rectangle 17379" width="4.079" height="58.177" transform="translate(61.978 188.677)" fill="#f0f0f0"/>
      <rect id="Rectangle_17380" data-name="Rectangle 17380" width="5.874" height="58.177" transform="translate(115.963 188.677)" fill="#e6e6e6"/>
      <rect id="Rectangle_17381" data-name="Rectangle 17381" width="4.079" height="58.177" transform="translate(119.605 188.677)" fill="#f0f0f0"/>
      <rect id="Rectangle_17382" data-name="Rectangle 17382" width="45.676" height="7.216" transform="translate(58.328 181.461)" fill="#e6e6e6"/>
      <rect id="Rectangle_17387" data-name="Rectangle 17387" width="15.019" height="93.946" transform="translate(176.832 152.908)" fill="#e6e6e6"/>
      <path id="Path_28980" data-name="Path 28980" d="M253.831,380.041H249.88V372.81h8.09Z" transform="translate(-61.474 -133.186)" fill="#fafafa"/>
      <path id="Path_28985" data-name="Path 28985" d="M114.958,274.28V276.1H113.8l-.965,14.3H98.626l-.958-14.3H96.5V274.28Z" transform="translate(-23.741 -108.946)" fill="#e6e6e6"/>
      <path id="Path_28986" data-name="Path 28986" d="M99.908,221.837c-1.161-8.52-12.659-10.948-27.249-11.265-13.881-.294-18.329-5.2-18.329-5.2s.045,19.883,20.048,27.091C93.371,239.292,101.077,230.372,99.908,221.837Z" transform="translate(-13.366 -91.993)" fill="#e6e6e6"/>
      <path id="Path_28987" data-name="Path 28987" d="M105.369,249.578c.241-3.5,5.836-9.937,19.294-7.012,9.726,2.119,13.346-2.925,13.346-2.925s-.9,14.235-15.532,18.51C108.581,262.214,104.939,255.745,105.369,249.578Z" transform="translate(-25.914 -100.424)" fill="#e6e6e6"/>
      <path id="Path_28988" data-name="Path 28988" d="M108.2,267.408a.52.52,0,0,0,.4-.181c.973-1.154.173-3.913-.927-7.736-1.417-4.9-3.182-11.008-1.689-15.434a62.082,62.082,0,0,1,2.9-6.846c2.111-4.464,3.936-8.294,2.413-12.35a.52.52,0,1,0-.973.369c1.365,3.612-.286,7.11-2.383,11.544A64.532,64.532,0,0,0,105,243.725c-1.591,4.735.219,11.016,1.674,16.052.86,3.016,1.749,6.032,1.139,6.786a.513.513,0,0,0,.06.754A.5.5,0,0,0,108.2,267.408Z" transform="translate(-25.679 -96.706)" fill="#e6e6e6"/>
    </g>
    <g id="freepik--Shadow--inject-2" transform="translate(42.306 318.834)">
      <ellipse id="freepik--path--inject-2" cx="146.19" cy="8.535" rx="146.19" ry="8.535" fill="#f5f5f5"/>
    </g>
    <g id="freepik--Login--inject-2" transform="translate(75.542 108.224)">
      <path id="Path_28989" data-name="Path 28989" d="M213.114,304.867H106.048L100.19,132.68H207.256Z" transform="translate(-100.19 -127.334)" fill="#283891" opacity="0.53"/>
      <path id="Path_28990" data-name="Path 28990" d="M220.2,297.777H113.136L107.27,125.59H214.336Z" transform="translate(-101.932 -125.59)" fill="#407bff"/>
      <path id="Path_28991" data-name="Path 28991" d="M220.2,297.777H113.136L107.27,125.59H214.336Z" transform="translate(-101.932 -125.59)" fill="#283891"/>
      <ellipse id="Ellipse_2774" data-name="Ellipse 2774" cx="29.609" cy="30.634" rx="29.609" ry="30.634" transform="matrix(0.701, -0.713, 0.713, 0.701, 17.948, 49.018)" fill="#407bff"/>
      <path id="Path_28992" data-name="Path 28992" d="M197.243,182.971a24.128,24.128,0,0,1-2.6,11.838,23.818,23.818,0,0,1-21.413,13.014,25.832,25.832,0,0,1-22.288-13.014,25.251,25.251,0,0,1-3.408-11.838A23.856,23.856,0,0,1,171.54,158.09,25.907,25.907,0,0,1,197.243,182.971Z" transform="translate(-111.832 -133.585)" fill="#fff"/>
      <path id="Path_28993" data-name="Path 28993" d="M195.741,204.627a23.818,23.818,0,0,1-21.413,13.014,25.831,25.831,0,0,1-22.288-13.014A38.144,38.144,0,0,1,173.679,198a40.323,40.323,0,0,1,22.062,6.628Z" transform="translate(-112.946 -143.404)" fill="#407bff" opacity="0.6"/>
      <ellipse id="Ellipse_2775" data-name="Ellipse 2775" cx="10.888" cy="11.265" rx="10.888" ry="11.265" transform="matrix(0.701, -0.713, 0.713, 0.701, 44.598, 40.736)" fill="#407bff" opacity="0.6"/>
      <path id="Path_28994" data-name="Path 28994" d="M206.086,266.832h-68.3l-.46-13.572h68.3Z" transform="translate(-109.327 -156.999)" fill="#fff"/>
      <path id="Path_28995" data-name="Path 28995" d="M207.183,299h-68.3l-.46-13.572h68.3Z" transform="translate(-109.595 -164.913)" fill="#fff"/>
      <path id="Path_28996" data-name="Path 28996" d="M188.958,287.906,172.5,290.168a1.146,1.146,0,0,0-1,1.357l2.164,11.031a1.327,1.327,0,0,0,1.463,1.033l16.459-2.262a1.154,1.154,0,0,0,.988-1.365l-2.156-11.031a1.319,1.319,0,0,0-1.463-1.025ZM184.23,299.08l-3.016.4-.294-3.559a2.111,2.111,0,0,1-1.229-1.508,1.877,1.877,0,0,1,1.629-2.262,2.156,2.156,0,0,1,2.383,1.681,1.847,1.847,0,0,1-.588,1.757Z" transform="translate(-117.729 -165.519)" fill="#407bff"/>
      <path id="Path_28997" data-name="Path 28997" d="M187.547,284.152h0a1.176,1.176,0,0,1-1.3-.912l-.211-1.078a6.205,6.205,0,0,0-6.5-4.946,5.278,5.278,0,0,0-4.871,6.326l.241,1.244a1.01,1.01,0,0,1-.882,1.206h0a1.161,1.161,0,0,1-1.3-.912l-.2-1.048a7.427,7.427,0,0,1,6.032-8.859,8.445,8.445,0,0,1,9.651,6.537l.241,1.237a1.01,1.01,0,0,1-.9,1.206Z" transform="translate(-117.947 -162.36)" fill="#407bff"/>
      <path id="Path_28998" data-name="Path 28998" d="M200.066,325.757H155.6l-.294-8.837h44.455Z" transform="translate(-113.75 -172.66)" fill="#407bff"/>
      <path id="Path_28999" data-name="Path 28999" d="M184.6,261.451a2.383,2.383,0,0,1-2.4,2.481,2.594,2.594,0,0,1-2.571-2.481,2.383,2.383,0,0,1,2.4-2.481,2.586,2.586,0,0,1,2.571,2.481Z" transform="translate(-119.733 -158.404)" fill="#263238"/>
      <path id="Path_29000" data-name="Path 29000" d="M170.381,261.451a2.375,2.375,0,0,1-2.4,2.481,2.586,2.586,0,0,1-2.564-2.481,2.383,2.383,0,0,1,2.4-2.481A2.579,2.579,0,0,1,170.381,261.451Z" transform="translate(-116.237 -158.404)" fill="#263238"/>
      <path id="Path_29001" data-name="Path 29001" d="M156.251,261.451a2.383,2.383,0,0,1-2.4,2.481,2.579,2.579,0,0,1-2.564-2.481,2.383,2.383,0,0,1,2.4-2.481A2.579,2.579,0,0,1,156.251,261.451Z" transform="translate(-112.761 -158.404)" fill="#263238"/>
      <path id="Path_29002" data-name="Path 29002" d="M198.771,261.458a2.383,2.383,0,0,1-2.4,2.481,2.579,2.579,0,0,1-2.564-2.481A2.375,2.375,0,0,1,196.215,259,2.579,2.579,0,0,1,198.771,261.458Z" transform="translate(-123.222 -158.411)" fill="#263238"/>
      <path id="Path_29003" data-name="Path 29003" d="M212.941,261.451a2.375,2.375,0,0,1-2.4,2.481,2.586,2.586,0,0,1-2.564-2.481,2.383,2.383,0,0,1,2.4-2.481,2.579,2.579,0,0,1,2.564,2.481Z" transform="translate(-126.707 -158.404)" fill="#263238"/>
    </g>
    <g id="freepik--Character--inject-2" transform="translate(208.341 109.702)">
      <path id="Path_29004" data-name="Path 29004" d="M331.664,174.28c1,1.614,1.84,3.152,2.7,4.758s1.636,3.22,2.4,4.871a69.637,69.637,0,0,1,3.845,10.352c.136.445.234.92.347,1.38l.166.7.083.347.1.573a10.315,10.315,0,0,1-.234,3.891,22.047,22.047,0,0,1-2.352,5.617,44.651,44.651,0,0,1-6.7,8.769l-3.174-2.4a83.991,83.991,0,0,0,4.245-9.048,18.745,18.745,0,0,0,1.154-4.245,3.362,3.362,0,0,0-.06-1.335l-.3-.92c-.121-.377-.234-.754-.377-1.139a85.5,85.5,0,0,0-3.973-9.108c-1.508-3.016-3.129-6.032-4.75-8.912Z" transform="translate(-288.242 -139.046)" fill="#ff8b7b"/>
      <path id="Path_29005" data-name="Path 29005" d="M330.108,224.43l-3.468,1.832,3.981,4.66s2.488-1.681,2.6-4.245Z" transform="translate(-288.7 -151.384)" fill="#ff8b7b"/>
      <path id="Path_29006" data-name="Path 29006" d="M320.47,229.733l4.26,3.385,4.373-1.6-3.981-4.66Z" transform="translate(-287.182 -151.982)" fill="#ff8b7b"/>
      <path id="Path_29007" data-name="Path 29007" d="M300.818,141.275c-.083.422-.377.716-.648.664s-.43-.445-.347-.86.377-.754.656-.664S300.9,140.853,300.818,141.275Z" transform="translate(-282.097 -130.711)" fill="#263238"/>
      <path id="Path_29008" data-name="Path 29008" d="M299.809,142.52a15.276,15.276,0,0,1-2.729,3.182,2.481,2.481,0,0,0,1.93.754Z" transform="translate(-281.428 -131.233)" fill="#ff5652"/>
      <path id="Path_29009" data-name="Path 29009" d="M298.9,160.526V155.58l6.545.754s-.106,4.252-3.77,5.5Z" transform="translate(-281.876 -134.446)" fill="#ff8b7b"/>
      <path id="Path_29010" data-name="Path 29010" d="M300.795,150.86l4.607,1.327.083,3.023-6.545-.792Z" transform="translate(-281.885 -133.285)" fill="#ff8b7b"/>
      <path id="Path_29011" data-name="Path 29011" d="M305.714,152.187l-4.607-1.327-.9,1.719a7.336,7.336,0,0,0,4.252,6.394,7.208,7.208,0,0,0,1.335-3.77Z" transform="translate(-282.198 -133.285)" opacity="0.2"/>
      <path id="Path_29012" data-name="Path 29012" d="M303.105,138.477a.256.256,0,0,0,.188-.422,2.5,2.5,0,0,0-2.141-.829.249.249,0,0,0-.2.287.256.256,0,0,0,.286.211h0a1.983,1.983,0,0,1,1.689.671.256.256,0,0,0,.181.083Z" transform="translate(-282.379 -129.927)" fill="#263238"/>
      <path id="Path_29013" data-name="Path 29013" d="M312.785,151.68c-.754,3.883-1.221,9.259,1.508,11.845,0,0-1.056,3.936-8.294,3.936-7.924,0-3.808-3.453-3.808-3.453,3.295-1.025,3.265-4.773,2.511-7.789Z" transform="translate(-282.422 -133.486)" fill="#ff8b7b"/>
      <path id="Path_29014" data-name="Path 29014" d="M315.851,169.067c.709-1,.679-4.154-.075-4.712-1.214-.9-6.424-1.108-13.428.505a4.929,4.929,0,0,1-.867,4.66Z" transform="translate(-282.51 -136.434)" fill="#407bff"/>
      <path id="Path_29015" data-name="Path 29015" d="M351.314,407.873a1.727,1.727,0,0,1-1.327-.075.513.513,0,0,1-.121-.581.581.581,0,0,1,.324-.369c.716-.347,2.36.324,2.435.354a.121.121,0,0,1,.075.113.143.143,0,0,1-.068.121A7.414,7.414,0,0,1,351.314,407.873Zm-.867-.852a.634.634,0,0,0-.143.053.317.317,0,0,0-.2.211c-.068.226,0,.3.045.324.287.241,1.342,0,2.089-.279A4.14,4.14,0,0,0,350.447,407.021Z" transform="translate(-294.403 -196.237)" fill="#407bff"/>
      <path id="Path_29016" data-name="Path 29016" d="M352.87,406.975h-.06c-.6-.173-1.885-1.086-1.9-1.681a.415.415,0,0,1,.324-.407.648.648,0,0,1,.55.045c.709.362,1.161,1.825,1.176,1.893a.121.121,0,0,1,0,.121A.106.106,0,0,1,352.87,406.975Zm-1.508-1.877h-.06c-.151.053-.151.128-.151.166,0,.354.86,1.071,1.508,1.357a3.14,3.14,0,0,0-.965-1.508.437.437,0,0,0-.324-.015Z" transform="translate(-294.671 -195.769)" fill="#407bff"/>
      <path id="Path_29017" data-name="Path 29017" d="M299.325,409c-.679,0-1.335-.1-1.553-.4a.475.475,0,0,1,0-.55.626.626,0,0,1,.4-.294c.882-.241,2.737.814,2.812.86a.113.113,0,0,1,.06.128.121.121,0,0,1-.1.106A9.2,9.2,0,0,1,299.325,409Zm-.837-1.033a.755.755,0,0,0-.241,0,.385.385,0,0,0-.249.173c-.09.158-.053.234,0,.279.249.347,1.583.354,2.571.211A5.738,5.738,0,0,0,298.488,407.969Z" transform="translate(-281.576 -196.477)" fill="#407bff"/>
      <path id="Path_29018" data-name="Path 29018" d="M301.391,408.441h-.053c-.641-.286-1.908-1.433-1.81-2.036,0-.143.121-.317.467-.347a.905.905,0,0,1,.694.211,3.6,3.6,0,0,1,.829,2.043.151.151,0,0,1-.053.113A.143.143,0,0,1,301.391,408.441Zm-1.3-2.149h-.075c-.226,0-.241.106-.241.136-.06.362.8,1.267,1.455,1.659a2.918,2.918,0,0,0-.7-1.636.663.663,0,0,0-.445-.158Z" transform="translate(-282.029 -196.066)" fill="#407bff"/>
      <path id="Path_29019" data-name="Path 29019" d="M307.818,405.052h-5.3l-.528-12.282h5.3Z" transform="translate(-282.636 -192.798)" fill="#ff8b7b"/>
      <path id="Path_29020" data-name="Path 29020" d="M357.96,402.068l-5.18,1.123-5.21-11.438,5.187-1.123Z" transform="translate(-293.849 -192.272)" fill="#ff8b7b"/>
      <path id="Path_29021" data-name="Path 29021" d="M351.351,406.186l5.828-1.259a.46.46,0,0,1,.513.256l2.021,4.388a.754.754,0,0,1-.558,1.086c-2.036.4-3.054.5-5.61,1.048-1.576.347-5.135,1.214-7.314,1.681s-2.925-1.621-2.073-2.006c3.808-1.742,5.391-3.272,6.424-4.7A1.289,1.289,0,0,1,351.351,406.186Z" transform="translate(-292.925 -195.787)" fill="#263238"/>
      <path id="Path_29022" data-name="Path 29022" d="M298.564,408.24h5.791a.467.467,0,0,1,.452.362l1.048,4.712a.754.754,0,0,1-.754.95c-2.089-.038-5.1-.158-7.728-.158-3.076,0-5.723.166-9.327.166-2.179,0-2.782-2.2-1.87-2.405,4.147-.9,7.54-1,11.121-3.212A2.465,2.465,0,0,1,298.564,408.24Z" transform="translate(-278.644 -196.604)" fill="#263238"/>
      <path id="Path_29023" data-name="Path 29023" d="M328.99,168.953c4.969,1.139,9.048,13.828,9.048,13.828l-9.93,7.593a21.813,21.813,0,0,1-5.278-9.8C321.073,173.921,323.908,167.776,328.99,168.953Z" transform="translate(-287.634 -137.7)" fill="#407bff"/>
      <path id="Path_29024" data-name="Path 29024" d="M328.99,168.953c4.969,1.139,9.048,13.828,9.048,13.828l-9.93,7.593a21.813,21.813,0,0,1-5.278-9.8C321.073,173.921,323.908,167.776,328.99,168.953Z" transform="translate(-287.634 -137.7)"/>
      <path id="Path_29025" data-name="Path 29025" d="M291.536,181.709c-1.237,1.335-2.473,2.526-3.77,3.77-.641.6-1.289,1.206-1.953,1.787l-1,.882-.249.219-.43.347a6.032,6.032,0,0,1-1.455.86,4.742,4.742,0,0,1-1.84.377,4.524,4.524,0,0,1-1.583-.279,4.456,4.456,0,0,1-1.508-.958,4.524,4.524,0,0,1-1.176-1.953,5.136,5.136,0,0,1-.219-1.123,7.614,7.614,0,0,1,0-1.342c.038-.362.083-.679.143-.973a18.675,18.675,0,0,1,.875-3.016,27,27,0,0,1,1.169-2.729c.483-.958.942-1.659,1.4-2.458a61.563,61.563,0,0,1,6.371-8.641,58.377,58.377,0,0,1,7.728-7.329l2.775,2.858c-1.945,2.609-3.86,5.406-5.632,8.158a88.415,88.415,0,0,0-4.825,8.482c-.324.709-.754,1.508-.958,2.081a20.233,20.233,0,0,0-.7,2.036,13.161,13.161,0,0,0-.43,1.9,2.968,2.968,0,0,0,0,.3V184.9a2.1,2.1,0,0,0-.1-.5,3.234,3.234,0,0,0-.867-1.4,3.7,3.7,0,0,0-1.244-.754,3.6,3.6,0,0,0-1.267-.234,3.076,3.076,0,0,0-1.214.234,2.775,2.775,0,0,0-.377.188l.286-.264.912-.829,1.8-1.689c1.191-1.123,2.39-2.322,3.521-3.438Z" transform="translate(-276.321 -135.324)" fill="#ff8b7b"/>
      <path id="Path_29026" data-name="Path 29026" d="M324.8,181.36c2.7,2.669,3.581,7.54,3.77,11.762l-.437.339a21.813,21.813,0,0,1-5.278-9.8c-.1-.392-.189-.754-.256-1.184Z" transform="translate(-287.706 -140.788)" opacity="0.2"/>
      <path id="Path_29027" data-name="Path 29027" d="M289.214,173.818c-1.086,5.73-1.764,17.5,1.38,40.8h28.4c.2-4.35-2.541-25.6,1.659-46.114a74.648,74.648,0,0,0-9.5-1.2,105.349,105.349,0,0,0-12.064,0c-1.327.121-2.639.317-3.77.52A7.54,7.54,0,0,0,289.214,173.818Z" transform="translate(-279.269 -137.287)" fill="#407bff"/>
      <path id="Path_29028" data-name="Path 29028" d="M289.214,173.818c-1.086,5.73-1.764,17.5,1.38,40.8h28.4c.2-4.35-2.541-25.6,1.659-46.114a74.648,74.648,0,0,0-9.5-1.2,105.349,105.349,0,0,0-12.064,0c-1.327.121-2.639.317-3.77.52A7.54,7.54,0,0,0,289.214,173.818Z" transform="translate(-279.269 -137.287)"/>
      <path id="Path_29029" data-name="Path 29029" d="M293.559,186.869l-5.127-1.229c-.158,3.106-.173,6.952.053,11.709C290.844,194.665,293.86,190.473,293.559,186.869Z" transform="translate(-279.271 -141.841)" opacity="0.2"/>
      <path id="Path_29030" data-name="Path 29030" d="M301.99,392.77l.271,6.333h5.308l-.271-6.333Z" transform="translate(-282.636 -192.798)" opacity="0.2"/>
      <path id="Path_29031" data-name="Path 29031" d="M352.757,390.63l-5.187,1.123,2.684,5.9,5.187-1.123Z" transform="translate(-293.849 -192.272)" opacity="0.2"/>
      <path id="Path_29032" data-name="Path 29032" d="M314.778,141.192c-1.357,5.082-1.9,8.128-5.037,10.239-4.712,3.212-10.593-.467-10.744-5.836-.166-4.848,2.089-12.35,7.54-13.376a7.178,7.178,0,0,1,8.241,8.972Z" transform="translate(-281.897 -128.669)" fill="#ff8b7b"/>
      <path id="Path_29033" data-name="Path 29033" d="M303.893,141.821c-.256-.679-1.425-5.934-.324-7.3s13.655-.377,15.509,1.448c3.084,3.016.942,5.73-2.428,9.221-2.533,2.624-2.631,5.579-3.913,6.032-2.262.754-5.715.045-6.409-2.345S303.893,141.821,303.893,141.821Z" transform="translate(-282.91 -129.108)" fill="#263238"/>
      <path id="Path_29034" data-name="Path 29034" d="M316.642,128.432c-4.433-1.885-12.75.2-17.244-.882a6.922,6.922,0,0,0,5.738,7.057,59.3,59.3,0,0,0,11.31,1.048C321.377,135.429,320.412,130.038,316.642,128.432Z" transform="translate(-281.997 -127.55)" fill="#263238"/>
      <path id="Path_29035" data-name="Path 29035" d="M323.19,136.567a8.452,8.452,0,0,0,4.7-.9C328.717,137.676,324.155,138.226,323.19,136.567Z" transform="translate(-287.851 -129.548)" fill="#263238"/>
      <path id="Path_29036" data-name="Path 29036" d="M306.005,143.971a5.964,5.964,0,0,1-1.508,3.521c-1.161,1.274-2.367.475-2.571-1.071-.181-1.4.2-3.77,1.614-4.449S306.1,142.4,306.005,143.971Z" transform="translate(-282.61 -131.048)" fill="#ff8b7b"/>
      <path id="Path_29037" data-name="Path 29037" d="M304.69,230.135s6.032,40.527,9.327,55.712c3.612,16.625,23.019,71.628,23.019,71.628l9.493-2.058s-13.572-44.832-16.588-68.077c-2.337-17.854-6.929-57.22-6.929-57.22Z" transform="translate(-283.3 -152.784)" fill="#283891"/>
      <path id="Path_29038" data-name="Path 29038" d="M344.57,394.159c-.038,0,1.772,3.438,1.772,3.438l10.676-2.315-.9-3.212Z" transform="translate(-293.111 -192.626)" fill="#263238"/>
      <path id="Path_29039" data-name="Path 29039" d="M309.228,249.271c6.959,1.365,6.22,27.317,5.383,40.67-2.006-9.44-4.946-27.6-6.952-40.481A2.375,2.375,0,0,1,309.228,249.271Z" transform="translate(-284.031 -157.481)" opacity="0.3"/>
      <path id="Path_29040" data-name="Path 29040" d="M291.214,230.13s-.754,39.652-.151,55.795c.6,16.821,6.477,71.9,6.477,71.9h8.988s.324-54.1.754-70.618c.437-18.005,2.609-57.107,2.609-57.107Z" transform="translate(-279.89 -152.779)" fill="#283891"/>
      <path id="Path_29041" data-name="Path 29041" d="M297.439,394.8c-.045,0,.505,3.725.505,3.725H308.87l.3-3.325Z" transform="translate(-281.516 -193.298)" fill="#263238"/>
      <path id="Path_29042" data-name="Path 29042" d="M298.095,175.828c2.541,6.854-12.4,14.929-12.4,14.929l-6.469-8.294s4.35-8.611,9.628-12.486C295.38,165.2,296.157,170.611,298.095,175.828Z" transform="translate(-277.036 -137.533)" fill="#407bff"/>
      <path id="Path_29043" data-name="Path 29043" d="M298.095,175.828c2.541,6.854-12.4,14.929-12.4,14.929l-6.469-8.294s4.35-8.611,9.628-12.486C295.38,165.2,296.157,170.611,298.095,175.828Z" transform="translate(-277.036 -137.533)"/>
    </g>
    <g id="freepik--Thinking--inject-2" transform="translate(247.88 61.281)">
      <ellipse id="Ellipse_2776" data-name="Ellipse 2776" cx="27.211" cy="17.342" rx="27.211" ry="17.342" transform="translate(12.833)" fill="#283891"/>
      <path id="Path_29044" data-name="Path 29044" d="M366.376,92.927a7.623,7.623,0,0,1-7.487-6.326,7.706,7.706,0,0,1,5.813-8.686h0a7.585,7.585,0,0,1,8.158,3.408l17.47-3.6a2.729,2.729,0,0,1,3.2,1.877,2.631,2.631,0,0,1-2.013,3.25l-.452.09a.445.445,0,0,0-.317.234.475.475,0,0,0,0,.392l.309.8a1.2,1.2,0,0,1-.467,1.455,1.433,1.433,0,0,0-.671,1.063A1.184,1.184,0,0,1,389,87.928l-.354.075a1.176,1.176,0,0,1-1.252-.6,1.47,1.47,0,0,0-2.722.565,1.169,1.169,0,0,1-.9,1.04l-.354.075a1.184,1.184,0,0,1-1.252-.6,1.508,1.508,0,0,0-1.048-.709,1.2,1.2,0,0,1-1.056-1.184v-.86a.467.467,0,0,0-.558-.437l-5.572,1.146a7.593,7.593,0,0,1-5.994,6.333,7.811,7.811,0,0,1-1.561.158ZM364.868,78.6a6.944,6.944,0,0,0-5.278,7.857,6.869,6.869,0,0,0,13.572-.392v-.271l6.145-1.244a1.221,1.221,0,0,1,1.508,1.146v.86a.445.445,0,0,0,.362.43,2.194,2.194,0,0,1,1.591,1.078.437.437,0,0,0,.445.241l.347-.075a.422.422,0,0,0,.317-.392,2.224,2.224,0,0,1,4.147-.875.43.43,0,0,0,.437.241l.362-.075a.422.422,0,0,0,.309-.392,2.187,2.187,0,0,1,1.033-1.621.46.46,0,0,0,.158-.543l-.309-.8a1.214,1.214,0,0,1,.89-1.629l.46-.1a1.893,1.893,0,0,0,1.44-2.315,1.968,1.968,0,0,0-2.322-1.335l-17.96,3.732-.136-.234a6.786,6.786,0,0,0-7.48-3.28Zm1.508,11.521a4.636,4.636,0,1,1,.98-.06h0a4.8,4.8,0,0,1-.973.075Zm0-8.9a4.524,4.524,0,0,0-.837.083,4.09,4.09,0,0,0,1.7,8h0a4.079,4.079,0,0,0,1.417-7.4,4.011,4.011,0,0,0-2.254-.671Z" transform="translate(-336.149 -66.854)" fill="#fff"/>
      <ellipse id="Ellipse_2777" data-name="Ellipse 2777" cx="8.942" cy="5.7" rx="8.942" ry="5.7" transform="translate(8.957 33.454)" fill="#407bff" opacity="0.6"/>
      <ellipse id="Ellipse_2778" data-name="Ellipse 2778" cx="3.672" cy="2.337" rx="3.672" ry="2.337" transform="translate(0 42.517)" fill="#407bff" opacity="0.3"/>
    </g>
  </g>
</svg>
