<svg xmlns="http://www.w3.org/2000/svg" width="267.199" height="274.13" viewBox="0 0 267.199 274.13">
  <g id="Forgot_password-pana" data-name="Forgot password-pana" transform="translate(-43.956 -46.84)">
    <g id="freepik--Floor--inject-17" transform="translate(43.956 313.306)">
      <path id="Path_29055" data-name="Path 29055" d="M287.551,469.1c0,.088-54.215.164-121.081.164s-121.1-.076-121.1-.164,54.209-.164,121.1-.164S287.551,469.016,287.551,469.1Z" transform="translate(-45.37 -468.94)" fill="#263238"/>
    </g>
    <g id="freepik--Character--inject-17" transform="translate(49.96 153.057)">
      <path id="Path_29056" data-name="Path 29056" d="M348.79,432.7l15.624,22.72,5.587.133-10.24-23.364Z" transform="translate(-163.248 -295.14)" fill="#263238"/>
      <path id="Path_29057" data-name="Path 29057" d="M82.812,434.83,74.58,456.294H78.7L93.07,434.925Z" transform="translate(-62.143 -296.114)" fill="#263238"/>
      <path id="Path_29058" data-name="Path 29058" d="M82,295.127l.631,27.777a7.336,7.336,0,0,0,7.171,7.178l155.417,3.459a7.342,7.342,0,0,0,7.506-7.342V292.741a19.766,19.766,0,0,0-17.045-19.57c-28.452-3.914-87.118-9.93-134.559-1.383A23.212,23.212,0,0,0,82,295.127Z" transform="translate(-64.876 -234.394)" fill="#283891"/>
      <path id="Path_29059" data-name="Path 29059" d="M71.319,324.812s-12.8-5.928-15.422,0,.322,13.2,3.2,17.253,2.866,54.127,2.866,54.127l194.171-2.077,2.3-48.148s9.311-11.471,8.731-16.413-8.44-12.14-17.461-4.76-11.363,22.8-11.363,22.8L83.528,348.763S84.058,327.1,71.319,324.812Z" transform="translate(-54.88 -254.376)" fill="#283891"/>
      <path id="Path_29060" data-name="Path 29060" d="M252.643,377.9c0,.088-34.4.164-76.821.164S99,378.011,99,377.9s34.386-.164,76.821-.164S252.643,377.828,252.643,377.9Z" transform="translate(-71.147 -275.064)" fill="#263238"/>
      <path id="Path_29061" data-name="Path 29061" d="M91.825,380.071a.474.474,0,0,1,0-.152v-.448q0-.593-.038-1.723v-6.313c0-5.341.038-12.72-.208-20.832a88.549,88.549,0,0,0-.884-11.414c-.114-.417-.227-.833-.335-1.263a7.749,7.749,0,0,0-.48-1.174c-.335-.764-.675-1.5-1.048-2.184a23.27,23.27,0,0,0-2.361-3.63,16.854,16.854,0,0,0-2.525-2.525,13.718,13.718,0,0,0-2.266-1.465,22.921,22.921,0,0,0-2.14-.858h.145l.436.12a9.324,9.324,0,0,1,1.616.631,12.449,12.449,0,0,1,2.323,1.433,16.478,16.478,0,0,1,2.576,2.525,22.877,22.877,0,0,1,2.424,3.649c.385.694.732,1.427,1.073,2.2.17.385.328.783.486,1.18l.36,1.263a85.224,85.224,0,0,1,.915,11.471c.246,8.144.164,15.523.114,20.864-.038,2.645-.069,4.8-.088,6.313V379.9C91.825,380.015,91.825,380.071,91.825,380.071Z" transform="translate(-63.972 -256.02)" fill="#263238"/>
      <path id="Path_29062" data-name="Path 29062" d="M77.534,344.182a.909.909,0,0,1,.511-.158,2.172,2.172,0,0,1,1.427.4,2.222,2.222,0,0,1,.694.789,1.925,1.925,0,0,1,.183,1.2,2.355,2.355,0,0,1-1.812,1.957,2.4,2.4,0,0,1-2.4-1.143,2.172,2.172,0,0,1-.309-1.174,2.424,2.424,0,0,1,1.37-2.058,1.1,1.1,0,0,1,.524-.133c0,.032-.183.076-.467.246a2.431,2.431,0,0,0-.915,1.023,1.944,1.944,0,0,0,.076,1.894A2.121,2.121,0,0,0,78.5,348a2.077,2.077,0,0,0,1.572-1.66,1.787,1.787,0,0,0-.72-1.749,2.121,2.121,0,0,0-1.263-.461A4.458,4.458,0,0,1,77.534,344.182Z" transform="translate(-62.604 -262.572)" fill="#263238"/>
      <path id="Path_29063" data-name="Path 29063" d="M78.881,359.2A2.986,2.986,0,0,1,78,358.163a6.206,6.206,0,0,1-.076-6.313,3.075,3.075,0,0,1,.852-1.061c.044.038-.284.436-.631,1.168a6.711,6.711,0,0,0-.707,3.055,6.786,6.786,0,0,0,.776,3.043C78.584,358.776,78.932,359.167,78.881,359.2Z" transform="translate(-63.074 -265.127)" fill="#263238"/>
      <path id="Path_29064" data-name="Path 29064" d="M76.342,334.42a5.328,5.328,0,0,1-.189.947,5.82,5.82,0,0,0,.922,4.337,7.189,7.189,0,0,1,.562.783,2.786,2.786,0,0,1-.751-.631,5.107,5.107,0,0,1-.985-4.545,2.014,2.014,0,0,1,.442-.89Z" transform="translate(-62.567 -259.091)" fill="#263238"/>
      <path id="Path_29065" data-name="Path 29065" d="M70.71,345.477c.076-.063.663.53,1.559.991s1.711.631,1.7.707a2.771,2.771,0,0,1-1.85-.417,2.822,2.822,0,0,1-1.408-1.282Z" transform="translate(-60.716 -263.166)" fill="#263238"/>
      <path id="Path_29066" data-name="Path 29066" d="M260.611,411.5c0,.088-43.792.164-97.812.164S65,411.592,65,411.5s43.786-.164,97.85-.164S260.611,411.409,260.611,411.5Z" transform="translate(-58.611 -287.453)" fill="#263238"/>
      <path id="Path_29067" data-name="Path 29067" d="M341.214,363.05c.095,0,.164,6.856.164,15.309s-.069,15.321-.164,15.321-.164-6.856-.164-15.321S341.126,363.05,341.214,363.05Z" transform="translate(-160.394 -269.647)" fill="#263238"/>
      <path id="Path_29068" data-name="Path 29068" d="M183.446,279.1h-.3l-.884.032-3.39.095-12.487.29-41.185.827c-4.021.095-7.954.082-11.729.335a39.612,39.612,0,0,0-10.688,1.951,18.863,18.863,0,0,0-8.093,5.347,17.815,17.815,0,0,0-2.525,3.661,23.4,23.4,0,0,0-1.547,3.788,35.754,35.754,0,0,0-1.263,6.944c-.2,2.083-.215,3.882-.227,5.36s0,2.614.044,3.39V312a6.334,6.334,0,0,0-.051-.884c-.038-.77-.088-1.894-.1-3.39s0-3.283.17-5.379a35.693,35.693,0,0,1,1.263-7.014,23.725,23.725,0,0,1,1.54-3.857,17.764,17.764,0,0,1,2.525-3.737,19.122,19.122,0,0,1,8.207-5.429,39.393,39.393,0,0,1,10.732-1.989c3.788-.253,7.727-.246,11.748-.341l41.192-.732,12.481-.183,3.4-.038h.884Z" transform="translate(-67.466 -238.668)" fill="#263238"/>
      <path id="Path_29069" data-name="Path 29069" d="M158.721,313.275a3.5,3.5,0,0,0-.53.347,2.885,2.885,0,0,0-.979,1.37,2.424,2.424,0,0,0,.347,2.342,2.525,2.525,0,0,0,4.615-1.1,2.449,2.449,0,0,0-.745-2.254,2.9,2.9,0,0,0-1.49-.776c-.4-.069-.631-.044-.631-.069a1.218,1.218,0,0,1,.631-.057,2.942,2.942,0,0,1,2.367,1.761,2.6,2.6,0,0,1,.145,1.452,2.847,2.847,0,0,1-5.151,1.225,2.614,2.614,0,0,1-.524-1.357,2.929,2.929,0,0,1,.2-1.263,2.86,2.86,0,0,1,1.124-1.4A1.263,1.263,0,0,1,158.721,313.275Z" transform="translate(-92.448 -251.216)" fill="#263238"/>
      <path id="Path_29070" data-name="Path 29070" d="M155.248,332.945a7.638,7.638,0,0,1-.48-1.894,10.732,10.732,0,0,1,.1-4.659,6.376,6.376,0,0,1,2.721-3.75,4.261,4.261,0,0,1,1.319-.537,1.263,1.263,0,0,1,.518-.05,8.063,8.063,0,0,0-1.717.783,6.477,6.477,0,0,0-2.525,3.643,11.786,11.786,0,0,0-.189,4.533C155.147,332.213,155.3,332.933,155.248,332.945Z" transform="translate(-91.633 -254.529)" fill="#263238"/>
      <path id="Path_29071" data-name="Path 29071" d="M158.164,297.994a14.8,14.8,0,0,0-.928,1.389,5.53,5.53,0,0,0,1.622,7.121,13.715,13.715,0,0,0,1.446.852,1.162,1.162,0,0,1-.454-.095,4.9,4.9,0,0,1-1.124-.568,5.492,5.492,0,0,1-1.7-7.437,4.809,4.809,0,0,1,.77-1C158.013,298.038,158.152,297.949,158.164,297.994Z" transform="translate(-92.251 -245.656)" fill="#263238"/>
      <path id="Path_29072" data-name="Path 29072" d="M154.506,317.988a31.747,31.747,0,0,0-3.422.77,32.775,32.775,0,0,0-3.194,1.452A9.135,9.135,0,0,1,154.506,317.988Z" transform="translate(-89.174 -253.025)" fill="#263238"/>
      <g id="Group_11291" data-name="Group 11291" transform="translate(44.935 95.456)" opacity="0.3">
        <path id="Path_29073" data-name="Path 29073" d="M126.06,374.28a31.728,31.728,0,0,0,21.464,6.471q-2.4,11.13-4.785,22.266c-.423,1.976-.821,4.179.215,5.922,1.452,2.443,4.829,2.683,7.67,2.645,3.156-.044,6.452-.12,9.255-1.585,3.971-2.071,6.1-6.464,7.645-10.669s2.872-8.712,6.041-11.875a24.62,24.62,0,0,0,13.983,7.961c1.578.29,3.371.379,4.634-.631a4.421,4.421,0,0,0,1.3-4.356,13.068,13.068,0,0,0-2.064-4.286l-9.242-14.33c-1.263-1.938-2.614-3.983-4.728-4.905a11.917,11.917,0,0,0-5.347-.549,246.782,246.782,0,0,0-44.739,6.761" transform="translate(-126.06 -366.302)"/>
      </g>
      <g id="Group_11292" data-name="Group 11292" transform="translate(31.857 31.776)" opacity="0.3">
        <path id="Path_29074" data-name="Path 29074" d="M167.8,266.042c-3.737,9.873-17.676,12.14-22.594,21.464-4.842,9.242,1.162,21.464-3.826,30.655-1.85,3.4-5.05,5.928-6.831,9.349-1.212,2.3-1.837,5.05-3.788,6.748-2.285,1.989-5.827,1.951-8.573.663s-4.855-3.6-6.812-5.915c-3.661-4.343-7.1-9.04-8.838-14.463-2.942-9.324-.24-19.873,5.682-27.663s14.69-13.049,23.951-16.2,19.059-4.337,28.8-5.252" transform="translate(-105.344 -265.43)"/>
      </g>
      <path id="Path_29075" data-name="Path 29075" d="M133.18,221.518a15.34,15.34,0,0,1,5.682-5.246,10.05,10.05,0,0,1,7.575-.764,7.525,7.525,0,0,1,5.05,5.454c.4,2.026-.145,4.286.9,6.067,1.2,2.045,4.1,2.689,5.12,4.836a4.665,4.665,0,0,1-.309,4.122,12.822,12.822,0,0,1-2.771,3.245,6.786,6.786,0,0,1,1.73,1.553,2.355,2.355,0,0,1,.366,2.21,3.245,3.245,0,0,1-1.894,1.515,18.655,18.655,0,0,1-11.167,1.048c-1-.215-2.14-.486-2.961.12" transform="translate(-83.75 -215.094)" fill="#263238"/>
      <path id="Path_29076" data-name="Path 29076" d="M169.221,234.7l-2.026,6.18,13.8,7.834-13.888.448,1.035,11.256,26.735-6.565s1.6-10.9-25.656-19.153l-1.894-.455a2.165,2.165,0,0,1-1.521-1.319h0a2.342,2.342,0,0,0-1.136-1.218l-2.279-1.187v1.805l1.263,1.471-.2,3.491a3.156,3.156,0,0,0,2.424,3.3l1.263.3" transform="translate(-94.52 -220.782)" fill="#b78876"/>
      <path id="Path_29077" data-name="Path 29077" d="M116.154,267.714a15.27,15.27,0,0,0-8.56,4.949c-2.917,3.687-7.134,17.638-7.134,17.638l10.732,1.856,4.634,11.635s27.429-3.592,25.971-5.05a56.264,56.264,0,0,0-4.419-3.668l6.313-21.028,7.575-4.091-2.557-10.5-15.258,2.064Z" transform="translate(-71.686 -231.449)" fill="#fafafa"/>
      <path id="Path_29078" data-name="Path 29078" d="M144.549,290.174c0,.088-8.554.164-19.1.164s-19.1-.076-19.1-.164,8.554-.164,19.1-.164S144.549,290.086,144.549,290.174Z" transform="translate(-73.857 -242.717)" fill="#ff725e"/>
      <path id="Path_29079" data-name="Path 29079" d="M141.839,299.964c0,.088-8.554.164-19.1.164s-19.1-.076-19.1-.164,8.548-.164,19.1-.164S141.839,299.876,141.839,299.964Z" transform="translate(-72.858 -246.326)" fill="#ff725e"/>
      <path id="Path_29080" data-name="Path 29080" d="M147.252,310.534c0,.095-6.477.17-14.469.17s-14.463-.076-14.463-.17,6.477-.164,14.463-.164S147.252,310.446,147.252,310.534Z" transform="translate(-78.271 -250.224)" fill="#ff725e"/>
      <path id="Path_29081" data-name="Path 29081" d="M150.766,320.724c0,.088-6.477.164-14.463.164s-14.463-.076-14.463-.164,6.471-.164,14.463-.164S150.766,320.629,150.766,320.724Z" transform="translate(-79.569 -253.981)" fill="#ff725e"/>
      <path id="Path_29082" data-name="Path 29082" d="M167.349,277c0,.095-4.28.164-9.551.164s-9.558-.069-9.558-.164,4.274-.164,9.558-.164S167.349,276.941,167.349,277Z" transform="translate(-89.303 -237.861)" fill="#ff725e"/>
      <path id="Path_29083" data-name="Path 29083" d="M168.49,266.688c0,.095-4.261.265-9.514.385s-9.526.152-9.526.063,4.255-.265,9.514-.391S168.49,266.6,168.49,266.688Z" transform="translate(-89.749 -234.097)" fill="#ff725e"/>
      <path id="Path_29084" data-name="Path 29084" d="M119.614,295.35a42.013,42.013,0,0,1-1.029,5.164,42.93,42.93,0,0,1-1.345,5.094,42.93,42.93,0,0,1,1.023-5.164,40.836,40.836,0,0,1,1.351-5.094Z" transform="translate(-77.873 -244.686)" fill="#263238"/>
      <path id="Path_29085" data-name="Path 29085" d="M163.632,420.21l-7.992,25.207,9.633.972,9.053-21.906Z" transform="translate(-92.031 -290.723)" fill="#b78876"/>
      <path id="Path_29086" data-name="Path 29086" d="M169.194,443.758,164.6,455.121s10.025,8.491,9.381,10.675L151.6,457.71l6.42-18.03Z" transform="translate(-90.542 -297.902)" fill="#455a64"/>
      <path id="Path_29087" data-name="Path 29087" d="M161.2,458.657a.972.972,0,0,0-1.01.814.934.934,0,0,0,.8,1.01,1.029,1.029,0,0,0,1.067-.865c0-.48-.473-1.029-.947-.96" transform="translate(-93.707 -304.897)" fill="#e0e0e0"/>
      <path id="Path_29088" data-name="Path 29088" d="M151.6,467.193l.72-1.793,21.2,8.447s.84.789.467,1.452Z" transform="translate(-90.542 -307.385)" fill="#e0e0e0"/>
      <path id="Path_29089" data-name="Path 29089" d="M171.4,464.005c-.044.107-.631-.038-1.263.114s-1.117.518-1.2.436.3-.631,1.111-.827S171.452,463.911,171.4,464.005Z" transform="translate(-96.929 -306.748)" fill="#263238"/>
      <path id="Path_29090" data-name="Path 29090" d="M174.8,467.011c0,.12-.556.133-1.092.461s-.8.751-.928.751.044-.688.72-1.08S174.836,466.91,174.8,467.011Z" transform="translate(-98.336 -307.935)" fill="#263238"/>
      <path id="Path_29091" data-name="Path 29091" d="M176.472,471.367c-.107,0-.063-.631.436-1.111s1.1-.549,1.111-.442-.423.316-.821.726S176.586,471.4,176.472,471.367Z" transform="translate(-99.695 -308.997)" fill="#263238"/>
      <path id="Path_29092" data-name="Path 29092" d="M172.613,459.374c-.082.082-.53-.253-1.162-.436s-1.187-.158-1.212-.271.587-.341,1.326-.114S172.721,459.3,172.613,459.374Z" transform="translate(-97.414 -304.825)" fill="#263238"/>
      <path id="Path_29093" data-name="Path 29093" d="M173.709,454.564a2.267,2.267,0,0,1-1.117-.41,5.088,5.088,0,0,1-1.042-.789,4.609,4.609,0,0,1-.524-.574,1.446,1.446,0,0,1-.24-.385.505.505,0,0,1,.158-.6.631.631,0,0,1,.568-.076,1.842,1.842,0,0,1,.4.208,4.376,4.376,0,0,1,.631.492,4.237,4.237,0,0,1,.789,1.054,1.97,1.97,0,0,1,.328,1.149c-.063,0-.189-.417-.574-1a4.64,4.64,0,0,0-.8-.922,3.7,3.7,0,0,0-.574-.436c-.215-.145-.417-.221-.511-.139s-.044.051,0,.133a1.409,1.409,0,0,0,.183.284,6.985,6.985,0,0,0,.467.556,7.169,7.169,0,0,0,.934.808A7.981,7.981,0,0,1,173.709,454.564Z" transform="translate(-97.601 -302.331)" fill="#263238"/>
      <path id="Path_29094" data-name="Path 29094" d="M175.089,454.5a1.894,1.894,0,0,1,.1-1.193,3.826,3.826,0,0,1,1.13-1.749.991.991,0,0,1,.915-.309.574.574,0,0,1,.36.486,1.471,1.471,0,0,1-.038.455,2.594,2.594,0,0,1-.271.751,2.7,2.7,0,0,1-.9.985,1.506,1.506,0,0,1-1.149.347,9.231,9.231,0,0,0,.979-.574,2.74,2.74,0,0,0,.739-.928,2.588,2.588,0,0,0,.215-.631c.051-.246.032-.473-.069-.48a.855.855,0,0,0-.524.227,3.791,3.791,0,0,0-.5.505,4.546,4.546,0,0,0-.631,1.042C175.19,454.053,175.158,454.508,175.089,454.5Z" transform="translate(-99.183 -302.162)" fill="#263238"/>
      <path id="Path_29095" data-name="Path 29095" d="M216.35,378.778l11.931,20.738,9.76-6.262L226.059,372.2Z" transform="translate(-114.416 -273.021)" fill="#b78876"/>
      <path id="Path_29096" data-name="Path 29096" d="M239.482,396.16l6.168,10.631s12.853-2.7,14.185-.852l-20.151,12.689L229.4,402.473Z" transform="translate(-119.227 -281.855)" fill="#455a64"/>
      <path id="Path_29097" data-name="Path 29097" d="M244.245,417.648a.966.966,0,0,0,0,1.294.934.934,0,0,0,1.263,0,1.029,1.029,0,0,0-.032-1.376.979.979,0,0,0-1.338.158" transform="translate(-124.609 -289.676)" fill="#e0e0e0"/>
      <path id="Path_29098" data-name="Path 29098" d="M245.122,424l-.972-1.667,19.684-11.54s1.143-.177,1.439.518Z" transform="translate(-124.666 -287.245)" fill="#e0e0e0"/>
      <path id="Path_29099" data-name="Path 29099" d="M254.814,412.476c.057.1-.4.455-.688,1.073s-.284,1.2-.4,1.218-.328-.631,0-1.389S254.776,412.369,254.814,412.476Z" transform="translate(-128.133 -287.863)" fill="#263238"/>
      <path id="Path_29100" data-name="Path 29100" d="M259.34,411.752c.082.082-.24.518-.309,1.149s.107,1.124,0,1.18-.511-.455-.41-1.263S259.277,411.664,259.34,411.752Z" transform="translate(-129.996 -287.6)" fill="#263238"/>
      <path id="Path_29101" data-name="Path 29101" d="M263.819,413.3c-.082.082-.524-.322-.631-1.023s.24-1.2.335-1.149,0,.524.069,1.1S263.908,413.23,263.819,413.3Z" transform="translate(-131.678 -287.373)" fill="#263238"/>
      <path id="Path_29102" data-name="Path 29102" d="M251.708,408.858c0,.12-.524.265-1.054.631s-.852.833-.96.783.095-.669.726-1.117S251.708,408.751,251.708,408.858Z" transform="translate(-126.7 -286.511)" fill="#263238"/>
      <path id="Path_29103" data-name="Path 29103" d="M248.606,405.305a2.465,2.465,0,0,1-1.01.631,5.859,5.859,0,0,1-1.263.341,7.473,7.473,0,0,1-.776.057,1.555,1.555,0,0,1-.455-.05.5.5,0,0,1-.372-.492.631.631,0,0,1,.29-.5,1.754,1.754,0,0,1,.41-.183,4.135,4.135,0,0,1,2.077-.158c.745.139,1.136.41,1.111.448s-.442-.107-1.143-.164a4.912,4.912,0,0,0-1.225.063,4.289,4.289,0,0,0-.688.183c-.253.082-.436.2-.429.322s0,.063.095.1a1.266,1.266,0,0,0,.335.032,6.4,6.4,0,0,0,1.932-.271,7.928,7.928,0,0,1,1.111-.36Z" transform="translate(-124.88 -285.073)" fill="#263238"/>
      <path id="Path_29104" data-name="Path 29104" d="M249.884,403.7c0,.038-.442-.2-.884-.808a3.788,3.788,0,0,1-.556-1.193,4.173,4.173,0,0,1-.133-.77.991.991,0,0,1,.328-.915.556.556,0,0,1,.593,0,1.635,1.635,0,0,1,.341.3,2.928,2.928,0,0,1,.429.682,2.765,2.765,0,0,1,.221,1.313c-.063.77-.4,1.149-.429,1.117a9.919,9.919,0,0,0,.145-1.124,2.747,2.747,0,0,0-.278-1.149,2.413,2.413,0,0,0-.385-.574c-.164-.189-.354-.316-.423-.24a.669.669,0,0,0-.145.549,4.153,4.153,0,0,0,.095.707,4.26,4.26,0,0,0,.442,1.13C249.587,403.343,249.928,403.646,249.884,403.7Z" transform="translate(-126.195 -283.243)" fill="#263238"/>
      <path id="Path_29105" data-name="Path 29105" d="M145.3,358.467l23.433-15.934L183.515,371.3l13.434-7.279s-15.473-37.751-21.028-38.95c-3.112-.682-38.805,6.13-38.805,6.13l-3.99-2-10.1-1.231-.631,1.635a34.456,34.456,0,0,0,1.124,27.852l.492,1Z" transform="translate(-78.885 -255.627)" fill="#263238"/>
      <path id="Path_29106" data-name="Path 29106" d="M145.427,337.316c.177.789,19.57,18.939,19.57,18.939L153.823,393.81,170.5,397l16.748-45.238-30.611-30.03-14.008,5.852Z" transform="translate(-87.234 -254.412)" fill="#263238"/>
      <path id="Path_29107" data-name="Path 29107" d="M183.523,352.749c.051.076-5.158,3.7-11.622,8.1s-11.755,7.9-11.811,7.841,5.151-3.706,11.622-8.106S183.466,352.674,183.523,352.749Z" transform="translate(-93.672 -265.849)" fill="#455a64"/>
      <path id="Path_29108" data-name="Path 29108" d="M209.236,376.169a5.529,5.529,0,0,1-.568-.865c-.347-.568-.827-1.408-1.414-2.443-1.168-2.077-2.721-4.981-4.362-8.207s-3.093-6.2-4.11-8.352c-.511-1.079-.915-1.957-1.187-2.563a5.266,5.266,0,0,1-.385-.96,6.943,6.943,0,0,1,.505.9l1.263,2.525c1.1,2.178,2.569,5.088,4.192,8.314s3.156,6.155,4.274,8.257c.537,1.016.985,1.856,1.326,2.494A6.522,6.522,0,0,1,209.236,376.169Z" transform="translate(-107.359 -265.861)" fill="#455a64"/>
      <path id="Path_29109" data-name="Path 29109" d="M181.3,365.78a58.275,58.275,0,0,1-3.882,7.9,59.265,59.265,0,0,1,3.882-7.9Z" transform="translate(-100.062 -270.654)" fill="#455a64"/>
      <path id="Path_29110" data-name="Path 29110" d="M98.1,308.32l-3.788,13.989a7.3,7.3,0,0,0,.631,5.385h0a7.336,7.336,0,0,0,8.112,3.668l30.018-7.392-3.156-6.237-23.648,2.052,2.525-9.608Z" transform="translate(-69.326 -249.468)" fill="#b78876"/>
      <path id="Path_29111" data-name="Path 29111" d="M121.55,322.3l.391-2.033,16.268-2.923,4.728-25.081,30.213-3.6-5.076,26.773Z" transform="translate(-79.462 -242.223)" fill="#455a64"/>
      <path id="Path_29112" data-name="Path 29112" d="M175.968,313.78a1.7,1.7,0,1,1,1.749-1.383A1.585,1.585,0,0,1,175.968,313.78Z" transform="translate(-98.925 -250.225)" fill="#ebebeb"/>
      <path id="Path_29113" data-name="Path 29113" d="M128.55,227.18l.057,1.812.682,27.145a5.818,5.818,0,0,0,6.225,5.48h0a6.153,6.153,0,0,0,6.123-5.966c-.032-3.34,0-6.862,0-6.862s4.3-.764,5.126-6.395a60.293,60.293,0,0,0-.063-11.123,5.934,5.934,0,0,0-6.61-5.454Z" transform="translate(-82.043 -219.033)" fill="#b78876"/>
      <path id="Path_29114" data-name="Path 29114" d="M153.013,239.1a.726.726,0,0,1-.688.739.688.688,0,0,1-.745-.631.726.726,0,0,1,.682-.739.694.694,0,0,1,.751.631Z" transform="translate(-90.534 -223.712)" fill="#263238"/>
      <path id="Path_29115" data-name="Path 29115" d="M154.1,237.875c-.088.095-.631-.3-1.414-.3s-1.338.41-1.427.316.051-.215.3-.4a1.988,1.988,0,0,1,1.136-.366,1.951,1.951,0,0,1,1.13.347C154.057,237.679,154.139,237.831,154.1,237.875Z" transform="translate(-90.404 -223.219)" fill="#263238"/>
      <path id="Path_29116" data-name="Path 29116" d="M140.889,239.543a.72.72,0,0,1-.688.739.694.694,0,0,1-.751-.631.72.72,0,0,1,.688-.732.688.688,0,0,1,.751.625Z" transform="translate(-86.062 -223.877)" fill="#263238"/>
      <path id="Path_29117" data-name="Path 29117" d="M142.025,238.245c-.088.095-.631-.3-1.414-.3s-1.338.41-1.427.316.044-.215.29-.4a2.007,2.007,0,0,1,1.143-.366,1.932,1.932,0,0,1,1.124.347C141.981,238.03,142.069,238.2,142.025,238.245Z" transform="translate(-85.954 -223.355)" fill="#263238"/>
      <path id="Path_29118" data-name="Path 29118" d="M148.013,243.962a5.2,5.2,0,0,1,1.263-.24c.2,0,.385-.063.417-.2a.985.985,0,0,0-.139-.581l-.6-1.5a25.842,25.842,0,0,1-1.364-3.927,24.621,24.621,0,0,1,1.673,3.788l.581,1.509a1.18,1.18,0,0,1,.114.776.511.511,0,0,1-.322.3,1.437,1.437,0,0,1-.341.051A4.956,4.956,0,0,1,148.013,243.962Z" transform="translate(-89.063 -223.359)" fill="#263238"/>
      <path id="Path_29119" data-name="Path 29119" d="M144.855,261.154a14.28,14.28,0,0,1-7.575-1.894s1.894,3.838,7.487,3.245Z" transform="translate(-85.262 -231.379)" fill="#aa6550"/>
      <path id="Path_29120" data-name="Path 29120" d="M142.116,236.269c-.082.208-.852.076-1.768.139s-1.66.284-1.774.088c-.051-.095.088-.284.391-.473a2.917,2.917,0,0,1,1.332-.4,2.98,2.98,0,0,1,1.37.221C142,236,142.153,236.174,142.116,236.269Z" transform="translate(-85.735 -222.661)" fill="#263238"/>
      <path id="Path_29121" data-name="Path 29121" d="M153.7,233.539c-.139.177-.675,0-1.313,0s-1.187.133-1.313-.051,0-.265.259-.436a1.894,1.894,0,0,1,2.121.044C153.678,233.3,153.754,233.482,153.7,233.539Z" transform="translate(-90.328 -221.604)" fill="#263238"/>
      <path id="Path_29122" data-name="Path 29122" d="M146.636,251.086a1.313,1.313,0,0,1-.675-.069l-.631-.177c-.177-.057-.372-.139-.593-.221a1.263,1.263,0,0,1-.581-.347c-.133-.17-.107-.473.2-.745a1.635,1.635,0,0,1,2.525.84C147.009,250.764,146.845,251.029,146.636,251.086Z" transform="translate(-87.769 -227.674)" fill="#aa6550"/>
      <path id="Path_29123" data-name="Path 29123" d="M146.541,251.294c-.076.057-.455-.72-1.364-.953a3.308,3.308,0,0,0-1.648.183.939.939,0,0,1,.41-.36,1.907,1.907,0,0,1,2.412.619C146.548,251.066,146.579,251.281,146.541,251.294Z" transform="translate(-87.566 -227.951)" fill="#263238"/>
      <path id="Path_29124" data-name="Path 29124" d="M127.685,221.806a7.077,7.077,0,0,1-1.016,8.838c-1.345,1.263-3.346,2.228-3.478,4.059-.152,2.026,2.2,3.542,2.2,5.574s-2.405,3.422-2.879,5.461c-.379,1.641.631,3.283,1.742,4.526s2.525,2.342,3.156,3.882a6.894,6.894,0,0,1-.189,5.41,17.1,17.1,0,0,1-3.156,4.539,21.319,21.319,0,0,0-5.2-1.155c.107-.669.221-1.345.335-2.014a1.85,1.85,0,0,1-1.357,1.7,4.981,4.981,0,0,1-2.323.032,37.775,37.775,0,0,1-6.944-1.787,12.493,12.493,0,0,0,2.525-3.156,4.211,4.211,0,0,0,.069-3.914c-.556-.947-1.578-1.553-2.09-2.525-.764-1.452-.133-3.3.953-4.526a26.653,26.653,0,0,1,3.857-3.043,5.9,5.9,0,0,0,2.582-4.015c.139-2.121-1.585-4.059-1.37-6.174.24-2.412,2.79-3.889,3.788-6.1.726-1.6.631-3.567,1.742-4.924a4.236,4.236,0,0,1,3.491-1.389,7.853,7.853,0,0,1,3.636,1.263" transform="translate(-74.676 -217.308)" fill="#263238"/>
      <path id="Path_29125" data-name="Path 29125" d="M149.543,259.448c-1.01.556-.953,2.1-.335,3.081s1.61,1.679,2.222,2.664a4.369,4.369,0,0,1-1.029,5.568l2.424.915.53-.3,1.49-.846-.7,1.723H155.7a4.419,4.419,0,0,0,3.649-7.039c-.631-.884-1.629-1.585-1.85-2.651-.259-1.294.72-2.462,1.193-3.687A5.208,5.208,0,0,0,157,252.99" transform="translate(-89.495 -229.067)" fill="#263238"/>
    </g>
    <g id="freepik--Sreen--inject-17" transform="translate(165.031 46.84)">
      <rect id="Rectangle_17392" data-name="Rectangle 17392" width="130.329" height="197.839" transform="translate(0.379 0.177)" fill="#fff"/>
      <rect id="Rectangle_17393" data-name="Rectangle 17393" width="130.367" height="85.142" transform="translate(0.114 10.252)" fill="#f5f5f5"/>
      <path id="Path_29131" data-name="Path 29131" d="M287.325,216.572v1.894h2.784v.682h-2.784V221.4h-.8V215.84h3.927v.732Z" transform="translate(-255.363 -109.152)" fill="#263238"/>
      <path id="Path_29132" data-name="Path 29132" d="M293.51,220.038a2.191,2.191,0,1,1,2.191,2.153,2.1,2.1,0,0,1-2.191-2.153Zm3.6,0a1.42,1.42,0,1,0-1.414,1.484,1.382,1.382,0,0,0,1.414-1.484Z" transform="translate(-257.936 -109.879)" fill="#263238"/>
      <path id="Path_29133" data-name="Path 29133" d="M304.376,217.935v.739H304.2a1.263,1.263,0,0,0-1.326,1.42v2.1h-.764v-4.217h.732v.7A1.622,1.622,0,0,1,304.376,217.935Z" transform="translate(-261.108 -109.922)" fill="#263238"/>
      <path id="Path_29134" data-name="Path 29134" d="M310.905,217.958v3.63a1.907,1.907,0,0,1-2.178,2.159,3.081,3.081,0,0,1-2.008-.631l.36-.587a2.576,2.576,0,0,0,1.622.549c.991,0,1.446-.461,1.446-1.414v-.335a1.932,1.932,0,0,1-1.515.631,2.039,2.039,0,1,1,0-4.072,1.894,1.894,0,0,1,1.553.694v-.631Zm-.745,1.989a1.452,1.452,0,1,0-1.449,1.356,1.452,1.452,0,0,0,1.449-1.356Z" transform="translate(-262.719 -109.906)" fill="#263238"/>
      <path id="Path_29135" data-name="Path 29135" d="M315.18,220.038a2.191,2.191,0,1,1,2.191,2.153,2.1,2.1,0,0,1-2.191-2.153Zm3.6,0a1.42,1.42,0,1,0-1.414,1.484,1.382,1.382,0,0,0,1.414-1.484Z" transform="translate(-265.926 -109.879)" fill="#263238"/>
      <path id="Path_29136" data-name="Path 29136" d="M325.793,221.426a1.465,1.465,0,0,1-.922.3,1.2,1.2,0,0,1-1.332-1.319v-2.311h-.72v-.631h.745v-.922h.758v.922h1.206v.631h-1.206v2.279a.631.631,0,0,0,.631.707.96.96,0,0,0,.593-.2Z" transform="translate(-268.744 -109.41)" fill="#263238"/>
      <path id="Path_29137" data-name="Path 29137" d="M336.726,220.082a2.045,2.045,0,0,1-2.127,2.153,1.787,1.787,0,0,1-1.465-.688v2.178h-.764v-5.751h.732v.663a1.786,1.786,0,0,1,1.5-.707,2.045,2.045,0,0,1,2.127,2.153Zm-.77,0a1.42,1.42,0,1,0-1.42,1.484,1.389,1.389,0,0,0,1.42-1.484Z" transform="translate(-272.265 -109.922)" fill="#263238"/>
      <path id="Path_29138" data-name="Path 29138" d="M344.018,219.646v2.525h-.732v-.556a1.572,1.572,0,0,1-1.383.631c-.953,0-1.553-.511-1.553-1.263s.436-1.231,1.686-1.231h1.25v-.145c0-.631-.379-1.016-1.13-1.016a2.115,2.115,0,0,0-1.332.448l-.316-.568a2.765,2.765,0,0,1,1.736-.543A1.566,1.566,0,0,1,344.018,219.646Zm-.758,1.263v-.587h-1.174c-.758,0-.972.3-.972.631s.347.682.928.682a1.225,1.225,0,0,0,1.244-.739Z" transform="translate(-275.207 -109.922)" fill="#263238"/>
      <path id="Path_29139" data-name="Path 29139" d="M347.56,221.762l.316-.631a2.721,2.721,0,0,0,1.477.436c.707,0,1-.215,1-.568,0-.947-2.658-.126-2.658-1.805,0-.751.675-1.263,1.755-1.263a3.049,3.049,0,0,1,1.534.385l-.328.6a2.19,2.19,0,0,0-1.212-.335c-.669,0-.991.246-.991.581,0,.991,2.664.183,2.664,1.818,0,.764-.694,1.263-1.818,1.263A3.036,3.036,0,0,1,347.56,221.762Z" transform="translate(-277.866 -109.923)" fill="#263238"/>
      <path id="Path_29140" data-name="Path 29140" d="M353.86,221.762l.316-.631a2.721,2.721,0,0,0,1.477.436c.707,0,1-.215,1-.568,0-.947-2.658-.126-2.658-1.805,0-.751.675-1.263,1.755-1.263a3.049,3.049,0,0,1,1.534.385l-.328.6a2.191,2.191,0,0,0-1.212-.335c-.669,0-.991.246-.991.581,0,.991,2.664.183,2.664,1.818,0,.764-.694,1.263-1.818,1.263A3.036,3.036,0,0,1,353.86,221.762Z" transform="translate(-280.189 -109.923)" fill="#263238"/>
      <path id="Path_29141" data-name="Path 29141" d="M366.874,218l-1.572,4.2h-.732l-1.212-3.156-1.231,3.156h-.732L359.81,218h.751l1.225,3.346L363.049,218h.631l1.263,3.365L366.2,218Z" transform="translate(-282.383 -109.949)" fill="#263238"/>
      <path id="Path_29142" data-name="Path 29142" d="M371.38,220.046a2.184,2.184,0,1,1,2.191,2.153,2.1,2.1,0,0,1-2.191-2.153Zm3.6,0a1.414,1.414,0,1,0-1.408,1.484,1.376,1.376,0,0,0,1.408-1.484Z" transform="translate(-286.648 -109.886)" fill="#263238"/>
      <path id="Path_29143" data-name="Path 29143" d="M382.247,217.936v.739h-.177a1.263,1.263,0,0,0-1.326,1.42v2.1H380v-4.217h.726v.7A1.623,1.623,0,0,1,382.247,217.936Z" transform="translate(-289.827 -109.922)" fill="#263238"/>
      <path id="Path_29144" data-name="Path 29144" d="M388.776,215.34v5.89h-.732v-.669a1.774,1.774,0,0,1-1.5.72,2.153,2.153,0,0,1,0-4.3,1.8,1.8,0,0,1,1.471.675V215.34Zm-.758,3.788a1.42,1.42,0,1,0-1.414,1.484,1.383,1.383,0,0,0,1.414-1.484Z" transform="translate(-291.488 -108.968)" fill="#263238"/>
      <path id="Path_29145" data-name="Path 29145" d="M395.661,217.3c0-.505-.417-.852-1.136-.852a1.7,1.7,0,0,0-1.42.631l-.574-.41a2.449,2.449,0,0,1,2.052-.89c1.143,0,1.894.53,1.894,1.414,0,1.326-1.4,1.408-1.4,2.449h-.8C394.266,218.391,395.661,218.214,395.661,217.3Zm-1.509,3.63a.518.518,0,1,1,.514.461A.518.518,0,0,1,394.152,220.928Z" transform="translate(-294.447 -109.127)" fill="#263238"/>
      <path id="Path_29146" data-name="Path 29146" d="M364.353,242.634c0,.095-22.335.164-49.872.164s-49.872-.069-49.872-.164,22.329-.164,49.872-.164S364.353,242.546,364.353,242.634Z" transform="translate(-247.281 -118.971)"/>
      <path id="Path_29147" data-name="Path 29147" d="M355.486,251.084c0,.088-12.8.164-28.585.164s-28.591-.076-28.591-.164,12.8-.164,28.591-.164S355.486,250.971,355.486,251.084Z" transform="translate(-259.707 -122.087)"/>
      <path id="Path_29148" data-name="Path 29148" d="M347.348,128.718a15.2,15.2,0,1,0-23.585-3.6L320.67,128l.745,5.132-4.8-1.313-3.87,3.611.77,5.1-4.8-1.345-3.327,3.1.455,3.156-2.929-.821-1.932,1.805-.29,4.754,7.089,1.787L330.79,131.5a15.208,15.208,0,0,0,16.559-2.784Zm-2.273-18.692a4.362,4.362,0,1,1-6.161-.215,4.362,4.362,0,0,1,6.161.215Z" transform="translate(-260.584 -67.326)" fill="#263238"/>
      <path id="Path_29149" data-name="Path 29149" d="M347.348,128.718a15.2,15.2,0,1,0-23.585-3.6L320.67,128l.745,5.132-4.8-1.313-3.87,3.611.77,5.1-4.8-1.345-3.327,3.1.455,3.156-2.929-.821-1.932,1.805-.29,4.754,7.089,1.787L330.79,131.5a15.208,15.208,0,0,0,16.559-2.784Zm-2.273-18.692a4.362,4.362,0,1,1-6.161-.215,4.362,4.362,0,0,1,6.161.215Z" transform="translate(-260.584 -67.326)" fill="none"/>
      <path id="Path_29150" data-name="Path 29150" d="M366.487,113.584a6.32,6.32,0,0,0-.865-.631,4.419,4.419,0,0,0-2.746-.6,4.2,4.2,0,1,0,4.583,4.911,4.331,4.331,0,0,0-.41-2.778c-.316-.631-.593-.884-.562-.909s.082.057.208.189a3.491,3.491,0,0,1,.486.631,4.324,4.324,0,0,1,.543,2.891,4.518,4.518,0,1,1-4.874-5.221,4.331,4.331,0,0,1,2.853.745,3.373,3.373,0,0,1,.631.524C366.487,113.5,366.525,113.578,366.487,113.584Z" transform="translate(-281.996 -70.884)" fill="#263238"/>
      <path id="Path_29151" data-name="Path 29151" d="M347.219,128.545s-.069.076-.221.208l-.669.631a15.731,15.731,0,0,1-2.942,1.894,15.283,15.283,0,0,1-12.809.183h.126l-22.973,21.5-.063.069h-.095l-7.089-1.78-.145-.032v-.152c.088-1.484.183-3.106.284-4.754v-.151l.051-.051,1.976-1.843.069-.069h.1l2.929.821-.234.2c-.145-.979-.3-2.052-.455-3.156v-.095l.069-.063,3.327-3.106.076-.076h.1l4.8,1.345-.234.208c-.234-1.629-.486-3.371-.739-5.132v-.1l.076-.063,1.023-.96,2.847-2.651.076-.076h.1l4.8,1.345-.24.208q-.373-2.595-.739-5.132v-.095l.069-.069,3.093-2.885-.032.227a15.472,15.472,0,0,1-1.976-6.944,14.519,14.519,0,0,1,.252-3.516,14.869,14.869,0,0,1,1.01-3.308,15.314,15.314,0,0,1,29.317,7.348,14.942,14.942,0,0,1-1.7,5.852c-.095.189-.189.366-.284.543l-.309.48a9.758,9.758,0,0,1-.581.865c-.41.492-.726.934-1.035,1.263l-.757.84-.246.227s.069-.088.221-.253l.682-.726a15.76,15.76,0,0,0,1-1.263c.189-.259.354-.562.556-.865.1-.158.2-.316.3-.486l.278-.537a15.069,15.069,0,1,0-27.183-12.973,14.854,14.854,0,0,0-.985,3.232,14.518,14.518,0,0,0-.24,3.434,15.15,15.15,0,0,0,1.938,6.755l.069.126-.107.1-3.087,2.885.057-.164q.366,2.525.739,5.139l.044.284-.284-.076-4.8-1.345.183-.044-2.847,2.651-1.016.941.057-.17c.253,1.761.505,3.51.739,5.132l.044.29-.284-.076-4.8-1.351.177-.044c-1.143,1.073-2.279,2.127-3.327,3.106l.063-.164c.151,1.08.3,2.153.448,3.156l.038.278-.271-.076-2.923-.821.17-.044-1.938,1.805.057-.12c-.1,1.648-.2,3.27-.29,4.754l-.133-.183,7.089,1.787-.158.044,23.042-21.426.057-.051h.069a15.2,15.2,0,0,0,12.664-.088A16.685,16.685,0,0,0,346.3,129.3l.688-.574Z" transform="translate(-260.455 -67.152)" fill="#263238"/>
      <path id="Path_29152" data-name="Path 29152" d="M346.527,125.994a15.2,15.2,0,1,0-23.579-3.611h0l-3.087,2.879.739,5.139-4.8-1.351-3.863,3.617.739,5.132-4.8-1.345-3.327,3.106.448,3.156-2.923-.814-1.938,1.805-.29,4.754,7.089,1.78,23.01-21.464A15.189,15.189,0,0,0,346.527,125.994ZM344.28,107.3a4.356,4.356,0,1,1-3.036-1.385A4.362,4.362,0,0,1,344.28,107.3Z" transform="translate(-260.275 -66.325)" fill="#283891"/>
      <path id="Path_29153" data-name="Path 29153" d="M346.527,125.994a15.2,15.2,0,1,0-23.579-3.611h0l-3.087,2.879.739,5.139-4.8-1.351-3.863,3.617.739,5.132-4.8-1.345-3.327,3.106.448,3.156-2.923-.814-1.938,1.805-.29,4.754,7.089,1.78,23.01-21.464A15.189,15.189,0,0,0,346.527,125.994ZM344.28,107.3a4.356,4.356,0,1,1-3.036-1.385A4.362,4.362,0,0,1,344.28,107.3Z" transform="translate(-260.275 -66.325)" fill="none"/>
      <path id="Path_29154" data-name="Path 29154" d="M365.7,110.866a6.319,6.319,0,0,0-.865-.631,4.324,4.324,0,0,0-2.74-.631,4.192,4.192,0,1,0,4.583,4.911,4.324,4.324,0,0,0-.417-2.778,10.136,10.136,0,0,0-.562-.909c.025-.025.082.057.215.189a3.5,3.5,0,0,1,.48.631,4.318,4.318,0,0,1,.543,2.9,4.525,4.525,0,1,1-4.9-5.177,4.324,4.324,0,0,1,2.853.751,3.155,3.155,0,0,1,.631.524C365.659,110.784,365.716,110.859,365.7,110.866Z" transform="translate(-281.698 -69.889)" fill="#263238"/>
      <path id="Path_29155" data-name="Path 29155" d="M346.413,125.863s-.069.076-.215.208l-.669.593a16.026,16.026,0,0,1-2.942,1.894,15.3,15.3,0,0,1-12.815.183h.126l-22.966,21.5-.069.063h-.088l-7.1-1.78-.139-.038v-.145c.088-1.484.189-3.106.284-4.754v-.076l.051-.044,1.938-1.812.076-.069h.1l2.923.814-.234.208c-.139-.979-.3-2.052-.455-3.156v-.095l.076-.069,3.321-3.1.076-.076.107.032,4.8,1.345-.24.208-.739-5.12v-.1l.069-.069,1.029-.953,2.841-2.651.076-.076.107.032,4.8,1.345-.24.208q-.372-2.595-.739-5.132v-.1l.076-.063,3.093-2.885-.038.227a15.472,15.472,0,0,1-1.976-6.944,14.834,14.834,0,0,1,.252-3.516,14.994,14.994,0,0,1,1.01-3.308,15.309,15.309,0,0,1,29.317,7.342,14.974,14.974,0,0,1-1.7,5.852l-.284.543-.309.48c-.208.309-.379.631-.574.865-.41.492-.726.934-1.035,1.263l-.732.7c-.158.158-.246.234-.246.234s.076-.095.227-.259l.675-.72a15.758,15.758,0,0,0,1-1.263c.189-.253.36-.556.562-.865l.3-.48.271-.543a15.073,15.073,0,1,0-28.155-9.76,14.173,14.173,0,0,0-.24,3.434,15.151,15.151,0,0,0,1.932,6.755l.076.126-.107.1-3.093,2.885.057-.164q.372,2.525.739,5.132l.044.29-.278-.082-4.817-1.351.177-.044-2.841,2.658-1.029.953.057-.164c.259,1.761.505,3.5.739,5.132l.044.29-.278-.082-4.8-1.345.183-.044-3.327,3.1.057-.158c.152,1.08.309,2.146.448,3.125l.038.284-.271-.076-2.923-.821.17-.044-1.932,1.805.057-.126c-.1,1.648-.2,3.276-.3,4.754l-.133-.183,7.089,1.793-.158.044,23.042-21.426.057-.051.069.032a15.265,15.265,0,0,0,12.664-.088,16.924,16.924,0,0,0,2.961-1.805l.682-.574Z" transform="translate(-260.16 -66.193)" fill="#263238"/>
      <path id="Path_29156" data-name="Path 29156" d="M358.326,125.848a20.518,20.518,0,0,0,2.045-2.576,12.778,12.778,0,0,0,1.559-3.5,13.346,13.346,0,0,0,.436-5.05,13.162,13.162,0,0,0-2-5.757A13.32,13.32,0,0,0,355.2,104.3a12.31,12.31,0,0,0-3.592-1.212,14.3,14.3,0,0,0-1.951-.227,15.235,15.235,0,0,0-2,.1,13.125,13.125,0,0,0-11.407,10.637,15.159,15.159,0,0,0-.24,1.989,14.462,14.462,0,0,0,.095,1.963,12.229,12.229,0,0,0,.96,3.668,13.257,13.257,0,0,0,4.305,5.473,13.068,13.068,0,0,0,5.6,2.4,13.257,13.257,0,0,0,5.05-.082,12.9,12.9,0,0,0,3.6-1.319,20.124,20.124,0,0,0,2.708-1.856,1.289,1.289,0,0,1-.152.152l-.473.429a6.229,6.229,0,0,1-.814.631,9.234,9.234,0,0,1-1.2.77,12.771,12.771,0,0,1-3.624,1.4,13.465,13.465,0,0,1-15.321-7.86,12.677,12.677,0,0,1-1-3.788,12.229,12.229,0,0,1,.12-4.009,13.472,13.472,0,0,1,11.729-10.94,12.575,12.575,0,0,1,4.059.139,12.853,12.853,0,0,1,3.687,1.263,13.5,13.5,0,0,1,6.8,15.852,12.626,12.626,0,0,1-1.648,3.523,8.574,8.574,0,0,1-.846,1.136,6.365,6.365,0,0,1-.694.77l-.461.442A1.26,1.26,0,0,1,358.326,125.848Z" transform="translate(-273.469 -67.365)" fill="#263238"/>
      <path id="Path_29157" data-name="Path 29157" d="M365.48,117.118a11.493,11.493,0,0,0,.739-1,5.05,5.05,0,0,0,.72-3.226,4.931,4.931,0,0,0-2.708-3.9,4.874,4.874,0,0,0-2.816-.5,4.943,4.943,0,0,0-3.965,6.824,5.022,5.022,0,0,0,6.969,2.468c.707-.372,1.029-.7,1.061-.669s-.069.095-.227.24a3.787,3.787,0,0,1-.764.562,5.151,5.151,0,0,1-5.618-.3,5.271,5.271,0,1,1,7.569-7.051,5.183,5.183,0,0,1-.095,5.625,3.977,3.977,0,0,1-.631.72C365.575,117.061,365.486,117.13,365.48,117.118Z" transform="translate(-281.234 -69.424)" fill="#263238"/>
      <path id="Path_29158" data-name="Path 29158" d="M308.12,165.639c-.069-.076,5.107-5.05,11.572-11.054s11.761-10.852,11.83-10.776-5.107,5.05-11.572,11.054S308.189,165.715,308.12,165.639Z" transform="translate(-263.323 -82.594)" fill="#263238"/>
      <path id="Path_29159" data-name="Path 29159" d="M311.932,130.4l.215-.467.278.429a2.172,2.172,0,0,0,.922.783l.473.208-.429.284a2.153,2.153,0,0,0-.789.922l-.208.467-.284-.429a2.146,2.146,0,0,0-.922-.783l-.467-.208.429-.284A2.1,2.1,0,0,0,311.932,130.4Z" transform="translate(-264.282 -77.476)" fill="#ff725e"/>
      <path id="Path_29160" data-name="Path 29160" d="M289.917,124.951l.12-.271.164.246a1.212,1.212,0,0,0,.537.455l.271.126-.253.164a1.262,1.262,0,0,0-.455.53l-.12.278-.164-.253a1.212,1.212,0,0,0-.537-.455l-.271-.126.246-.158a1.307,1.307,0,0,0,.461-.537Z" transform="translate(-256.351 -75.541)" fill="#ff725e"/>
      <path id="Path_29161" data-name="Path 29161" d="M360.187,162.981l.12-.271.164.253a1.339,1.339,0,0,0,.537.455l.271.12-.246.164a1.212,1.212,0,0,0-.454.537l-.126.271-.164-.246a1.262,1.262,0,0,0-.53-.461l-.278-.12.253-.164A1.212,1.212,0,0,0,360.187,162.981Z" transform="translate(-282.261 -89.563)" fill="#ff725e"/>
      <path id="Path_29162" data-name="Path 29162" d="M394.288,143.367l.208-.467.284.429a2.14,2.14,0,0,0,.922.783l.467.208-.429.284a2.134,2.134,0,0,0-.783.922l-.215.467-.278-.429a2.216,2.216,0,0,0-.922-.783l-.473-.208.429-.284a2.153,2.153,0,0,0,.789-.922Z" transform="translate(-294.646 -82.259)" fill="#ff725e"/>
      <path id="Path_29163" data-name="Path 29163" d="M389.335,115.859l.354-.789.473.726a3.655,3.655,0,0,0,1.547,1.319l.789.347-.726.473a3.705,3.705,0,0,0-1.319,1.553l-.354.789-.473-.726a3.656,3.656,0,0,0-1.547-1.319l-.789-.354.726-.473A3.655,3.655,0,0,0,389.335,115.859Z" transform="translate(-292.515 -71.997)" fill="#ff725e"/>
      <path id="Path_29164" data-name="Path 29164" d="M304.519,107.439l.354-.789.473.72a3.611,3.611,0,0,0,1.547,1.319l.789.354-.72.473a3.567,3.567,0,0,0-1.319,1.547l-.354.789-.473-.72a3.592,3.592,0,0,0-1.553-1.319l-.783-.354.72-.473a3.611,3.611,0,0,0,1.319-1.547Z" transform="translate(-261.244 -68.893)" fill="#ff725e"/>
      <path id="Path_29165" data-name="Path 29165" d="M356.151,287.086a5.205,5.205,0,0,0,.593-.051,3.859,3.859,0,0,0,.732-.082l.461-.076.524-.139a8.472,8.472,0,0,0,2.576-1.149,8.939,8.939,0,0,0,4.078-7.285v-1.357l-.038-.694a4.477,4.477,0,0,0-.107-.7,9.242,9.242,0,0,0-1-2.784A8.958,8.958,0,0,0,359,268.678a10.1,10.1,0,0,0-3.542-.467h-3.826l-81.682.051a8.914,8.914,0,0,0-5.429,1.85,9.4,9.4,0,0,0-1.97,2.1,8.951,8.951,0,0,0-1.181,2.6,9.8,9.8,0,0,0-.271,1.4c0,.473-.063.947-.051,1.433a9.471,9.471,0,0,0,.341,2.8,9.274,9.274,0,0,0,1.168,2.525A9.6,9.6,0,0,0,264.45,285a8.637,8.637,0,0,0,2.4,1.345,9.657,9.657,0,0,0,1.307.385,9.926,9.926,0,0,0,1.357.158c1.824.044,3.668,0,5.473,0H285.6l36.722.032,24.759.057,6.73.032h0l-6.73.032-24.759.051-36.722.038H269.488a10.584,10.584,0,0,1-1.4-.158,10.165,10.165,0,0,1-1.357-.4,8.84,8.84,0,0,1-2.481-1.389,9.084,9.084,0,0,1-3.156-4.728,9.95,9.95,0,0,1-.354-2.891,14.261,14.261,0,0,1,.05-1.465,10.356,10.356,0,0,1,.284-1.452,9.4,9.4,0,0,1,1.225-2.7,9.539,9.539,0,0,1,2.045-2.172,9.223,9.223,0,0,1,5.625-1.894l81.682.044h3.826a10.568,10.568,0,0,1,3.611.486,9.185,9.185,0,0,1,5.05,4.2,9.349,9.349,0,0,1,1.016,2.847l.107.713v2.077a9.273,9.273,0,0,1-.436,2.525,9.47,9.47,0,0,1-1,2.1,8.964,8.964,0,0,1-2.74,2.74,8.7,8.7,0,0,1-2.614,1.136l-.53.126-.467.069a4.324,4.324,0,0,1-.732.069Z" transform="translate(-245.852 -128.336)" fill="#263238"/>
      <rect id="Rectangle_17394" data-name="Rectangle 17394" width="104.327" height="18.983" rx="9.491" transform="translate(15.031 162.809)" fill="#283891"/>
      <path id="Path_29166" data-name="Path 29166" d="M287.437,284.756a4.262,4.262,0,0,1,0-.562c0-.391,0-.9-.032-1.534,0-1.351-.038-3.22-.069-5.473l.133.126-11.281.038.164-.164h0v7.557l-.151-.152,8.087.076,2.336.038h.859a6.07,6.07,0,0,1-.8.038l-2.3.038-8.207.076h-.2V277.2h0c-.145.145.2-.2.164-.17l11.281.038h.133v.133c-.032,2.292-.057,4.185-.069,5.555,0,.631,0,1.124-.038,1.509A3.623,3.623,0,0,1,287.437,284.756Z" transform="translate(-251.46 -131.713)" fill="#263238"/>
      <path id="Path_29167" data-name="Path 29167" d="M287.565,277.28a14.919,14.919,0,0,1-1.578,1.515c-1,.909-2.4,2.14-3.952,3.491h-.246l-.038-.032-.076-.063-.145-.126-.284-.246-.556-.486-1.054-.928-1.768-1.578a14.926,14.926,0,0,1-1.578-1.515A13.823,13.823,0,0,1,278,278.618l1.812,1.528,1.067.909.562.48.29.253.139.126.076.057.038.032h-.2c1.559-1.345,2.98-2.525,4.021-3.415a13.828,13.828,0,0,1,1.755-1.307Z" transform="translate(-251.588 -131.806)" fill="#263238"/>
      <path id="Path_29168" data-name="Path 29168" d="M280.367,282.86a12.177,12.177,0,0,1-1.894,2.14,12.726,12.726,0,0,1-2.153,1.894,12.775,12.775,0,0,1,1.894-2.14A13.009,13.009,0,0,1,280.367,282.86Z" transform="translate(-251.599 -133.864)" fill="#263238"/>
      <path id="Path_29169" data-name="Path 29169" d="M291.927,286.77a12.36,12.36,0,0,1-2.026-2.033,12.921,12.921,0,0,1-1.78-2.247,12.707,12.707,0,0,1,2.026,2.033,12.561,12.561,0,0,1,1.78,2.247Z" transform="translate(-255.95 -133.727)" fill="#263238"/>
      <path id="Path_29170" data-name="Path 29170" d="M303.41,283.605v.253h-2.62V280.07h2.525v.253h-2.26v1.5h2.02v.246h-2.02v1.553Z" transform="translate(-260.621 -132.835)" fill="#263238"/>
      <path id="Path_29171" data-name="Path 29171" d="M311.053,282.759v1.654h-.271v-1.635c0-.631-.335-.979-.884-.979a1,1,0,0,0-1.035,1.1v1.509h-.271v-1.635c0-.631-.335-.978-.884-.978a1,1,0,0,0-1.035,1.1v1.509H306.4v-2.834h.259v.631a1.124,1.124,0,0,1,1.086-.631,1,1,0,0,1,1.035.682,1.193,1.193,0,0,1,1.143-.682,1.061,1.061,0,0,1,1.13,1.18Z" transform="translate(-262.69 -133.39)" fill="#263238"/>
      <path id="Path_29172" data-name="Path 29172" d="M317.428,282.6v1.8h-.259v-.505a1.1,1.1,0,0,1-1.023.524c-.631,0-1.016-.322-1.016-.808s.271-.789,1.054-.789h.972v-.227a.739.739,0,0,0-.84-.808,1.49,1.49,0,0,0-.978.354l-.133-.2a1.73,1.73,0,0,1,1.13-.4.96.96,0,0,1,1.092,1.054Zm-.271.96v-.53h-.966c-.587,0-.789.246-.789.568s.284.6.783.6A.972.972,0,0,0,317.156,283.558Z" transform="translate(-265.908 -133.375)" fill="#263238"/>
      <path id="Path_29173" data-name="Path 29173" d="M320.4,280.021a.221.221,0,1,1,.221.221A.221.221,0,0,1,320.4,280.021Zm.082.9h.3v2.834h-.271Z" transform="translate(-267.852 -132.735)" fill="#263238"/>
      <path id="Path_29174" data-name="Path 29174" d="M322.77,279.69h.271v4.028h-.271Z" transform="translate(-268.725 -132.695)" fill="#263238"/>
      <path id="Path_29175" data-name="Path 29175" d="M308.948,321.3l-1.023-1.433a3,3,0,0,1-.417,0h-1.225v1.4H306V317h1.534c1.073,0,1.723.537,1.723,1.446a1.313,1.313,0,0,1-1,1.338l1.073,1.5Zm-1.439-1.673c.915,0,1.408-.429,1.408-1.162s-.492-1.168-1.408-1.168h-1.225v2.329Z" transform="translate(-262.542 -146.451)" fill="#fff"/>
      <path id="Path_29176" data-name="Path 29176" d="M315.271,320.4h-2.746a1.263,1.263,0,0,0,1.351,1.263,1.3,1.3,0,0,0,1.023-.442l.177.2a1.521,1.521,0,0,1-1.206.518,1.566,1.566,0,0,1-1.641-1.622,1.528,1.528,0,1,1,3.049,0S315.271,320.371,315.271,320.4Zm-2.74-.24h2.449a1.225,1.225,0,1,0-2.449,0Z" transform="translate(-264.837 -147.076)" fill="#fff"/>
      <path id="Path_29177" data-name="Path 29177" d="M317.82,321.548l.139-.246a1.894,1.894,0,0,0,1.149.385c.675,0,.947-.234.947-.6,0-.928-2.121-.24-2.121-1.5,0-.48.4-.871,1.212-.871a1.976,1.976,0,0,1,1.1.309l-.145.246a1.641,1.641,0,0,0-.96-.29c-.631,0-.9.259-.9.6,0,.96,2.115.284,2.115,1.5,0,.518-.448.871-1.263.871A2,2,0,0,1,317.82,321.548Z" transform="translate(-266.9 -147.085)" fill="#fff"/>
      <path id="Path_29178" data-name="Path 29178" d="M325.688,320.408h-2.746a1.263,1.263,0,0,0,1.351,1.263,1.3,1.3,0,0,0,1.023-.442l.177.2a1.534,1.534,0,0,1-1.206.518,1.572,1.572,0,0,1-1.648-1.622,1.528,1.528,0,0,1,1.534-1.616,1.509,1.509,0,0,1,1.521,1.6S325.688,320.377,325.688,320.408Zm-2.74-.24h2.443a1.225,1.225,0,0,0-2.443,0Z" transform="translate(-268.676 -147.082)" fill="#fff"/>
      <path id="Path_29179" data-name="Path 29179" d="M330.273,321.337a.978.978,0,0,1-.631.227.789.789,0,0,1-.865-.871V318.61h-.587v-.265h.587v-.694h.3v.694H330.1v.265H329.08v2.058c0,.41.2.631.593.631a.732.732,0,0,0,.5-.177Z" transform="translate(-270.724 -146.691)" fill="#fff"/>
      <path id="Path_29180" data-name="Path 29180" d="M338.751,318.465c0,.9-.631,1.433-1.723,1.433h-1.212v1.4H335.5V317h1.54C338.1,317,338.751,317.556,338.751,318.465Zm-.316,0c0-.745-.492-1.168-1.408-1.168h-1.212v2.323h1.225C337.943,319.62,338.435,319.2,338.435,318.465Z" transform="translate(-273.419 -146.451)" fill="#fff"/>
      <path id="Path_29181" data-name="Path 29181" d="M344.255,319.9v2.026h-.3v-.568a1.225,1.225,0,0,1-1.149.593c-.713,0-1.149-.366-1.149-.909s.3-.9,1.193-.9h1.092v-.253a.833.833,0,0,0-.947-.915,1.66,1.66,0,0,0-1.1.4l-.151-.221a1.976,1.976,0,0,1,1.263-.448,1.086,1.086,0,0,1,1.25,1.187Zm-.309,1.086v-.6h-1.086c-.663,0-.9.278-.9.631s.322.669.89.669a1.086,1.086,0,0,0,1.092-.7Z" transform="translate(-275.69 -147.078)" fill="#fff"/>
      <path id="Path_29182" data-name="Path 29182" d="M347,321.548l.139-.246a1.85,1.85,0,0,0,1.149.385c.675,0,.941-.234.941-.6,0-.928-2.115-.24-2.115-1.5,0-.48.4-.871,1.212-.871a1.938,1.938,0,0,1,1.092.309l-.139.246a1.654,1.654,0,0,0-.96-.29c-.631,0-.9.259-.9.6,0,.96,2.121.284,2.121,1.5,0,.518-.448.871-1.263.871a1.982,1.982,0,0,1-1.275-.41Z" transform="translate(-277.659 -147.085)" fill="#fff"/>
      <path id="Path_29183" data-name="Path 29183" d="M351.65,321.548l.139-.246a1.894,1.894,0,0,0,1.149.385c.675,0,.947-.234.947-.6,0-.928-2.121-.24-2.121-1.5,0-.48.4-.871,1.212-.871a1.976,1.976,0,0,1,1.1.309l-.145.246a1.641,1.641,0,0,0-.96-.29c-.631,0-.9.259-.9.6,0,.96,2.115.284,2.115,1.5,0,.518-.448.871-1.263.871a2,2,0,0,1-1.275-.41Z" transform="translate(-279.374 -147.085)" fill="#fff"/>
      <path id="Path_29184" data-name="Path 29184" d="M361.151,318.75l-1.212,3.194h-.29l-1.073-2.771-1.086,2.771h-.278L356,318.75h.29l1.067,2.853,1.092-2.853h.259l1.086,2.847,1.073-2.847Z" transform="translate(-280.978 -147.097)" fill="#fff"/>
      <path id="Path_29185" data-name="Path 29185" d="M364.589,320.362a1.6,1.6,0,1,1,1.591,1.622,1.547,1.547,0,0,1-1.591-1.622Zm2.879,0a1.263,1.263,0,1,0-.339.946A1.263,1.263,0,0,0,367.468,320.362Z" transform="translate(-284.144 -147.111)" fill="#fff"/>
      <path id="Path_29186" data-name="Path 29186" d="M372.659,318.717v.3h-.076c-.707,0-1.13.473-1.13,1.263v1.66h-.3v-3.194h.29v.7a1.212,1.212,0,0,1,1.218-.726Z" transform="translate(-286.564 -147.083)" fill="#fff"/>
      <path id="Path_29187" data-name="Path 29187" d="M377.495,316.62v4.539h-.3v-.751a1.42,1.42,0,0,1-1.307.776,1.622,1.622,0,0,1,0-3.238,1.427,1.427,0,0,1,1.3.764v-2.09Zm-.3,2.942a1.263,1.263,0,1,0-.339.946A1.263,1.263,0,0,0,377.192,319.562Z" transform="translate(-287.751 -146.311)" fill="#fff"/>
      <path id="Path_29188" data-name="Path 29188" d="M367.7,62.984c0,.088-29.184.164-65.18.164s-65.18-.076-65.18-.164,29.178-.164,65.18-.164S367.7,62.9,367.7,62.984Z" transform="translate(-237.226 -52.732)" fill="#263238"/>
      <path id="Path_29189" data-name="Path 29189" d="M247.149,53.951a1.584,1.584,0,1,1-.462-1.125,1.585,1.585,0,0,1,.462,1.125Z" transform="translate(-239.675 -48.875)" fill="#263238"/>
      <path id="Path_29190" data-name="Path 29190" d="M254.409,53.951a1.585,1.585,0,1,1-.462-1.125,1.585,1.585,0,0,1,.462,1.125Z" transform="translate(-242.351 -48.875)" fill="#263238"/>
      <path id="Path_29191" data-name="Path 29191" d="M261.629,53.951a1.585,1.585,0,1,1-1.566-1.591A1.585,1.585,0,0,1,261.629,53.951Z" transform="translate(-245.014 -48.875)" fill="#263238"/>
      <path id="Path_29192" data-name="Path 29192" d="M367.868,244.85c0-1.351-.063-81.4-.152-197.833l.152.152H237.324l.164-.164c0,74.656,0,143.485-.038,197.833l-.126-.126,130.557.126-130.557.133h-.133v-.133c0-54.348,0-123.177-.032-197.833V46.84H368.032v.152C367.931,163.451,367.868,243.505,367.868,244.85Z" transform="translate(-237.16 -46.84)" fill="#263238"/>
    </g>
    <g id="freepik--Plant--inject-17" transform="translate(267.488 194.776)">
      <path id="Path_29193" data-name="Path 29193" d="M439.091,384.6a1.858,1.858,0,0,0-.107-.259c-.088-.183-.2-.423-.347-.739a18.2,18.2,0,0,1-1.016-2.961,26.154,26.154,0,0,1,.082-11.426,62.5,62.5,0,0,1,2.121-7.683c.9-2.721,1.944-5.612,2.79-8.737A33.8,33.8,0,0,0,444,342.737a39.372,39.372,0,0,0-2.342-10.637,51.318,51.318,0,0,1-2.708-10.473,15.984,15.984,0,0,1,1.894-9.671c1.534-2.822,3.459-5.24,4.905-7.74a27.056,27.056,0,0,0,2.948-7.437,27.777,27.777,0,0,0,.183-11.527,21.666,21.666,0,0,0-1.2-4.072,1.577,1.577,0,0,0,.069.271c.063.2.139.454.246.783a30.3,30.3,0,0,1,.745,3.043,28.049,28.049,0,0,1-.3,11.439,26.659,26.659,0,0,1-2.961,7.348c-1.439,2.468-3.371,4.874-4.937,7.727a16.255,16.255,0,0,0-1.976,9.873,51.374,51.374,0,0,0,2.715,10.549,39.363,39.363,0,0,1,2.329,10.536,33.636,33.636,0,0,1-1.345,9.949c-.84,3.112-1.894,6-2.759,8.737a60.859,60.859,0,0,0-2.083,7.727,25.751,25.751,0,0,0,.032,11.515,17.4,17.4,0,0,0,1.086,2.954l.385.726a1.318,1.318,0,0,0,.164.24Z" transform="translate(-413.226 -281.18)" fill="#263238"/>
      <path id="Path_29194" data-name="Path 29194" d="M446.129,312.8s2.929-9.368-2.329-14.854a.322.322,0,0,0-.556.164C442.966,299.659,442.613,304.369,446.129,312.8Z" transform="translate(-415.542 -287.324)" fill="#ff725e"/>
      <path id="Path_29195" data-name="Path 29195" d="M445.13,303a8.378,8.378,0,0,0,.2,1.73c.189,1.193.417,2.588.669,4.135s.467,2.942.631,4.129a8.8,8.8,0,0,0,.309,1.711,7.262,7.262,0,0,0-.057-1.742c-.095-1.067-.284-2.525-.549-4.16s-.543-3.068-.777-4.116A8.036,8.036,0,0,0,445.13,303Z" transform="translate(-416.298 -289.225)" fill="#263238"/>
      <path id="Path_29196" data-name="Path 29196" d="M436.951,349.489s-1.793-9.646-9-12.039a.328.328,0,0,0-.417.4C428.006,339.351,429.9,343.681,436.951,349.489Z" transform="translate(-409.805 -301.922)" fill="#ff725e"/>
      <path id="Path_29197" data-name="Path 29197" d="M431.31,341.41a8.673,8.673,0,0,0,.978,1.433l2.525,3.34c.941,1.263,1.787,2.386,2.525,3.346a10.265,10.265,0,0,0,1.073,1.37,7.577,7.577,0,0,0-.859-1.515c-.587-.9-1.446-2.115-2.437-3.422s-1.894-2.456-2.607-3.276a7.99,7.99,0,0,0-1.2-1.275Z" transform="translate(-411.202 -303.387)" fill="#263238"/>
      <path id="Path_29198" data-name="Path 29198" d="M442.251,386.589s1.092-9.753-5.113-14.135a.328.328,0,0,0-.518.265C436.639,374.292,437.194,378.982,442.251,386.589Z" transform="translate(-413.16 -314.812)" fill="#ff725e"/>
      <path id="Path_29199" data-name="Path 29199" d="M439.27,377.17a8.059,8.059,0,0,0,.524,1.66c.417,1.13.9,2.462,1.439,3.927s1.023,2.8,1.433,3.933a9.16,9.16,0,0,0,.631,1.616,7.1,7.1,0,0,0-.385-1.7c-.3-1.029-.764-2.443-1.332-3.977s-1.124-2.91-1.547-3.9a8.024,8.024,0,0,0-.764-1.566Z" transform="translate(-414.137 -316.573)" fill="#263238"/>
      <path id="Path_29200" data-name="Path 29200" d="M433.363,425.282s.739-9.791-5.618-13.945a.322.322,0,0,0-.505.284C427.315,413.186,428.035,417.858,433.363,425.282Z" transform="translate(-409.701 -329.149)" fill="#ff725e"/>
      <path id="Path_29201" data-name="Path 29201" d="M430,416a9.244,9.244,0,0,0,.587,1.641c.455,1.117.991,2.424,1.585,3.87s1.117,2.765,1.572,3.876a8.412,8.412,0,0,0,.688,1.6,7.524,7.524,0,0,0-.448-1.686c-.335-1.016-.852-2.411-1.477-3.927s-1.225-2.866-1.686-3.838A7.405,7.405,0,0,0,430,416Z" transform="translate(-410.719 -330.89)" fill="#263238"/>
      <path id="Path_29202" data-name="Path 29202" d="M454.58,301.215s8.7-4.545,8.87-12.14a.328.328,0,0,0-.511-.278C461.644,289.694,458.065,292.768,454.58,301.215Z" transform="translate(-419.782 -283.968)" fill="#ff725e"/>
      <path id="Path_29203" data-name="Path 29203" d="M461.685,293.41a7.848,7.848,0,0,0-1.086,1.357l-2.456,3.39c-.915,1.263-1.749,2.411-2.462,3.384a10.736,10.736,0,0,0-.991,1.427,7.2,7.2,0,0,0,1.2-1.263c.688-.827,1.6-2,2.525-3.333s1.793-2.525,2.374-3.459A8.354,8.354,0,0,0,461.685,293.41Z" transform="translate(-419.823 -285.689)" fill="#263238"/>
      <path id="Path_29204" data-name="Path 29204" d="M439.78,333.387s8.977-4.021,9.608-11.6a.322.322,0,0,0-.492-.309C447.532,322.314,443.77,325.167,439.78,333.387Z" transform="translate(-414.325 -296.021)" fill="#ff725e"/>
      <path id="Path_29205" data-name="Path 29205" d="M447.447,326a8.444,8.444,0,0,0-1.162,1.263l-2.658,3.232-2.658,3.232a9.577,9.577,0,0,0-1.08,1.364,7.384,7.384,0,0,0,1.263-1.193c.739-.783,1.717-1.894,2.752-3.156s1.944-2.443,2.576-3.308A7.3,7.3,0,0,0,447.447,326Z" transform="translate(-414.366 -297.706)" fill="#263238"/>
      <path id="Path_29206" data-name="Path 29206" d="M447.933,367.22s6.155-7.645,3.27-14.671a.328.328,0,0,0-.581-.057C449.8,353.831,447.75,358.092,447.933,367.22Z" transform="translate(-417.327 -307.418)" fill="#ff725e"/>
      <path id="Path_29207" data-name="Path 29207" d="M450.646,357.6a8.553,8.553,0,0,0-.448,1.679c-.259,1.181-.556,2.563-.89,4.091l-.9,4.084a9.706,9.706,0,0,0-.341,1.7,6.825,6.825,0,0,0,.587-1.635c.3-1.035.669-2.475,1.01-4.072s.631-3.062.783-4.122a7.86,7.86,0,0,0,.2-1.73Z" transform="translate(-417.382 -309.357)" fill="#263238"/>
      <path id="Path_29208" data-name="Path 29208" d="M438.29,410.683s8.889-4.154,9.394-11.736a.322.322,0,0,0-.492-.3C445.859,399.484,442.147,402.4,438.29,410.683Z" transform="translate(-413.776 -324.475)" fill="#ff725e"/>
      <path id="Path_29209" data-name="Path 29209" d="M445.809,403.16a8.84,8.84,0,0,0-1.143,1.307l-2.595,3.283c-.979,1.225-1.856,2.329-2.614,3.27a9.568,9.568,0,0,0-1.048,1.383,7.236,7.236,0,0,0,1.263-1.212c.726-.8,1.685-1.925,2.7-3.213s1.894-2.475,2.525-3.352A7.883,7.883,0,0,0,445.809,403.16Z" transform="translate(-413.82 -326.155)" fill="#263238"/>
      <path id="Path_29210" data-name="Path 29210" d="M410.24,356.62v.846c.032.593.063,1.389.107,2.38.114,2.1.278,5.012.467,8.5h0a32.888,32.888,0,0,0,4.874,11.306c1.78,2.816,3.649,5.379,5.265,7.759a54.443,54.443,0,0,1,3.939,6.521,27.4,27.4,0,0,1,1.85,4.785c.158.587.271,1.042.341,1.357a2.178,2.178,0,0,0,.133.473,3.891,3.891,0,0,0-.063-.492c-.044-.316-.139-.783-.271-1.376a25.472,25.472,0,0,0-1.755-4.861,51.1,51.1,0,0,0-3.9-6.6c-1.6-2.4-3.459-4.962-5.233-7.765a33.48,33.48,0,0,1-4.874-11.174h0c-.246-3.491-.455-6.4-.6-8.491-.082-.991-.145-1.787-.189-2.38,0-.246-.05-.455-.063-.631A.932.932,0,0,0,410.24,356.62Z" transform="translate(-403.434 -308.996)" fill="#263238"/>
      <path id="Path_29211" data-name="Path 29211" d="M417.786,383.161s-3.788-9.065.972-15.006a.322.322,0,0,1,.568.114C419.749,369.772,420.551,374.431,417.786,383.161Z" transform="translate(-405.689 -313.202)" fill="#ff725e"/>
      <path id="Path_29212" data-name="Path 29212" d="M419.193,373.22a7.852,7.852,0,0,0-.3,1.717c-.133,1.061-.284,2.525-.4,4.173s-.17,3.112-.17,4.192a6.849,6.849,0,0,0,.107,1.736,9.87,9.87,0,0,0,.152-1.73c.082-1.206.177-2.614.278-4.173s.208-2.973.3-4.179A8.793,8.793,0,0,0,419.193,373.22Z" transform="translate(-406.408 -315.116)" fill="#263238"/>
      <g id="Group_11293" data-name="Group 11293" transform="translate(10.668 54.826)" opacity="0.3">
        <path id="Path_29213" data-name="Path 29213" d="M417.786,383.161s-3.788-9.065.972-15.006a.322.322,0,0,1,.568.114C419.749,369.772,420.551,374.431,417.786,383.161Z" transform="translate(-416.357 -368.028)"/>
      </g>
      <path id="Path_29214" data-name="Path 29214" d="M436.592,417.832s-3.018-9.343,2.184-14.879a.328.328,0,0,1,.556.158C439.628,404.657,440.026,409.366,436.592,417.832Z" transform="translate(-412.829 -326.042)" fill="#ff725e"/>
      <path id="Path_29215" data-name="Path 29215" d="M438.684,408a7.816,7.816,0,0,0-.436,1.686c-.221,1.048-.486,2.525-.739,4.122s-.423,3.093-.511,4.167a7.082,7.082,0,0,0,0,1.742,10.189,10.189,0,0,0,.29-1.711c.177-1.193.385-2.595.631-4.141s.448-2.942.631-4.135A8.488,8.488,0,0,0,438.684,408Z" transform="translate(-413.28 -327.94)" fill="#263238"/>
      <g id="Group_11294" data-name="Group 11294" transform="translate(22.892 76.811)" opacity="0.3">
        <path id="Path_29216" data-name="Path 29216" d="M436.592,417.832s-3.018-9.343,2.184-14.879a.328.328,0,0,1,.556.158C439.628,404.657,440.026,409.366,436.592,417.832Z" transform="translate(-435.721 -402.853)"/>
      </g>
      <path id="Path_29217" data-name="Path 29217" d="M406.744,366.558s-8.043-5.631-7.228-13.181a.322.322,0,0,1,.537-.215C401.24,354.216,404.4,357.732,406.744,366.558Z" transform="translate(-399.458 -307.69)" fill="#ff725e"/>
      <g id="Group_11295" data-name="Group 11295" transform="translate(0 45.389)" opacity="0.3">
        <path id="Path_29218" data-name="Path 29218" d="M406.744,366.558s-8.043-5.631-7.228-13.181a.322.322,0,0,1,.537-.215C401.24,354.216,404.4,357.732,406.744,366.558Z" transform="translate(-399.458 -353.079)"/>
      </g>
      <path id="Path_29219" data-name="Path 29219" d="M401.88,358a7.846,7.846,0,0,0,.669,1.6c.455.972,1.124,2.3,1.894,3.737s1.528,2.727,2.1,3.63a7.448,7.448,0,0,0,1.023,1.414,9.219,9.219,0,0,0-.8-1.547c-.581-1.054-1.263-2.3-2.008-3.668l-1.995-3.68a8.607,8.607,0,0,0-.89-1.49Z" transform="translate(-400.351 -309.504)" fill="#263238"/>
      <path id="Path_29220" data-name="Path 29220" d="M424.808,406.6s-9.7-1.515-12.291-8.649a.322.322,0,0,1,.385-.429C414.392,397.952,418.773,399.714,424.808,406.6Z" transform="translate(-404.265 -324.073)" fill="#ff725e"/>
      <g id="Group_11296" data-name="Group 11296" transform="translate(8.229 73.439)" opacity="0.3">
        <path id="Path_29221" data-name="Path 29221" d="M424.808,406.6s-9.7-1.515-12.291-8.649a.322.322,0,0,1,.385-.429C414.392,397.952,418.773,399.714,424.808,406.6Z" transform="translate(-412.494 -397.511)"/>
      </g>
      <path id="Path_29222" data-name="Path 29222" d="M416.52,401.2a7.569,7.569,0,0,0,1.307,1.149c.84.669,2.02,1.566,3.352,2.525s2.576,1.774,3.491,2.329a7.271,7.271,0,0,0,1.54.821,9.086,9.086,0,0,0-1.4-1.035l-3.415-2.412-3.409-2.43A8.893,8.893,0,0,0,416.52,401.2Z" transform="translate(-405.749 -325.433)" fill="#263238"/>
      <path id="Path_29223" data-name="Path 29223" d="M439.842,440.18l-2.784,18.244-11.1-.019L422.21,440.18Z" transform="translate(-407.847 -339.805)" fill="#455a64"/>
      <path id="Path_29224" data-name="Path 29224" d="M430.633,447.541a3.1,3.1,0,0,0,.511-1.528,1.648,1.648,0,0,0-.751-1.566,1.793,1.793,0,0,0-1.862.152,2.715,2.715,0,0,0-1.061,1.673,7.044,7.044,0,0,0-.139,2.064,6.673,6.673,0,0,0,.448,2.1,4.64,4.64,0,0,0,1.263,1.837,3.592,3.592,0,0,0,2.14.9,3.933,3.933,0,0,0,2.222-.631,6.761,6.761,0,0,0,1.66-1.5,3.655,3.655,0,0,0,.84-2,2.342,2.342,0,0,0-.789-1.938,1.818,1.818,0,0,0-1.97-.12,2.134,2.134,0,0,0-1.136,1.49,2.847,2.847,0,0,0,1.408,2.885,3.908,3.908,0,0,0,2.683.391,6.061,6.061,0,0,0,1.894-.751,10.55,10.55,0,0,0,1.073-.72,1.806,1.806,0,0,0,.341-.3,4.268,4.268,0,0,0-.379.246c-.246.158-.631.4-1.092.669a6.194,6.194,0,0,1-1.894.682,3.788,3.788,0,0,1-2.525-.4,2.639,2.639,0,0,1-1.263-2.651,1.894,1.894,0,0,1,1.01-1.3,1.547,1.547,0,0,1,1.673.1,2.058,2.058,0,0,1,.676,1.7,3.371,3.371,0,0,1-.789,1.837,6.566,6.566,0,0,1-1.578,1.427,3.656,3.656,0,0,1-2.052.6,3.346,3.346,0,0,1-1.957-.821,4.419,4.419,0,0,1-1.206-1.717,6.432,6.432,0,0,1-.436-2.014,6.8,6.8,0,0,1,.12-1.976,2.443,2.443,0,0,1,.941-1.521,1.547,1.547,0,0,1,1.585-.158,1.427,1.427,0,0,1,.631,1.345,2.848,2.848,0,0,1-.461,1.414,4.1,4.1,0,0,1-2.071,1.553,4.538,4.538,0,0,1-1.97.234,5.088,5.088,0,0,1-1.641-.486l.088.069a3.25,3.25,0,0,0,.3.164,3.908,3.908,0,0,0,1.263.372,4.519,4.519,0,0,0,2.045-.2,4.274,4.274,0,0,0,2.2-1.591" transform="translate(-408.776 -341.308)" fill="#263238"/>
    </g>
  </g>
</svg>
