<svg xmlns="http://www.w3.org/2000/svg" width="294" height="262.101" viewBox="0 0 294 262.101">
  <g id="Mobile_login-amico" data-name="Mobile login-amico" transform="translate(-73.551 -97.073)">
    <g id="freepik--Floor--inject-37" transform="translate(73.551 219.052)">
      <path id="Path_28876" data-name="Path 28876" d="M116.6,365.28c57.409,27.359,150.483,27.367,207.893,0s57.4-71.722,0-99.081-150.483-27.359-207.893,0S59.2,337.921,116.6,365.28Z" transform="translate(-73.551 -245.68)" fill="#283891" opacity="0.25"/>
    </g>
    <g id="freepik--Shadow--inject-37" transform="translate(274.459 311.102)">
      <ellipse id="Ellipse_2773" data-name="Ellipse 2773" cx="19.145" cy="9.122" rx="19.145" ry="9.122" fill="#f771c7"/>
    </g>
    <g id="freepik--Device--inject-37" transform="translate(152.353 97.073)">
      <path id="Path_28920" data-name="Path 28920" d="M215.727,347.754l78.312-45.221a.883.883,0,0,0,0-1.666L286.8,296.7a3.216,3.216,0,0,0-2.891,0L205.572,341.88a.883.883,0,0,0,0,1.666l7.265,4.165A3.216,3.216,0,0,0,215.727,347.754Z" transform="translate(-204.982 -121.245)" fill="#e0e0e0"/>
      <path id="Path_28921" data-name="Path 28921" d="M294.431,94.1l-70.614,40.772a7.981,7.981,0,0,0-3.607,6.248V308.634c0,2.3,1.616,3.232,3.607,2.083l70.614-40.772a7.956,7.956,0,0,0,3.607-6.248V96.184C298.038,93.885,296.431,92.952,294.431,94.1Z" transform="translate(-207.523 -87.407)" fill="#455a64"/>
      <path id="Path_28922" data-name="Path 28922" d="M221.995,133.631l70.614-40.772c1.783-1.033,3.257-.392,3.557,1.4a8.065,8.065,0,0,0-3.557-5.565l-2.932-1.666a7.973,7.973,0,0,0-7.215,0l-70.622,40.739a7.423,7.423,0,0,0-2.549,2.691l10.156,5.832A7.29,7.29,0,0,1,221.995,133.631Z" transform="translate(-205.701 -86.164)" fill="#37474f"/>
      <path id="Path_28923" data-name="Path 28923" d="M208,310.406a7.981,7.981,0,0,0,3.607,6.248l2.941,1.666a8.081,8.081,0,0,0,6.6.283c-1.666.65-2.991-.308-2.991-2.366V148.759a7.331,7.331,0,0,1,1.058-3.557l-10.156-5.832A7.423,7.423,0,0,0,208,142.894Z" transform="translate(-205.485 -95.044)" fill="#263238"/>
      <path id="Path_28924" data-name="Path 28924" d="M226.441,162.153,293.2,123.622c1.2-.683,2.166-.125,2.166,1.25V248.854A4.773,4.773,0,0,1,293.2,252.6l-66.732,38.531c-1.2.691-2.166.133-2.166-1.25V165.9a4.782,4.782,0,0,1,2.141-3.749Z" transform="translate(-208.206 -92.367)" fill="#fff"/>
      <path id="Path_28925" data-name="Path 28925" d="M266.666,126.256a2.816,2.816,0,0,0-1.266,2.2c0,.833.567,1.141,1.266.733a2.791,2.791,0,0,0,1.266-2.2C267.933,126.181,267.366,125.856,266.666,126.256Z" transform="translate(-215.065 -92.827)" fill="#37474f"/>
      <path id="Path_28926" data-name="Path 28926" d="M265.919,308.6a11.08,11.08,0,0,0-5,8.681c0,3.191,2.241,4.49,5,2.891a11.089,11.089,0,0,0,5-8.681C270.934,308.3,268.685,307,265.919,308.6Z" transform="translate(-214.318 -123.174)" fill="#37474f"/>
      <path id="Path_28927" data-name="Path 28927" d="M252.029,141.7a5.607,5.607,0,0,0-2.5,4.4c0,1.616,1.133,2.274,2.5,1.466a5.607,5.607,0,0,0,2.541-4.4C254.57,141.551,253.437,140.893,252.029,141.7Z" transform="translate(-212.417 -95.376)" fill="#37474f"/>
      <path id="Path_28928" data-name="Path 28928" d="M260,138.528c0,1.083.833,1.491,1.808.916l16.662-9.639a3.865,3.865,0,0,0,1.808-3c0-1.075-.833-1.483-1.808-.908l-16.662,9.639A3.866,3.866,0,0,0,260,138.528Z" transform="translate(-214.164 -92.752)" fill="#37474f"/>
      <path id="Path_28929" data-name="Path 28929" d="M214.354,176.315a4.491,4.491,0,0,1,2.033,3.516c0,1.3-.908,1.825-2.033,1.175a4.5,4.5,0,0,1-2.024-3.516C212.33,176.2,213.238,175.674,214.354,176.315Z" transform="translate(-206.208 -101.165)" fill="#37474f"/>
      <path id="Path_28930" data-name="Path 28930" d="M214.354,195.094a4.491,4.491,0,0,1,2.033,3.516c0,1.291-.908,1.816-2.033,1.175a4.5,4.5,0,0,1-2.024-3.516C212.33,194.969,213.238,194.444,214.354,195.094Z" transform="translate(-206.208 -104.298)" fill="#37474f"/>
      <path id="Path_28931" data-name="Path 28931" d="M213.593,176.7a4.49,4.49,0,0,1,2.033,3.516c0,1.291-.908,1.816-2.033,1.175a4.49,4.49,0,0,1-2.033-3.516C211.568,176.571,212.476,176.072,213.593,176.7Z" transform="translate(-206.079 -101.229)" fill="#455a64"/>
      <path id="Path_28932" data-name="Path 28932" d="M213.593,195.465a4.49,4.49,0,0,1,2.033,3.524c0,1.291-.908,1.816-2.033,1.166a4.465,4.465,0,0,1-2.033-3.516C211.568,195.349,212.476,194.824,213.593,195.465Z" transform="translate(-206.079 -104.361)" fill="#455a64"/>
      <path id="Path_28933" data-name="Path 28933" d="M311.584,129.58c0-1.383-.966-1.941-2.166-1.25l-7.989,4.607-58.742,33.924a4.774,4.774,0,0,0-2.166,3.749V294.56c0,1.383.966,1.941,2.166,1.25l58.767-33.932,7.964-4.6a4.774,4.774,0,0,0,2.166-3.749Z" transform="translate(-210.913 -93.152)" fill="#fff"/>
      <path id="Path_28934" data-name="Path 28934" d="M312.248,129.408a2.141,2.141,0,0,0-3.416-1.974l-7.623,4.407h0L242.1,166a5.548,5.548,0,0,0-2.583,4.474V294.387a2.308,2.308,0,0,0,1.05,2.124,1.908,1.908,0,0,0,.983.258,2.85,2.85,0,0,0,1.383-.408l59.15-34.157h0l7.606-4.39a5.623,5.623,0,0,0,2.583-4.474ZM301.226,260.78h0l-.683.4h0L242.134,294.9a.833.833,0,0,1-.7.15c-.108-.067-.217-.3-.217-.683V170.438a4.007,4.007,0,0,1,1.75-3.032l58.351-33.741h0l8.331-4.824a.833.833,0,0,1,.7-.15c.108.067.217.3.217.683V253.357a4.007,4.007,0,0,1-1.75,3.033l-7.606,4.39Z" transform="translate(-210.744 -92.98)" fill="#ba68c8"/>
      <path id="Path_28935" data-name="Path 28935" d="M280.458,164.089c7.5-4.315,13.538-.833,13.538,7.823s-6.065,19.161-13.538,23.444-13.538.833-13.538-7.815S272.985,168.413,280.458,164.089Z" transform="translate(-215.319 -98.861)" fill="#283891"/>
      <path id="Path_28936" data-name="Path 28936" d="M282.29,172.5c2.424-1.4,4.39-.267,4.39,2.5a9.706,9.706,0,0,1-4.39,7.606c-2.424,1.4-4.39.267-4.39-2.5A9.706,9.706,0,0,1,282.29,172.5Z" transform="translate(-217.151 -100.473)" fill="#ba68c8"/>
      <path id="Path_28937" data-name="Path 28937" d="M290.049,189.508c0-4.6-3.224-6.465-7.215-4.166l-2.5,1.441a15.956,15.956,0,0,0-7.215,12.5v1.241c2.308.758,5.207.35,8.331-1.475a26.659,26.659,0,0,0,8.556-8.473Z" transform="translate(-216.354 -102.553)" fill="#ba68c8"/>
      <path id="Path_28938" data-name="Path 28938" d="M282.29,172.5c2.424-1.4,4.39-.267,4.39,2.5a9.706,9.706,0,0,1-4.39,7.606c-2.424,1.4-4.39.267-4.39-2.5A9.706,9.706,0,0,1,282.29,172.5Z" transform="translate(-217.151 -100.473)" fill="#fff" opacity="0.7"/>
      <path id="Path_28939" data-name="Path 28939" d="M290.049,189.508c0-4.6-3.224-6.465-7.215-4.166l-2.5,1.441a15.956,15.956,0,0,0-7.215,12.5v1.241c2.308.758,5.207.35,8.331-1.475a26.659,26.659,0,0,0,8.556-8.473Z" transform="translate(-216.354 -102.553)" fill="#fff" opacity="0.7"/>
      <path id="Path_28940" data-name="Path 28940" d="M251.441,222.786l17.42-10.056c.833-.458,1.441-.092,1.441.833v.575a3.182,3.182,0,0,1-1.441,2.5l-17.42,10.056c-.791.458-1.441.083-1.441-.833v-.575A3.191,3.191,0,0,1,251.441,222.786Z" transform="translate(-212.495 -107.255)" fill="#ba68c8"/>
      <path id="Path_28941" data-name="Path 28941" d="M251.441,222.786l17.42-10.056c.833-.458,1.441-.092,1.441.833v.575a3.182,3.182,0,0,1-1.441,2.5l-17.42,10.056c-.791.458-1.441.083-1.441-.833v-.575A3.191,3.191,0,0,1,251.441,222.786Z" transform="translate(-212.495 -107.255)" fill="#616a9f"/>
      <path id="Path_28942" data-name="Path 28942" d="M250.725,233.295l52.7-30.425c.392-.233.716-.05.716.417v6.148a1.616,1.616,0,0,1-.716,1.25l-52.7,30.425c-.4.233-.725.042-.725-.417v-6.148a1.6,1.6,0,0,1,.725-1.25Z" transform="translate(-212.495 -105.625)" fill="#ba68c8"/>
      <path id="Path_28943" data-name="Path 28943" d="M250.725,233.295l52.7-30.425c.392-.233.716-.05.716.417v6.148a1.616,1.616,0,0,1-.716,1.25l-52.7,30.425c-.4.233-.725.042-.725-.417v-6.148a1.6,1.6,0,0,1,.725-1.25Z" transform="translate(-212.495 -105.625)" fill="#283891"/>
      <path id="Path_28944" data-name="Path 28944" d="M251.441,255.616l17.42-10.056c.833-.458,1.441-.083,1.441.833v.575a3.174,3.174,0,0,1-1.441,2.5l-17.42,10.056c-.791.467-1.441.092-1.441-.833v-.575A3.207,3.207,0,0,1,251.441,255.616Z" transform="translate(-212.495 -112.735)" fill="#ba68c8"/>
      <path id="Path_28945" data-name="Path 28945" d="M251.441,255.616l17.42-10.056c.833-.458,1.441-.083,1.441.833v.575a3.174,3.174,0,0,1-1.441,2.5l-17.42,10.056c-.791.467-1.441.092-1.441-.833v-.575A3.207,3.207,0,0,1,251.441,255.616Z" transform="translate(-212.495 -112.735)" fill="#616a9f"/>
      <path id="Path_28946" data-name="Path 28946" d="M250.725,266.125l52.7-30.425c.392-.233.716-.042.716.417v6.148a1.616,1.616,0,0,1-.716,1.25l-52.7,30.425c-.4.233-.725.05-.725-.417v-6.148a1.6,1.6,0,0,1,.725-1.25Z" transform="translate(-212.495 -111.105)" fill="#ba68c8"/>
      <path id="Path_28947" data-name="Path 28947" d="M250.725,266.125l52.7-30.425c.392-.233.716-.042.716.417v6.148a1.616,1.616,0,0,1-.716,1.25l-52.7,30.425c-.4.233-.725.05-.725-.417v-6.148a1.6,1.6,0,0,1,.725-1.25Z" transform="translate(-212.495 -111.105)" fill="#283891"/>
      <path id="Path_28948" data-name="Path 28948" d="M275.811,273.985l20.828-12.005c.833-.467,1.45-.092,1.45.833v6.432a3.182,3.182,0,0,1-1.45,2.5l-20.828,12.013c-.833.458-1.441.083-1.441-.833v-6.44A3.216,3.216,0,0,1,275.811,273.985Z" transform="translate(-216.562 -115.474)" fill="#ba68c8"/>
      <path id="Path_28949" data-name="Path 28949" d="M275.811,273.985l20.828-12.005c.833-.467,1.45-.092,1.45.833v6.432a3.182,3.182,0,0,1-1.45,2.5l-20.828,12.013c-.833.458-1.441.083-1.441-.833v-6.44A3.216,3.216,0,0,1,275.811,273.985Z" transform="translate(-216.562 -115.474)" fill="#283891"/>
    </g>
    <g id="freepik--Character--inject-37" transform="translate(239.745 185.669)">
      <path id="Path_28950" data-name="Path 28950" d="M331.058,238.2s-10.23-14.113-10.83-15.829c-.475-1.266,0-3.149.15-4.024s.283-2.824.433-3.332c.25-.95-.975-.758-1.666.108s-.925,2.6-1.283,2.883-3.082-3.691-4.507-5.523-2.316-2.949-3.191-2.266c-.625.492-.158,1.558.875,3.124a28.126,28.126,0,0,1,1.666,2.624c.158.342-.691.367-1.15,1.075-.358.55,0,1.441-.5,1.866a1.575,1.575,0,0,0-.4,2.058,13.612,13.612,0,0,0,3.524,3.732,8.423,8.423,0,0,1,3.058,2.874c.908,1.441,9.056,16.162,9.606,17.045s1.608,2.683,3.216,2.733,14.771-11.28,15.446-11.847c2.166-1.808,2.858-2.066,3.224-.442a16.033,16.033,0,0,1,.283,1.75c.258,2.066,1.666,9.447,1.666,9.447s6.665,3.224,12.138,1.666,7.323-3.882,7.323-3.882l-2.741-4.465c.741-1.841,4.166-9.306,5.274-14.529l-17.162-2.774c-.35-.075-.916-.217-1.666-.408-.941-.25-3.332-1.075-5.14.508-5.9,5.14-17.628,15.829-17.628,15.829" transform="translate(-309.881 -195.43)" fill="#ffa8a7"/>
      <path id="Path_28951" data-name="Path 28951" d="M375.524,347.763l-3.074,4.274a10.214,10.214,0,0,0,4.465.958c2.758.1,3.516-.833,3.616-1.016.467-1-.258-2.8-.458-4.349Z" transform="translate(-320.324 -218.398)" fill="#37474f"/>
      <path id="Path_28952" data-name="Path 28952" d="M370.571,350.338s-3.732-.242-6.307-.558-4.615.933-4.016,1.991,2.024,1.941,4.241,2.683c1.891.641,4.165,1.1,6.132,1.666s3.332,1.308,4.474.908c1.275-.442,1.825-.95,1.716-1.883a40.427,40.427,0,0,0-1.033-3.932Z" transform="translate(-318.27 -218.748)" fill="#37474f"/>
      <path id="Path_28953" data-name="Path 28953" d="M381.124,342.548s-.467,3.882-.5,4.715-3.791,1.1-4.507-.425L376,342.09Z" transform="translate(-320.916 -217.473)" fill="#f28f8f"/>
      <path id="Path_28954" data-name="Path 28954" d="M375.446,345.5l1.341,5.9s.125.716-2.941,1.175-7.881-1.608-8.706-2.024-.916-1.258,2.1-1.091,4.082.175,4.082.175l-.983-2.608Z" transform="translate(-319.021 -218.042)" fill="#ffa8a7"/>
      <path id="Path_28955" data-name="Path 28955" d="M384.426,227.882l2.124-.592s4.44,14.054,4.932,15.412,1.05,2.791.092,4.465c-1.141,1.991-7.148,10-7.148,10l-3.816-3.732,4.332-7.931-3.832-7.748Z" transform="translate(-321.686 -198.313)" fill="#f28f8f"/>
      <path id="Path_28956" data-name="Path 28956" d="M358.853,203.823a6.265,6.265,0,0,1,.092-6.057c2.116-3.924,6.831-5.832,12.447-5.107,2.6.342,5.665,2.5,7.34,5.723,1.849,3.574,2.024,10.772,2.5,13.5Z" transform="translate(-317.932 -192.508)" fill="#37474f"/>
      <path id="Path_28957" data-name="Path 28957" d="M358.594,207.94s-1.333,2.541-1.1,2.774a3.49,3.49,0,0,0,1.116.417Z" transform="translate(-317.823 -195.084)" fill="#ffa8a7"/>
      <path id="Path_28958" data-name="Path 28958" d="M362.865,198.093c-1.45.941-3.949,2.674-4.057,8.381-.117,5.832.716,7.756,1.583,8.431.583.458,4.007.225,5.474-.117s5.69-2.433,7.215-5.607c1.791-3.732,1.425-9.164-1.233-10.83a9.281,9.281,0,0,0-8.981-.258Z" transform="translate(-318.045 -193.268)" fill="#ffa8a7"/>
      <path id="Path_28959" data-name="Path 28959" d="M380.481,250.82c2.566,4,5,7.5,5.532,12.013,1.1,9.489-2.5,20.336-3.274,27.359a12.655,12.655,0,0,1,2.416,6.848c0,2.908-4.674,30.275-4.674,30.275s-3.4,1.033-5.124-.458l-3.207-50.344,1.666-6.132Z" transform="translate(-320.274 -202.24)" fill="#ba68c8"/>
      <path id="Path_28960" data-name="Path 28960" d="M380.481,250.82c2.566,4,5,7.5,5.532,12.013,1.1,9.489-2.5,20.336-3.274,27.359a12.655,12.655,0,0,1,2.416,6.848c0,2.908-4.674,30.275-4.674,30.275s-3.4,1.033-5.124-.458l-3.207-50.344,1.666-6.132Z" transform="translate(-320.274 -202.24)" fill="#283891"/>
      <path id="Path_28961" data-name="Path 28961" d="M372.15,279.7l1.666-6.132a40.928,40.928,0,0,0,9.164-3.641s-1.733,3.157-6.715,4.89l-2.574,7.873-.217,18.037Z" transform="translate(-320.274 -205.43)" fill="#ba68c8"/>
      <path id="Path_28962" data-name="Path 28962" d="M372.15,279.7l1.666-6.132a40.928,40.928,0,0,0,9.164-3.641s-1.733,3.157-6.715,4.89l-2.574,7.873-.217,18.037Z" transform="translate(-320.274 -205.43)"/>
      <path id="Path_28963" data-name="Path 28963" d="M377.213,250.82c1.375,2.249,4.657,6.082,3.957,9.772-.833,4.465-3.249,7.606-10.6,9.789l-6.9,24.993s3.591,3.332,4.69,6.557,5.065,27.784,5.065,27.784-1.233,2.008-5.107,1.525c0,0-13.5-30.825-14.454-32.833a10,10,0,0,1-1.141-6.706c.425-3.232,5-38.614,5-38.614Z" transform="translate(-317.006 -202.24)" fill="#ba68c8"/>
      <path id="Path_28964" data-name="Path 28964" d="M377.213,250.82c1.375,2.249,4.657,6.082,3.957,9.772-.833,4.465-3.249,7.606-10.6,9.789l-6.9,24.993s3.591,3.332,4.69,6.557,5.065,27.784,5.065,27.784-1.233,2.008-5.107,1.525c0,0-13.5-30.825-14.454-32.833a10,10,0,0,1-1.141-6.706c.425-3.232,5-38.614,5-38.614Z" transform="translate(-317.006 -202.24)" fill="#283891"/>
      <path id="Path_28965" data-name="Path 28965" d="M380.388,227.362l-17.162-2.774c-.35-.075-.916-.217-1.666-.408h0s-.733,10.764-5.14,13.23h0c.108.517.2,1.091.283,1.75.258,2.066,1.666,9.447,1.666,9.447s6.665,3.224,12.138,1.666,7.323-3.882,7.323-3.882l-2.741-4.465C375.856,240.067,379.305,232.6,380.388,227.362Z" transform="translate(-317.649 -197.794)" fill="#ba68c8"/>
      <path id="Path_28966" data-name="Path 28966" d="M380.388,227.362l-17.162-2.774c-.35-.075-.916-.217-1.666-.408h0s-.733,10.764-5.14,13.23h0c.108.517.2,1.091.283,1.75.258,2.066,1.666,9.447,1.666,9.447s6.665,3.224,12.138,1.666,7.323-3.882,7.323-3.882l-2.741-4.465C375.856,240.067,379.305,232.6,380.388,227.362Z" transform="translate(-317.649 -197.794)" fill="#fff" opacity="0.7"/>
      <path id="Path_28967" data-name="Path 28967" d="M378.33,243.35a48.445,48.445,0,0,1-7.14,3.524,13.413,13.413,0,0,0,6.39-1.766Z" transform="translate(-320.114 -200.994)" fill="#ba68c8"/>
      <path id="Path_28968" data-name="Path 28968" d="M363.135,198.066s-.833,5.415,1.133,8.6c0,0,.733-2.158,2.558-1.75s1.924,2.816.641,4.166a2.657,2.657,0,0,1-2.7.833s-.292,3.916-.45,7.2-1.025,10.439,2.666,13.33,12.955,3.907,17.3-2.158c2.416-3.374-.791-9.339-2.283-16.029-1.375-6.148-2.149-15.262-8.673-16.729A10.815,10.815,0,0,0,363.135,198.066Z" transform="translate(-318.74 -192.958)" fill="#37474f"/>
    </g>
  </g>
</svg>
