<svg xmlns="http://www.w3.org/2000/svg" width="421.634" height="416" viewBox="0 0 421.634 416">
  <g id="history" transform="translate(-44.925 464)">
    <path id="Path_389" data-name="Path 389" d="M89.9-462.1l-2.4,1.9L87-299.3c-.6,177.1-.1,162.9-6.7,183.8C75-98.6,64.4-80.4,51.6-66.2c-7.5,8.3-8.4,11.5-4.1,15.7L49.9-48H254.1l2.4-2.5A7.8,7.8,0,0,0,259-56a7.8,7.8,0,0,0-2.5-5.5L254.1-64H71.1l5.5-8.1c11-16.2,18.8-34.5,23.6-55.4l2.2-10,.3-155.3.4-155.2H381l.2,77.9.3,77.9,2.4,2.6c3.2,3.4,7.9,3.5,10.9.3l2.2-2.3V-459.9l-2.6-2-2.7-2.1H242C96-464,92.2-464,89.9-462.1Z" fill="#283891"/>
    <path id="Path_390" data-name="Path 390" d="M145.2-361c-3,2.8-3,9-.1,11.6,2,1.8,5.3,1.9,95.8,2.2,65.5.2,94.4-.1,96.2-.9a7.514,7.514,0,0,0,2.4-12.4l-2.4-2.5H242.2C148.2-363,147.4-363,145.2-361Z" fill="#283891"/>
    <path id="Path_391" data-name="Path 391" d="M145.6-306.9c-2,1.6-2.6,2.9-2.6,5.9s.6,4.3,2.6,5.9c2.7,2.1,3.1,2.1,97.1,2.1h94.4l2.4-2.5a7.349,7.349,0,0,0,0-11l-2.4-2.5H242.7C148.7-309,148.3-309,145.6-306.9Z" fill="#283891"/>
    <path id="Path_392" data-name="Path 392" d="M145.7-253a7.946,7.946,0,0,0-.4,11.8l2.3,2.2H257.1l2.4-2.5a7.751,7.751,0,0,0,.6-10.6l-1.9-2.4-54.9-.3C148.8-255,148.3-255,145.7-253Z" fill="#283891"/>
    <path id="Path_393" data-name="Path 393" d="M349.5-253.9c-15.7,2.3-34.7,10-47,19.1a107.669,107.669,0,0,0-38.6,56.3,66.149,66.149,0,0,1-2.5,8.4c-.2.2-2.4-1.5-5-3.9-4-3.6-5-4.1-7.7-3.6a7.945,7.945,0,0,0-6.7,7.9c0,2.5,1.8,4.9,10.8,13.9,5.9,6.1,11.7,11.4,13,11.9,3.8,1.5,8-1.2,17.9-11.2,9.8-10,11.8-13.4,10.3-17.3-1.9-5.1-7.6-7-11.9-3.9-2.4,1.6-2.4,1.6-1.7-1.3,1.4-6.1,10.7-23.2,16.5-30,10.9-13.1,28.6-24,46.1-28.5,11.6-3,30-3,41.5,0,10.7,2.8,26.5,10.7,34.5,17.4A89.3,89.3,0,0,1,450-164c3.9,25.3-4.6,52.4-22.6,71.8C395-57.1,341.6-54.6,305.2-86.5c-3.5-3-7.2-5.5-8.2-5.5-6.2,0-10.2,5.7-7.9,11.1,2.4,5.8,21.2,19.2,34.8,24.8,14.2,5.9,23,7.5,40.1,7.5,13.4-.1,16.8-.5,25.5-2.7a104.306,104.306,0,0,0,74.2-74.6c3.6-13.2,3.8-36.2.6-49.1-9-35.8-34.6-63.5-69.5-75C381.8-254.3,363.4-255.9,349.5-253.9Z" fill="#283891"/>
    <path id="Path_394" data-name="Path 394" d="M360.3-220a7.494,7.494,0,0,0-3.2,2.9c-.7,1.3-1.1,13.7-1.1,35.7v33.8l15.3,15.4c8.3,8.5,16.5,16,18.1,16.7,6.2,2.7,12.8-3.3,10.4-9.5-.5-1.4-6.9-8.6-14.3-16l-13.4-13.5-.3-30.7c-.3-29.2-.4-30.8-2.3-32.7A8.916,8.916,0,0,0,360.3-220Z" fill="#283891"/>
    <path id="Path_395" data-name="Path 395" d="M147.3-200c-4.5,1.8-5.8,9.5-2.3,13,1.9,1.9,3.3,2,37.9,2,33.6,0,36-.1,38.2-1.9,3.1-2.5,3.2-8.3.1-11.4-2.2-2.2-2.5-2.2-37-2.4C165.1-200.8,148.5-200.5,147.3-200Z" fill="#283891"/>
  </g>
</svg>
