<svg xmlns="http://www.w3.org/2000/svg" width="25.086" height="23.687" viewBox="0 0 25.086 23.687">
  <g id="home" transform="translate(0.582 0.552)">
    <path id="Path" d="M23.621,9.492l-11-9.26a.978.978,0,0,0-1.266,0l-11,9.26A1.05,1.05,0,0,0,.226,10.93a.981.981,0,0,0,1.4.155l1.367-1.15V21.606a1.015,1.015,0,0,0,1,1.029h6V16.462h4v6.173h6a1.015,1.015,0,0,0,1-1.029V9.935l1.367,1.15a.978.978,0,0,0,.994.178,1.023,1.023,0,0,0,.639-.8,1.044,1.044,0,0,0-.367-.967Z" fill="none" stroke="#9d9ea3" stroke-width="1"/>
  </g>
</svg>
