<svg xmlns="http://www.w3.org/2000/svg" xmlns:xlink="http://www.w3.org/1999/xlink" width="511.662" height="381.25" viewBox="0 0 511.662 381.25">
  <defs>
    <clipPath id="clip-path">
      <path id="Path_29233" data-name="Path 29233" d="M298.45,348.92h-17.4c-9.057,0-16.373,13.129-16.373,29.328s7.337,29.318,16.373,29.318h17.4c9.056,0,16.373-13.129,16.373-29.318S307.506,348.92,298.45,348.92Z" transform="translate(-264.68 -348.92)" fill="#263238"/>
    </clipPath>
  </defs>
  <g id="Logistics-rafiki" transform="translate(0 -55)">
    <g id="freepik--background-complete--inject-50" transform="translate(0 55)">
      <rect id="Rectangle_17395" data-name="Rectangle 17395" width="511.663" height="0.256" transform="translate(0 335.037)" fill="#ebebeb"/>
      <rect id="Rectangle_17396" data-name="Rectangle 17396" width="23.721" height="0.256" transform="translate(153.54 341.565)" fill="#ebebeb"/>
      <rect id="Rectangle_17397" data-name="Rectangle 17397" width="57.992" height="0.256" transform="translate(411.479 347.05)" fill="#ebebeb"/>
      <rect id="Rectangle_17398" data-name="Rectangle 17398" width="57.992" height="0.256" transform="translate(43.716 347.05)" fill="#ebebeb"/>
      <path id="Path_29225" data-name="Path 29225" d="M241.637,344.4H44.043a5.843,5.843,0,0,1-5.833-5.843V60.792A5.843,5.843,0,0,1,44.043,55H241.637a5.843,5.843,0,0,1,5.843,5.843h0v277.71A5.843,5.843,0,0,1,241.637,344.4ZM44.043,55.2a5.587,5.587,0,0,0-5.577,5.587V338.553a5.587,5.587,0,0,0,5.577,5.587H241.637a5.608,5.608,0,0,0,5.587-5.587V60.792a5.608,5.608,0,0,0-5.587-5.587Z" transform="translate(0.891 -55)" fill="#ebebeb"/>
      <path id="Path_29226" data-name="Path 29226" d="M457.948,344.4h-197.6a5.864,5.864,0,0,1-5.843-5.843V60.792A5.853,5.853,0,0,1,260.343,55h197.6a5.843,5.843,0,0,1,5.823,5.792V338.553A5.833,5.833,0,0,1,457.948,344.4ZM260.343,55.2a5.608,5.608,0,0,0-5.587,5.587V338.553a5.608,5.608,0,0,0,5.587,5.587h197.6a5.608,5.608,0,0,0,5.587-5.587V60.792a5.608,5.608,0,0,0-5.587-5.587Z" transform="translate(5.936 -55)" fill="#ebebeb"/>
      <path id="Path_29227" data-name="Path 29227" d="M98.847,130.41H184.09a6.519,6.519,0,0,1,6.529,6.529v251.1H92.38V136.929a6.529,6.529,0,0,1,6.467-6.518Z" transform="translate(2.155 -53.241)" fill="#f5f5f5"/>
      <rect id="Rectangle_17399" data-name="Rectangle 17399" width="12.669" height="28.203" transform="translate(102.64 92.386)" fill="#ebebeb"/>
      <rect id="Rectangle_17400" data-name="Rectangle 17400" width="12.669" height="28.203" transform="translate(171.919 92.386)" fill="#ebebeb"/>
      <rect id="Rectangle_17401" data-name="Rectangle 17401" width="12.669" height="28.203" transform="translate(125.726 92.386)" fill="#ebebeb"/>
      <rect id="Rectangle_17402" data-name="Rectangle 17402" width="12.669" height="28.203" transform="translate(148.822 92.386)" fill="#ebebeb"/>
      <rect id="Rectangle_17403" data-name="Rectangle 17403" width="12.669" height="28.203" transform="translate(102.64 136.911)" fill="#ebebeb"/>
      <rect id="Rectangle_17404" data-name="Rectangle 17404" width="12.669" height="28.203" transform="translate(171.919 136.911)" fill="#ebebeb"/>
      <rect id="Rectangle_17405" data-name="Rectangle 17405" width="12.669" height="28.203" transform="translate(125.726 136.911)" fill="#ebebeb"/>
      <rect id="Rectangle_17406" data-name="Rectangle 17406" width="12.669" height="28.203" transform="translate(148.822 136.911)" fill="#ebebeb"/>
      <rect id="Rectangle_17407" data-name="Rectangle 17407" width="12.669" height="28.203" transform="translate(102.64 181.425)" fill="#ebebeb"/>
      <rect id="Rectangle_17408" data-name="Rectangle 17408" width="12.669" height="28.203" transform="translate(171.919 181.425)" fill="#ebebeb"/>
      <rect id="Rectangle_17409" data-name="Rectangle 17409" width="12.669" height="28.203" transform="translate(125.726 181.425)" fill="#ebebeb"/>
      <rect id="Rectangle_17410" data-name="Rectangle 17410" width="12.669" height="28.203" transform="translate(148.822 181.425)" fill="#ebebeb"/>
      <rect id="Rectangle_17411" data-name="Rectangle 17411" width="12.669" height="28.203" transform="translate(102.64 225.95)" fill="#ebebeb"/>
      <rect id="Rectangle_17412" data-name="Rectangle 17412" width="12.669" height="28.203" transform="translate(171.919 225.95)" fill="#ebebeb"/>
      <rect id="Rectangle_17413" data-name="Rectangle 17413" width="12.669" height="28.203" transform="translate(125.726 225.95)" fill="#ebebeb"/>
      <rect id="Rectangle_17414" data-name="Rectangle 17414" width="12.669" height="28.203" transform="translate(148.822 225.95)" fill="#ebebeb"/>
      <rect id="Rectangle_17415" data-name="Rectangle 17415" width="12.669" height="28.203" transform="translate(102.64 270.465)" fill="#ebebeb"/>
      <rect id="Rectangle_17416" data-name="Rectangle 17416" width="12.669" height="28.203" transform="translate(171.919 270.465)" fill="#ebebeb"/>
      <rect id="Rectangle_17417" data-name="Rectangle 17417" width="12.669" height="28.203" transform="translate(125.726 270.465)" fill="#ebebeb"/>
      <rect id="Rectangle_17418" data-name="Rectangle 17418" width="12.669" height="28.203" transform="translate(148.822 270.465)" fill="#ebebeb"/>
      <path id="Path_29228" data-name="Path 29228" d="M394.061,153.28h61.031a5.321,5.321,0,0,1,5.311,5.311V387.509H388.77V158.6A5.321,5.321,0,0,1,394.061,153.28Z" transform="translate(9.068 -52.708)" fill="#f5f5f5"/>
      <rect id="Rectangle_17419" data-name="Rectangle 17419" width="11.512" height="25.634" transform="translate(406.946 114.418)" fill="#ebebeb"/>
      <rect id="Rectangle_17420" data-name="Rectangle 17420" width="11.512" height="25.634" transform="translate(427.944 114.418)" fill="#ebebeb"/>
      <rect id="Rectangle_17421" data-name="Rectangle 17421" width="11.512" height="25.634" transform="translate(448.933 114.418)" fill="#ebebeb"/>
      <rect id="Rectangle_17422" data-name="Rectangle 17422" width="11.512" height="25.634" transform="translate(406.946 154.891)" fill="#ebebeb"/>
      <rect id="Rectangle_17423" data-name="Rectangle 17423" width="11.512" height="25.634" transform="translate(427.944 154.891)" fill="#ebebeb"/>
      <rect id="Rectangle_17424" data-name="Rectangle 17424" width="11.512" height="25.634" transform="translate(448.933 154.891)" fill="#ebebeb"/>
      <rect id="Rectangle_17425" data-name="Rectangle 17425" width="11.512" height="25.634" transform="translate(406.946 195.373)" fill="#ebebeb"/>
      <rect id="Rectangle_17426" data-name="Rectangle 17426" width="11.512" height="25.634" transform="translate(427.944 195.373)" fill="#ebebeb"/>
      <rect id="Rectangle_17427" data-name="Rectangle 17427" width="11.512" height="25.634" transform="translate(448.933 195.373)" fill="#ebebeb"/>
      <rect id="Rectangle_17428" data-name="Rectangle 17428" width="11.512" height="25.634" transform="translate(406.946 235.836)" fill="#ebebeb"/>
      <rect id="Rectangle_17429" data-name="Rectangle 17429" width="11.512" height="25.634" transform="translate(427.944 235.836)" fill="#ebebeb"/>
      <rect id="Rectangle_17430" data-name="Rectangle 17430" width="11.512" height="25.634" transform="translate(448.933 235.836)" fill="#ebebeb"/>
      <rect id="Rectangle_17431" data-name="Rectangle 17431" width="11.512" height="25.634" transform="translate(406.946 276.318)" fill="#ebebeb"/>
      <rect id="Rectangle_17432" data-name="Rectangle 17432" width="11.512" height="25.634" transform="translate(427.944 276.318)" fill="#ebebeb"/>
      <rect id="Rectangle_17433" data-name="Rectangle 17433" width="11.512" height="25.634" transform="translate(448.933 276.318)" fill="#ebebeb"/>
      <rect id="Rectangle_17442" data-name="Rectangle 17442" width="14.736" height="32.808" transform="translate(265.215 156.374)" fill="#ebebeb"/>
      <rect id="Rectangle_17443" data-name="Rectangle 17443" width="14.736" height="32.808" transform="translate(345.812 156.374)" fill="#ebebeb"/>
      <rect id="Rectangle_17444" data-name="Rectangle 17444" width="14.736" height="32.808" transform="translate(292.077 156.374)" fill="#ebebeb"/>
      <rect id="Rectangle_17445" data-name="Rectangle 17445" width="14.736" height="32.808" transform="translate(318.95 156.374)" fill="#ebebeb"/>
      <rect id="Rectangle_17446" data-name="Rectangle 17446" width="14.736" height="32.808" transform="translate(265.215 208.165)" fill="#ebebeb"/>
      <rect id="Rectangle_17447" data-name="Rectangle 17447" width="14.736" height="32.808" transform="translate(345.812 208.165)" fill="#ebebeb"/>
      <rect id="Rectangle_17448" data-name="Rectangle 17448" width="14.736" height="32.808" transform="translate(292.077 208.165)" fill="#ebebeb"/>
      <rect id="Rectangle_17449" data-name="Rectangle 17449" width="14.736" height="32.808" transform="translate(318.95 208.165)" fill="#ebebeb"/>
      <rect id="Rectangle_17450" data-name="Rectangle 17450" width="14.736" height="32.808" transform="translate(265.215 259.955)" fill="#ebebeb"/>
      <rect id="Rectangle_17451" data-name="Rectangle 17451" width="14.736" height="32.808" transform="translate(345.812 259.955)" fill="#ebebeb"/>
      <rect id="Rectangle_17452" data-name="Rectangle 17452" width="14.736" height="32.808" transform="translate(292.077 259.955)" fill="#ebebeb"/>
      <rect id="Rectangle_17453" data-name="Rectangle 17453" width="14.736" height="32.808" transform="translate(318.95 259.955)" fill="#ebebeb"/>
      <rect id="Rectangle_17454" data-name="Rectangle 17454" width="62.975" height="192.395" transform="translate(192.743 142.416)" fill="#e6e6e6"/>
      <rect id="Rectangle_17455" data-name="Rectangle 17455" width="27.824" height="171.786" transform="translate(370.055 163.016)" fill="#e6e6e6"/>
      <path id="Path_29230" data-name="Path 29230" d="M93.576,384.426H38.46V304.1L93.576,285.46Z" transform="translate(0.897 -49.625)" fill="#e6e6e6"/>
    </g>
    <g id="freepik--Shadow--inject-50" transform="translate(57.419 403.729)">
      <g id="freepik--Shadow--inject-62--inject-50">
        <ellipse id="freepik--path--inject-62--inject-50" cx="198.413" cy="16.261" rx="198.413" ry="16.261" fill="#f5f5f5"/>
      </g>
    </g>
    <g id="freepik--Truck--inject-50" transform="translate(34.312 167.259)">
      <path id="Path_29231" data-name="Path 29231" d="M298.45,348.92h-17.4c-9.057,0-16.373,13.129-16.373,29.328s7.337,29.318,16.373,29.318h17.4c9.056,0,16.373-13.129,16.373-29.318S307.506,348.92,298.45,348.92Z" transform="translate(-28.139 -160.403)" fill="#263238"/>
      <g id="Group_11298" data-name="Group 11298" transform="translate(236.542 188.517)" clip-path="url(#clip-path)">
        <path id="Path_29232" data-name="Path 29232" d="M318.45,348.92h-17.4c-9.057,0-16.373,13.129-16.373,29.328s7.337,29.318,16.373,29.318h17.4c9.056,0,16.373-13.129,16.373-29.318S327.506,348.92,318.45,348.92Z" transform="translate(-264.213 -348.92)" fill="#fff" opacity="0.05"/>
      </g>
      <path id="Path_29234" data-name="Path 29234" d="M442.334,359.5,137.7,359.285V164.7H442.334Z" transform="translate(-31.1 -164.7)" fill="#407bff"/>
      <rect id="Rectangle_17456" data-name="Rectangle 17456" width="206.466" height="194.79" transform="translate(204.767)" fill="#263238" opacity="0.3"/>
      <rect id="Rectangle_17457" data-name="Rectangle 17457" width="98.168" height="198.638" transform="translate(106.6)" fill="#fff" opacity="0.2"/>
      <line id="Line_80" data-name="Line 80" x2="303.897" transform="translate(107.337 9.046)" fill="none" stroke="#fff" stroke-linecap="round" stroke-linejoin="round" stroke-width="2" opacity="0.1"/>
      <line id="Line_81" data-name="Line 81" x2="303.897" transform="translate(107.337 17.468)" fill="none" stroke="#fff" stroke-linecap="round" stroke-linejoin="round" stroke-width="2" opacity="0.1"/>
      <line id="Line_82" data-name="Line 82" x2="303.897" transform="translate(107.337 25.88)" fill="none" stroke="#fff" stroke-linecap="round" stroke-linejoin="round" stroke-width="2" opacity="0.1"/>
      <line id="Line_83" data-name="Line 83" x2="303.897" transform="translate(107.337 34.292)" fill="none" stroke="#fff" stroke-linecap="round" stroke-linejoin="round" stroke-width="2" opacity="0.1"/>
      <line id="Line_84" data-name="Line 84" x2="303.897" transform="translate(107.337 42.714)" fill="none" stroke="#fff" stroke-linecap="round" stroke-linejoin="round" stroke-width="2" opacity="0.1"/>
      <line id="Line_85" data-name="Line 85" x2="303.897" transform="translate(107.337 51.125)" fill="none" stroke="#fff" stroke-linecap="round" stroke-linejoin="round" stroke-width="2" opacity="0.1"/>
      <line id="Line_86" data-name="Line 86" x2="303.897" transform="translate(107.337 59.537)" fill="none" stroke="#fff" stroke-linecap="round" stroke-linejoin="round" stroke-width="2" opacity="0.1"/>
      <line id="Line_87" data-name="Line 87" x2="303.897" transform="translate(107.337 67.949)" fill="none" stroke="#fff" stroke-linecap="round" stroke-linejoin="round" stroke-width="2" opacity="0.1"/>
      <line id="Line_88" data-name="Line 88" x2="303.897" transform="translate(107.337 76.371)" fill="none" stroke="#fff" stroke-linecap="round" stroke-linejoin="round" stroke-width="2" opacity="0.1"/>
      <line id="Line_89" data-name="Line 89" x2="303.897" transform="translate(107.337 84.782)" fill="none" stroke="#fff" stroke-linecap="round" stroke-linejoin="round" stroke-width="2" opacity="0.1"/>
      <line id="Line_90" data-name="Line 90" x2="303.897" transform="translate(107.337 93.194)" fill="none" stroke="#fff" stroke-linecap="round" stroke-linejoin="round" stroke-width="2" opacity="0.1"/>
      <line id="Line_91" data-name="Line 91" x2="303.897" transform="translate(107.337 101.616)" fill="none" stroke="#fff" stroke-linecap="round" stroke-linejoin="round" stroke-width="2" opacity="0.1"/>
      <line id="Line_92" data-name="Line 92" x2="303.897" transform="translate(107.337 110.028)" fill="none" stroke="#fff" stroke-linecap="round" stroke-linejoin="round" stroke-width="2" opacity="0.1"/>
      <line id="Line_93" data-name="Line 93" x2="303.897" transform="translate(107.337 118.44)" fill="none" stroke="#fff" stroke-linecap="round" stroke-linejoin="round" stroke-width="2" opacity="0.1"/>
      <line id="Line_94" data-name="Line 94" x2="303.897" transform="translate(107.337 126.851)" fill="none" stroke="#fff" stroke-linecap="round" stroke-linejoin="round" stroke-width="2" opacity="0.1"/>
      <line id="Line_95" data-name="Line 95" x2="303.897" transform="translate(107.337 135.273)" fill="none" stroke="#fff" stroke-linecap="round" stroke-linejoin="round" stroke-width="2" opacity="0.1"/>
      <line id="Line_96" data-name="Line 96" x2="303.897" transform="translate(107.337 143.685)" fill="none" stroke="#fff" stroke-linecap="round" stroke-linejoin="round" stroke-width="2" opacity="0.1"/>
      <line id="Line_97" data-name="Line 97" x2="303.897" transform="translate(107.337 152.097)" fill="none" stroke="#fff" stroke-linecap="round" stroke-linejoin="round" stroke-width="2" opacity="0.1"/>
      <line id="Line_98" data-name="Line 98" x2="303.897" transform="translate(107.337 160.519)" fill="none" stroke="#fff" stroke-linecap="round" stroke-linejoin="round" stroke-width="2" opacity="0.1"/>
      <line id="Line_99" data-name="Line 99" x2="303.897" transform="translate(107.337 168.931)" fill="none" stroke="#fff" stroke-linecap="round" stroke-linejoin="round" stroke-width="2" opacity="0.1"/>
      <line id="Line_100" data-name="Line 100" x2="303.897" transform="translate(107.337 177.342)" fill="none" stroke="#fff" stroke-linecap="round" stroke-linejoin="round" stroke-width="2" opacity="0.1"/>
      <line id="Line_101" data-name="Line 101" x2="303.897" transform="translate(107.337 185.764)" fill="none" stroke="#fff" stroke-linecap="round" stroke-linejoin="round" stroke-width="2" opacity="0.1"/>
      <path id="Path_29235" data-name="Path 29235" d="M83.783,352.66h-16.1c-8.391,0-15.186,12.157-15.186,27.159s6.795,27.149,15.186,27.149h16.1c8.391,0,15.186-12.157,15.186-27.149S92.174,352.66,83.783,352.66Z" transform="translate(-33.088 -160.316)" fill="#263238"/>
      <path id="Path_29236" data-name="Path 29236" d="M103.793,352.66H87.686c-8.391,0-15.186,12.157-15.186,27.159s6.795,27.149,15.186,27.149h16.107c8.381,0,15.186-12.157,15.186-27.149S112.174,352.66,103.793,352.66Z" transform="translate(-32.621 -160.316)" fill="#fff" opacity="0.05"/>
      <path id="Path_29237" data-name="Path 29237" d="M74.557,301.546H66.943c-1.494.051-2.722-1.545-2.753-3.571a3.291,3.291,0,0,1,0-.634l2.047-22.994c.256-2.364,1.719-4.093,3.479-4.206H77.4c1.484,0,2.712,1.566,2.742,3.592v.614L78.1,297.34C77.79,299.673,76.276,301.484,74.557,301.546Z" transform="translate(-32.815 -162.241)" fill="#263238"/>
      <path id="Path_29238" data-name="Path 29238" d="M82.095,226.958l-14.685,79.2,159.874,62.628L226.169,212.7l-35.161-1.023H94.692C88.9,211.629,83.793,217.851,82.095,226.958Z" transform="translate(-32.74 -163.604)" fill="#407bff"/>
      <path id="Path_29239" data-name="Path 29239" d="M199.133,239.06c-5.966-.266-11.318,4.625-13.068,11.922l-12.1,50.675H150.689l-1.269,66.854H226" transform="translate(-30.827 -162.966)" fill="#407bff"/>
      <path id="Path_29240" data-name="Path 29240" d="M84.1,297.475c-2.343,0-4.237-3.009-4.237-6.713a9.966,9.966,0,0,1,.184-1.924l8.79-46.5c.737-3.858,2.988-6.5,5.536-6.488h84.1c.911,0,1.658,1.167,1.658,2.62a3.824,3.824,0,0,1-.072.767c-1.842,9.578-7.828,41.312-10.121,53.448-.532,2.845-2.19,4.789-4.093,4.789Z" transform="translate(-32.449 -163.04)" fill="#263238"/>
      <path id="Path_29241" data-name="Path 29241" d="M162.485,316.494a17.62,17.62,0,0,1-.174,2.436l-.44,3-.256,1.77-1.883,12.935-3.07,21.029-.849,5.843h-119v-5.843l.082-21.029L37,324.056V318.94c-1.023-6.754,2.241-13.3,7.214-14.664a6.667,6.667,0,0,1,1.791-.236H153.316C158.381,304,162.485,309.607,162.485,316.494Z" transform="translate(-33.454 -161.45)" fill="#407bff"/>
      <path id="Path_29242" data-name="Path 29242" d="M219.551,242.15V292c0,3.019-1.545,5.475-3.459,5.485H187.009c-1.914,0-3.459-2.456-3.459-5.485a8.767,8.767,0,0,1,.123-1.474l8.964-50.962c.43-2.446,1.862-4.093,3.459-4l20.119,1.105C218.077,236.778,219.551,239.2,219.551,242.15Z" transform="translate(-30.031 -163.047)" fill="#263238"/>
      <path id="Path_29243" data-name="Path 29243" d="M132.727,235.85H116.661L98.21,297.475h16.076Z" transform="translate(-32.021 -163.04)" fill="#fff" opacity="0.1"/>
      <path id="Path_29244" data-name="Path 29244" d="M144.755,235.85H137.08l-18.44,61.625H126.3Z" transform="translate(-31.545 -163.04)" fill="#fff" opacity="0.1"/>
      <path id="Path_29245" data-name="Path 29245" d="M193.317,335.89v21.029H36.83l.082-21.029Z" transform="translate(-33.453 -160.707)"/>
      <path id="Path_29246" data-name="Path 29246" d="M169.373,335.89H154.9L128.88,351.178v5.741h62.29V335.89Z" transform="translate(-31.306 -160.707)" fill="#fff"/>
      <path id="Path_29247" data-name="Path 29247" d="M63.8,351.178v5.741H36.83l.082-21.029h.88Z" transform="translate(-33.453 -160.707)" fill="#fff"/>
      <path id="Path_29248" data-name="Path 29248" d="M225.281,369.149,224.094,212.7,202.6,211.68c-5.362-.266-11.553,5.966-13.119,13.191L173.91,306.154h-6.068c-6.815,0-11.482,4.963-11.471,10.233l.092,52.783h68.819" transform="translate(-30.665 -163.604)" fill="#263238" opacity="0.3"/>
      <path id="Path_29249" data-name="Path 29249" d="M162.081,322.272a1.382,1.382,0,0,1-.471,1.023,1.341,1.341,0,0,1-.921.358H37V320.87H160.72a1.392,1.392,0,0,1,1.177.655A1.411,1.411,0,0,1,162.081,322.272Z" transform="translate(-33.449 -161.057)" fill="#fff"/>
      <path id="Path_29250" data-name="Path 29250" d="M58.818,320.88v2.784H36.96l.01-2.784Z" transform="translate(-33.45 -161.057)" fill="#263238"/>
      <path id="Path_29251" data-name="Path 29251" d="M159.946,322.272a1.382,1.382,0,0,1-.471,1.023,1.341,1.341,0,0,1-.921.358h-30V320.87h30a1.392,1.392,0,0,1,1.177.655A1.413,1.413,0,0,1,159.946,322.272Z" transform="translate(-31.314 -161.057)" fill="#263238"/>
      <path id="Path_29252" data-name="Path 29252" d="M450.228,360.117v.553a5.117,5.117,0,0,1-5.117,5.117H38.647a5.117,5.117,0,0,1-5.117-5.117v-.553A5.117,5.117,0,0,1,38.647,355H445.111A5.117,5.117,0,0,1,450.228,360.117Z" transform="translate(-33.53 -160.261)" fill="#263238"/>
      <rect id="Rectangle_17458" data-name="Rectangle 17458" width="60.581" height="2.957" transform="translate(34.67 198.945)"/>
      <path id="Path_29253" data-name="Path 29253" d="M51.737,360.588a1.689,1.689,0,1,1-.5-1.2A1.689,1.689,0,0,1,51.737,360.588Z" transform="translate(-33.184 -160.17)" fill="#fff"/>
      <path id="Path_29254" data-name="Path 29254" d="M140.827,360.589a1.689,1.689,0,1,1-1.688-1.688A1.689,1.689,0,0,1,140.827,360.589Z" transform="translate(-31.106 -160.17)" fill="#fff"/>
      <path id="Path_29255" data-name="Path 29255" d="M188.988,377.6c0-16.281,7.378-29.482,16.486-29.482H187.986c-9.1,0-16.476,13.2-16.476,29.482s7.378,29.472,16.476,29.472h17.489C196.367,407.1,188.988,393.914,188.988,377.6Z" transform="translate(-30.312 -160.422)"/>
      <path id="Path_29256" data-name="Path 29256" d="M188.988,377.6c0-16.281,7.378-29.482,16.486-29.482H187.986c-9.1,0-16.476,13.2-16.476,29.482s7.378,29.472,16.476,29.472h17.489C196.367,407.1,188.988,393.914,188.988,377.6Z" transform="translate(-30.312 -160.422)" fill="#263238" opacity="0.7"/>
      <ellipse id="Ellipse_2779" data-name="Ellipse 2779" cx="16.486" cy="29.482" rx="16.486" ry="29.482" transform="translate(158.677 187.729)" fill="#263238"/>
      <ellipse id="Ellipse_2780" data-name="Ellipse 2780" cx="11.686" cy="22.984" rx="11.686" ry="22.984" transform="translate(164.796 194.227)" fill="#fff"/>
      <ellipse id="Ellipse_2781" data-name="Ellipse 2781" cx="11.185" cy="19.893" rx="11.185" ry="19.893" transform="translate(164.233 197.318)" fill="#263238"/>
      <ellipse id="Ellipse_2782" data-name="Ellipse 2782" cx="8.166" cy="14.521" rx="8.166" ry="14.521" transform="translate(164.796 202.69)"/>
      <path id="Path_29257" data-name="Path 29257" d="M445.561,360.117v.553a5.117,5.117,0,0,1-5.116,5.117H233.63V355H440.444A5.117,5.117,0,0,1,445.561,360.117Z" transform="translate(-28.863 -160.261)" opacity="0.5"/>
      <path id="Path_29258" data-name="Path 29258" d="M378.319,377.6c0-16.281,7.378-29.482,16.476-29.482H377.316c-9.108,0-16.486,13.2-16.486,29.482s7.378,29.472,16.486,29.472h17.458C385.7,407.1,378.319,393.914,378.319,377.6Z" transform="translate(-25.896 -160.422)"/>
      <path id="Path_29259" data-name="Path 29259" d="M378.319,377.6c0-16.281,7.378-29.482,16.476-29.482H377.316c-9.108,0-16.486,13.2-16.486,29.482s7.378,29.472,16.486,29.472h17.458C385.7,407.1,378.319,393.914,378.319,377.6Z" transform="translate(-25.896 -160.422)" fill="#263238" opacity="0.7"/>
      <ellipse id="Ellipse_2783" data-name="Ellipse 2783" cx="16.486" cy="29.482" rx="16.486" ry="29.482" transform="translate(352.413 187.729)" fill="#263238"/>
      <ellipse id="Ellipse_2784" data-name="Ellipse 2784" cx="11.686" cy="22.984" rx="11.686" ry="22.984" transform="translate(358.542 194.227)" fill="#fff"/>
      <ellipse id="Ellipse_2785" data-name="Ellipse 2785" cx="11.185" cy="19.893" rx="11.185" ry="19.893" transform="translate(357.969 197.318)" fill="#263238"/>
      <ellipse id="Ellipse_2786" data-name="Ellipse 2786" cx="8.166" cy="14.521" rx="8.166" ry="14.521" transform="translate(358.532 202.69)"/>
    </g>
    <g id="freepik--Character--inject-50" transform="translate(296.396 187.188)">
      <path id="Path_29260" data-name="Path 29260" d="M329.458,236.011c-.2,3.94-.563,7.746-1.146,11.625a64.828,64.828,0,0,1-2.62,11.8,19.948,19.948,0,0,1-1.463,3.234,9.211,9.211,0,0,1-1.473,1.9l-.286.266-.164.123-.082.072-.348.235-.686.481a37.2,37.2,0,0,1-5.465,2.9,62.591,62.591,0,0,1-11.185,3.7l-1.33-3.643c3.254-1.8,6.59-3.643,9.629-5.557a42.744,42.744,0,0,0,4.278-3l.45-.379.225-.194h0a4.459,4.459,0,0,0,.2-.4,13.859,13.859,0,0,0,.737-2.047,45.638,45.638,0,0,0,1.095-5.117c.317-1.781.573-3.592.788-5.434.419-3.653.778-7.4,1.023-11.042Z" transform="translate(-289.323 -182.976)" fill="#ce7a63"/>
      <path id="Path_29261" data-name="Path 29261" d="M305.723,268.044,299.44,266.1l1.177,7.6s4.093-.512,6.14-2.8Z" transform="translate(-289.412 -182.264)" fill="#ce7a63"/>
      <path id="Path_29262" data-name="Path 29262" d="M292,270.992l.348,1.023a2.764,2.764,0,0,0,2.753,1.852l3.2-.143L297.12,266.1l-3.52,1.381A2.784,2.784,0,0,0,292,270.992Z" transform="translate(-289.589 -182.264)" fill="#ce7a63"/>
      <path id="Path_29263" data-name="Path 29263" d="M336.5,228.927c0,2.374-1.146,7.061-2.128,10.581-.726,2.528-1.33,4.452-1.33,4.452L331.6,243.6l-11.891-3.009c-.184-6.14.051-12.822,6.14-16.834C329.658,221.242,336.473,224.7,336.5,228.927Z" transform="translate(-288.94 -183.271)" fill="#263238"/>
      <path id="Path_29264" data-name="Path 29264" d="M336.417,229.2c-.778-.819-2.538-.962-6.375.256-5.5,1.74-7.03,7.757-7.1,11.84l8.586,2.169.737.194.706.164s.3-.962.726-2.425h0c.174-.594.389-1.289.593-2.047A55.6,55.6,0,0,0,336.417,229.2Z" transform="translate(-288.863 -183.139)" opacity="0.3"/>
      <path id="Path_29265" data-name="Path 29265" d="M312.435,415.886l-7.255-2.538,4.564-15.719,7.245,2.548Z" transform="translate(-289.278 -179.196)" fill="#ce7a63"/>
      <path id="Path_29266" data-name="Path 29266" d="M407.41,397.549l-5.9,4.4L389.42,389.7l5.9-4.4Z" transform="translate(-287.313 -179.483)" fill="#ce7a63"/>
      <path id="Path_29267" data-name="Path 29267" d="M399,399.944l6.375-5.27a.593.593,0,0,1,.778,0l4.892,4.441a1.177,1.177,0,0,1,0,1.668l-.1.092c-2.251,1.8-3.438,2.558-6.243,4.871-1.719,1.423-5.331,4.83-7.716,6.795s-4.451-.276-3.633-1.31c3.653-4.625,4.5-7.675,4.933-10.172A1.973,1.973,0,0,1,399,399.944Z" transform="translate(-287.225 -179.268)" fill="#263238"/>
      <path id="Path_29268" data-name="Path 29268" d="M305.034,410.774l8.064,3.367a.726.726,0,0,1,.43.757l-.911,7.112a1.084,1.084,0,0,1-1.208.941,1.03,1.03,0,0,1-.307-.082c-2.855-1.156-4.2-1.729-7.736-3.213L292.5,415.1c-2.947-1.238-2.313-4.472-1.023-4.237,5.966,1.085,9.814.727,12.167-.164A1.812,1.812,0,0,1,305.034,410.774Z" transform="translate(-289.622 -178.893)" fill="#263238"/>
      <path id="Path_29269" data-name="Path 29269" d="M309.693,397.64l-2.343,8.094,7.061,3.193,2.538-8.75Z" transform="translate(-289.227 -179.195)" opacity="0.2"/>
      <path id="Path_29270" data-name="Path 29270" d="M395.335,385.3l-5.915,4.4,6.232,6.314,5.9-4.4Z" transform="translate(-287.313 -179.483)" opacity="0.2"/>
      <path id="Path_29271" data-name="Path 29271" d="M358.718,267.387l-29.881.43c-4.093-23.137-5.117-34.179-5.117-39.49a5.69,5.69,0,0,1,4.6-5.608c1.822-.358,4.093-.767,6.375-1.085.778-.1,1.566-.2,2.344-.287a95.3,95.3,0,0,1,13.569-.194c.675,0,1.34.061,2.047.1,3.07.194,5.874.583,7.869.89a2.743,2.743,0,0,1,2.272,3.142.767.767,0,0,1,0,.153c-.88,4.093-1.6,7.726-2.17,10.96-.911,5.117-1.484,9.292-1.821,12.935a113.073,113.073,0,0,0-.092,18.052Z" transform="translate(-288.845 -183.316)" fill="#263238"/>
      <path id="Path_29272" data-name="Path 29272" d="M358.025,249.105c-1.5-4.513-1.422-13.876.194-16.905l1.648,3.96C358.935,241.308,358.362,245.462,358.025,249.105Z" transform="translate(-288.07 -183.054)" opacity="0.1"/>
      <path id="Path_29273" data-name="Path 29273" d="M329.235,266.755s-5.117,43.5-9.732,70.609c-3.653,21.224-12.884,65.4-12.884,65.4l11.983,4.247s13.723-46.05,16.128-65.718c9.67-28.356,16.629-74.754,16.629-74.754Z" transform="translate(-289.244 -182.253)" fill="#407bff"/>
      <path id="Path_29274" data-name="Path 29274" d="M304.72,402.681l13.866,4.881,1.852-4.451L305.4,397.36Z" transform="translate(-289.288 -179.202)" fill="#263238"/>
      <path id="Path_29275" data-name="Path 29275" d="M343.645,279.394l-4.482,8.586c-1.637,6.467-1.249,22.206.829,32.153,3.725-14.992,6.7-30.771,8.555-41.363Z" transform="translate(-288.509 -181.968)" opacity="0.1"/>
      <path id="Path_29276" data-name="Path 29276" d="M335.06,266.759s5.352,48.69,15.35,75.726c5.014,13.559,42.212,53.755,42.212,53.755l8.391-6.713s-23.588-40.554-33.9-51.166c-4.206-23.537,1.085-58.821-8.688-72.022Z" transform="translate(-288.581 -182.258)" fill="#407bff"/>
      <path id="Path_29277" data-name="Path 29277" d="M392.082,396.374l9.844-8.064-2.661-4.369-10.775,9.384Z" transform="translate(-287.334 -179.515)" fill="#263238"/>
      <path id="Path_29278" data-name="Path 29278" d="M359.093,264.625l1.381,2.651c.1.2-.133.43-.481.43l-31.355.45c-.276,0-.491-.133-.522-.3l-.3-2.671c0-.184.215-.348.5-.348l30.27-.44a.6.6,0,0,1,.5.225Z" transform="translate(-288.75 -182.303)" fill="#263238"/>
      <path id="Path_29279" data-name="Path 29279" d="M354.426,268.088h.828c.154,0,.276-.092.266-.184l-.44-3.48c0-.1-.143-.174-.307-.174h-.767c-.164,0-.287.092-.266.184l.43,3.469C354.119,267.985,354.272,268.088,354.426,268.088Z" transform="translate(-288.145 -182.307)" fill="#407bff"/>
      <path id="Path_29280" data-name="Path 29280" d="M330.837,268.408h.819c.164,0,.276-.092.266-.194l-.42-3.469c0-.1-.163-.184-.327-.184h-.819c-.164,0-.286.092-.276.194l.43,3.469C330.531,268.326,330.674,268.408,330.837,268.408Z" transform="translate(-288.697 -182.3)" fill="#407bff"/>
      <path id="Path_29281" data-name="Path 29281" d="M342.637,268.218h.819c.164,0,.287-.092.276-.194l-.43-3.469c0-.112-.153-.194-.317-.184h-.819c-.163,0-.276.092-.276.195l.43,3.469C342.31,268.156,342.473,268.218,342.637,268.218Z" transform="translate(-288.421 -182.304)" fill="#407bff"/>
      <path id="Path_29282" data-name="Path 29282" d="M289.64,236.959l44.351-6.089,6.14,43.542-43.553,5.976Z" transform="translate(-289.64 -183.085)" fill="#407bff"/>
      <path id="Path_29283" data-name="Path 29283" d="M289.64,236.959l44.351-6.089,6.14,43.542-43.553,5.976Z" transform="translate(-289.64 -183.085)" fill="#fff" opacity="0.8"/>
      <rect id="Rectangle_17459" data-name="Rectangle 17459" width="11.963" height="45.374" transform="translate(33.117 47.357) rotate(-8.049)" fill="#407bff" opacity="0.2"/>
      <path id="Path_29284" data-name="Path 29284" d="M345.41,268.115l-6.14-2.4.6,7.675s4.093-.2,6.294-2.343Z" transform="translate(-288.482 -182.273)" fill="#ce7a63"/>
      <path id="Path_29285" data-name="Path 29285" d="M364.635,230.72c1.647,4.6,3.07,9.21,4.277,13.917.614,2.364,1.187,4.738,1.648,7.163.225,1.228.42,2.477.563,3.776a26.265,26.265,0,0,1,.174,4.093,10.936,10.936,0,0,1-.409,2.63,7.6,7.6,0,0,1-1.648,2.835,13.065,13.065,0,0,1-3.838,2.835,34.043,34.043,0,0,1-7.409,2.589,77.837,77.837,0,0,1-14.582,1.954l-.481-3.858c2.241-.532,4.534-1.126,6.764-1.75s4.451-1.32,6.58-2.1a33.188,33.188,0,0,0,5.853-2.671,6.793,6.793,0,0,0,1.781-1.5c.133-.2.133-.256.113-.256a6.828,6.828,0,0,0,0-.911,21.982,21.982,0,0,0-.318-2.957c-.164-1.023-.389-2.169-.634-3.3-.512-2.19-1.085-4.431-1.729-6.672-1.279-4.441-2.722-8.954-4.165-13.3Z" transform="translate(-288.397 -183.089)" fill="#ce7a63"/>
      <path id="Path_29286" data-name="Path 29286" d="M333.742,269.5l.481,1.781a2.711,2.711,0,0,0,2.548,2.047l3.3.092-.6-7.665-3.356.379a2.721,2.721,0,0,0-2.435,2.988A2.754,2.754,0,0,0,333.742,269.5Z" transform="translate(-288.613 -182.272)" fill="#ce7a63"/>
      <path id="Path_29287" data-name="Path 29287" d="M360.93,222.352c3.439,1.4,6.253,12.7,6.253,12.7l-9.5,7.419s-6.733-10.54-5.362-15.115C353.491,223.488,356.551,220.582,360.93,222.352Z" transform="translate(-288.182 -183.296)" fill="#263238"/>
      <path id="Path_29288" data-name="Path 29288" d="M396.624,402.993H396.5a1.023,1.023,0,0,1-.829-.532.6.6,0,0,1-.051-.6c.419-.819,3.07-1.146,3.356-1.177a.164.164,0,0,1,.174.082.174.174,0,0,1,0,.194C398.6,401.7,397.525,402.931,396.624,402.993Zm2-1.914c-1.023.154-2.466.491-2.671.941a.235.235,0,0,0,0,.256.634.634,0,0,0,.542.369,3.617,3.617,0,0,0,2.149-1.566Z" transform="translate(-287.169 -179.125)" fill="#263238"/>
      <path id="Path_29289" data-name="Path 29289" d="M398.851,401.047c-.89,0-2.671-.317-3.07-1.023a.614.614,0,0,1,.143-.747.91.91,0,0,1,.716-.3c1.074,0,2.435,1.648,2.476,1.74a.2.2,0,0,1-.133.276Zm-2.272-1.7a.6.6,0,0,0-.379.184c-.154.164-.123.266-.082.348.235.45,1.637.818,2.538.818a4.093,4.093,0,0,0-2-1.361Z" transform="translate(-287.166 -179.164)" fill="#263238"/>
      <path id="Path_29290" data-name="Path 29290" d="M300.706,410.663a2.886,2.886,0,0,1-1.422-1.023,1.125,1.125,0,0,1-.082-.941.532.532,0,0,1,.389-.358c.942-.174,3.162,2.21,3.592,2.691a.183.183,0,0,1,0,.2.163.163,0,0,1-.184.082A11.779,11.779,0,0,1,300.706,410.663ZM300,408.739a.645.645,0,0,0-.338-.061s-.092,0-.133.123a.737.737,0,0,0,.061.655c.317.552,1.412,1.074,2.968,1.412a10.673,10.673,0,0,0-2.538-2.129Z" transform="translate(-289.419 -178.946)" fill="#263238"/>
      <path id="Path_29291" data-name="Path 29291" d="M302.938,411.32h-.061c-.747-.747-1.965-2.988-1.545-3.7.092-.154.286-.317.727-.195,1.648.481,1.146,3.674,1.115,3.807a.133.133,0,0,1-.123.133A.112.112,0,0,1,302.938,411.32Zm-.819-3.571h-.1a.652.652,0,0,0-.327,0c-.246.419.542,2.108,1.258,3.009C302.938,409.969,303.041,408.158,302.12,407.749Z" transform="translate(-289.369 -178.968)" fill="#263238"/>
      <path id="Path_29292" data-name="Path 29292" d="M333.129,191.23s-4.094,6.846-1.023,9.844,3.97-7.634,3.97-7.634Z" transform="translate(-288.676 -184.01)" fill="#263238"/>
      <path id="Path_29293" data-name="Path 29293" d="M352.15,207.461s5.117-8,2.988-15.954-12.075-2.814-16.271-4.994a24,24,0,0,0-4.881-2.262,1.873,1.873,0,0,0-1.627.276c-1.023.9.757,2.589,1.31,3.224a5.65,5.65,0,0,0-1.167-1.023c-.542-.358-1.269-.389-1.023.522a4.5,4.5,0,0,0,2.129,2.251c-.4-.225-2.763-1.422-2.927-.675a.736.736,0,0,0,.133.512c1.535,2.865,4.625,6.467,8.187,6.539C343.287,195.938,347.381,208,352.15,207.461Z" transform="translate(-288.683 -184.175)" fill="#263238"/>
      <path id="Path_29294" data-name="Path 29294" d="M353.946,207.6c-.266,2.7-4.278,2.732-4.278,2.732a8.674,8.674,0,0,1-3.142,3.807,22.532,22.532,0,0,0,.164,4.892c.675,2.548,1.535,3.428,2.609,4h0l-.859.849a11.255,11.255,0,0,1-5.4,1.5l-1.126-.655-1.474.235c-4.093-1.341-3.07-4.093-3.07-4.093a8.278,8.278,0,0,0,.113-5.843c-3.93-1.228-5.536-4.646-6.089-10.4s2.681-11.256,2.681-11.256c4.441,4.288,13.242,1.535,13.242,1.535-.379,8.064,3.387,11.042,3.387,11.042C351.94,204.852,354.2,204.913,353.946,207.6Z" transform="translate(-288.668 -183.96)" fill="#ce7a63"/>
      <path id="Path_29295" data-name="Path 29295" d="M339.515,208.055a4.524,4.524,0,0,0,2.569-1.883.337.337,0,0,0-.082-.461.327.327,0,0,0-.46.072,3.326,3.326,0,0,1-3.592,1.637.327.327,0,0,0-.409.215.337.337,0,0,0,.215.419A3.478,3.478,0,0,0,339.515,208.055Z" transform="translate(-288.523 -183.674)" fill="#263238"/>
      <path id="Path_29296" data-name="Path 29296" d="M340.639,201.14c0,.522-.2.972-.553,1.023s-.665-.379-.706-.9.215-1.023.563-1.023S340.6,200.608,340.639,201.14Z" transform="translate(-288.48 -183.8)" fill="#263238"/>
      <path id="Path_29297" data-name="Path 29297" d="M334.518,200.881c0,.522-.2.972-.552,1.023s-.655-.379-.7-.9.2-.972.553-1.023S334.488,200.348,334.518,200.881Z" transform="translate(-288.622 -183.806)" fill="#263238"/>
      <path id="Path_29298" data-name="Path 29298" d="M336.155,205.9l-.072-3.786L334.2,205.3A2.354,2.354,0,0,0,336.155,205.9Z" transform="translate(-288.601 -183.756)" fill="#ba4d3c"/>
      <path id="Path_29299" data-name="Path 29299" d="M343.479,198.055a.349.349,0,0,0,.123-.061.43.43,0,0,0,.143-.6,3.551,3.551,0,0,0-3.346-1.719.43.43,0,0,0-.379.491.44.44,0,0,0,.491.379h0A2.7,2.7,0,0,1,343,197.85.44.44,0,0,0,343.479,198.055Z" transform="translate(-288.465 -183.907)" fill="#263238"/>
      <path id="Path_29300" data-name="Path 29300" d="M332.562,197.632a.46.46,0,0,0,.276-.2,1.719,1.719,0,0,1,1.719-.747.43.43,0,0,0,.512-.348.44.44,0,0,0-.348-.512,2.559,2.559,0,0,0-2.64,1.167.45.45,0,0,0,.154.6A.461.461,0,0,0,332.562,197.632Z" transform="translate(-288.651 -183.904)" fill="#263238"/>
      <path id="Path_29301" data-name="Path 29301" d="M350.726,222.819l-2.2,2.149-3.919,3.848-1.474-2.343-1.463-2.313,5.117-6.1,3.725,4.5Z" transform="translate(-288.427 -183.384)" fill="#fff"/>
      <path id="Path_29302" data-name="Path 29302" d="M341.821,224.137l-1.136,1.893-1.668,2.763-3.827-6.907,2.446-2.875Z" transform="translate(-288.578 -183.362)" fill="#fff"/>
    </g>
  </g>
</svg>
