<svg id="mastercard_1_" data-name="mastercard (1)" xmlns="http://www.w3.org/2000/svg" width="511.482" height="306.888" viewBox="0 0 511.482 306.888">
  <path id="Path" d="M306.889,153.444A153.321,153.321,0,0,1,153.445,306.888C69.01,306.888,0,237.879,0,153.444H0C0,69.009,68.2,0,152.633,0c86.059,0,154.257,69.009,154.257,153.444Z" transform="translate(204.593 0)" fill="#ffb600"/>
  <path id="Path-2" data-name="Path" d="M153.445,0C237.88,0,306.889,69.009,306.889,153.444h0A153.321,153.321,0,0,1,153.445,306.888C69.01,306.888,0,237.879,0,153.444" transform="translate(204.593 0)" fill="#f7981d"/>
  <path id="Path-3" data-name="Path" d="M0,0C84.435,0,153.445,69.009,153.445,153.444h0A153.321,153.321,0,0,1,0,306.888" transform="translate(358.038 0)" fill="#ff8500"/>
  <path id="Path-4" data-name="Path" d="M151.821,0C68.2.812,0,69.009,0,153.444A153.321,153.321,0,0,0,153.445,306.888c39.782,0,75.5-15.426,103.108-39.782h0c5.683-4.871,10.554-10.554,15.426-16.237H240.316a187.289,187.289,0,0,1-11.366-15.426h54.4a104,104,0,0,0,8.931-16.237H220.019a96.763,96.763,0,0,1-6.5-16.237h84.435c4.871-15.426,8.119-31.663,8.119-48.712,0-11.366-1.624-21.921-3.247-32.475H208.652c.812-5.683,2.436-10.554,4.059-16.237h84.435a96.757,96.757,0,0,0-6.5-16.237H219.207c2.436-5.683,5.683-10.554,8.931-16.237h54.4a77.205,77.205,0,0,0-12.178-16.237H240.316a138.375,138.375,0,0,1,15.426-15.426C228.949,16.237,192.415,1.624,152.633,1.624,152.633,0,152.633,0,151.821,0Z" transform="translate(0 0)" fill="#ff5050"/>
  <path id="Path-5" data-name="Path" d="M0,151.82A153.321,153.321,0,0,0,153.445,305.264c39.782,0,75.5-15.426,103.108-39.782h0c5.683-4.871,10.554-10.554,15.426-16.237H240.316a187.289,187.289,0,0,1-11.366-15.426h54.4a104,104,0,0,0,8.931-16.237H220.019a96.765,96.765,0,0,1-6.5-16.237h84.435c4.871-15.426,8.119-31.663,8.119-48.712,0-11.366-1.624-21.921-3.247-32.475H208.652c.812-5.683,2.436-10.554,4.059-16.237h84.435a96.756,96.756,0,0,0-6.5-16.237H219.207c2.436-5.683,5.683-10.554,8.931-16.237h54.4a77.205,77.205,0,0,0-12.178-16.237H240.316a138.375,138.375,0,0,1,15.426-15.426C228.949,14.614,192.415,0,152.633,0h-.812" transform="translate(0 1.624)" fill="#e52836"/>
  <path id="Path-6" data-name="Path" d="M1.624,305.264c39.782,0,75.5-15.426,103.108-39.782h0c5.683-4.871,10.554-10.554,15.426-16.237H88.495a187.293,187.293,0,0,1-11.366-15.426h54.4a104.007,104.007,0,0,0,8.931-16.237H68.2a96.763,96.763,0,0,1-6.5-16.237h84.435c4.871-15.426,8.119-31.663,8.119-48.712,0-11.366-1.624-21.921-3.248-32.475H56.831c.812-5.683,2.436-10.554,4.059-16.237h84.435a96.761,96.761,0,0,0-6.5-16.237H67.386C69.821,82,73.069,77.128,76.316,71.445h54.4a77.205,77.205,0,0,0-12.178-16.237H88.495A138.377,138.377,0,0,1,103.92,39.782C77.128,14.614,40.594,0,.812,0H0" transform="translate(151.821 1.624)" fill="#cb2026"/>
  <g id="Group" transform="translate(14.614 113.662)">
    <path id="Path-7" data-name="Path" d="M23.544,71.445l2.436-13.8c-.812,0-2.436.812-4.059.812-5.683,0-6.5-3.247-5.683-4.871l4.871-28.416h8.931L32.475,9.742H24.356L25.98,0H9.743S0,53.584,0,60.079c0,9.742,5.683,13.8,12.99,13.8A24.922,24.922,0,0,0,23.544,71.445Z" transform="translate(169.682 7.307)" fill="#fff"/>
    <path id="Shape" d="M0,36.64C0,16.347,12.18-1.51,29.231.1c17.857,0,23.535,13,23.535,23.554,0,4.066-2.436,14.616-2.436,14.616H17.052S13.81,51.256,31.667,51.256c8.113,0,17.052-4.066,17.052-4.066L45.458,62.63s-4.872,2.436-17.052,2.436C15.421,65.066,0,59.369,0,36.64Z" transform="translate(198.91 16.129)" fill="#fff"/>
    <path id="Path-8" data-name="Path" d="M44.653,78.752,47.9,60.89S39.782,64.95,34.1,64.95c-11.366,0-16.238-8.931-16.238-18.673,0-19.485,9.743-30.039,21.109-30.039,8.119,0,14.614,4.871,14.614,4.871L56.02,4.059S46.277,0,37.346,0C18.673,0,0,16.237,0,47.089c0,20.3,9.743,34.1,29.228,34.1C35.723,81.187,44.653,78.752,44.653,78.752Z" transform="translate(285.781 0)" fill="#fff"/>
    <path id="Shape-2" data-name="Shape" d="M0,47.894c0-18.663,15.421-24.34,29.231-24.34h7.308s.806-.825.806-4.066c0-4.872-4.872-5.677-10.549-5.677A48.062,48.062,0,0,0,8.938,17.051l2.436-13.81A57.512,57.512,0,0,1,30.842,0c5.7,0,21.923.806,21.923,20.293L46.283,64.945H31.667l.806-6.483c-.806,0-5.677,7.308-17.052,7.308C9.744,65.77,0,62.509,0,47.894Z" transform="translate(73.069 14.614)" fill="#fff"/>
    <path id="Path-9" data-name="Path" d="M18.673,66.574c4.059,0,24.356.812,24.356-21.109,0-20.3-19.485-16.237-19.485-24.356,0-4.059,3.248-5.683,8.931-5.683,2.436,0,11.366.812,11.366.812L46.277,1.624S40.594,0,30.851,0C18.673,0,6.5,4.871,6.5,21.109c0,18.673,20.3,17.049,20.3,24.356,0,4.871-5.683,5.683-9.743,5.683A53.094,53.094,0,0,1,2.436,48.712L0,63.326C.812,64.95,4.871,66.574,18.673,66.574Z" transform="translate(122.593 13.802)" fill="#fff"/>
    <path id="Shape-3" data-name="Shape" d="M0,52.766C0,31.667,12.985,13.81,27.6,13.81c8.938,0,15.421,8.113,15.421,8.113L46.283,0,63.334.806,51.155,78.755H34.909l.806-5.677a21.668,21.668,0,0,1-15.421,6.483C6.5,79.561,0,65.77,0,52.766Z" transform="translate(418.928 1.624)" fill="#fff"/>
    <path id="Path-10" data-name="Path" d="M15.426,77.94l9.743-58.455L26.792,77.94H38.158L59.267,19.485,50.336,77.94H67.386L80.376,0H53.584L37.346,47.9,36.534,0H12.99L0,77.94Z" transform="translate(0 1.624)" fill="#fff"/>
    <path id="Path-11" data-name="Path" d="M17.861,63.326c4.871-26.792,5.683-48.712,17.049-44.653C36.534,8.119,38.97,4.059,40.594,0H37.346c-7.307,0-12.99,9.742-12.99,9.742L25.98.812H10.554L0,64.138H17.861Z" transform="translate(249.246 16.237)" fill="#fff"/>
    <path id="Shape-4" data-name="Shape" d="M0,47.894c0-18.663,15.421-24.34,29.231-24.34h7.308s.806-.825.806-4.066c0-4.872-4.872-5.677-10.549-5.677A48.062,48.062,0,0,0,8.938,17.051l2.436-13.81A57.512,57.512,0,0,1,30.842,0c5.7,0,22.748.806,21.923,20.293L46.283,64.945H31.667l.806-6.483c-.806,0-5.677,7.308-17.052,7.308C9.744,65.77,0,62.509,0,47.894Z" transform="translate(336.929 14.614)" fill="#fff"/>
    <path id="Path-12" data-name="Path" d="M17.861,63.326c4.871-26.792,5.683-48.712,17.049-44.653C36.534,8.119,38.97,4.059,40.594,0H37.346c-7.307,0-12.99,9.742-12.99,9.742L25.98.812H10.554L0,64.138H17.861Z" transform="translate(385.642 16.237)" fill="#fff"/>
  </g>
  <g id="Group-2" data-name="Group" transform="translate(14.614 113.662)">
    <path id="Path-13" data-name="Path" d="M0,60.079c0,9.742,5.683,13.8,12.99,13.8a30.9,30.9,0,0,0,12.178-2.436l2.436-13.8c-.812,0-2.436.812-4.059.812-5.683,0-6.5-3.247-5.683-4.871l4.871-28.416h8.931L34.1,9.742H25.98L27.6,0" transform="translate(168.058 7.307)" fill="#dce5e5"/>
    <path id="Shape-5" data-name="Shape" d="M0,36.64C0,16.347,4.066-1.51,21.118.1c17.857,0,23.535,13,23.535,23.554,0,4.066-2.436,14.616-2.436,14.616H8.938S5.677,51.256,23.554,51.256c8.113,0,17.032-4.066,17.032-4.066L37.345,62.63s-4.872,2.436-17.052,2.436C7.308,65.066,0,59.369,0,36.64Z" transform="translate(207.029 16.129)" fill="#dce5e5"/>
    <path id="Path-14" data-name="Path" d="M36.534,78.752,39.782,60.89s-8.119,4.059-13.8,4.059c-11.366,0-16.238-8.931-16.238-18.673,0-19.485,9.743-30.039,21.109-30.039,8.119,0,14.614,4.871,14.614,4.871L47.9,4.059S38.158,0,29.228,0C10.554,0,0,16.237,0,47.089c0,20.3,1.624,34.1,21.109,34.1C27.6,81.187,36.534,78.752,36.534,78.752Z" transform="translate(293.899 0)" fill="#dce5e5"/>
    <path id="Shape-6" data-name="Shape" d="M0,47.088C0,28.406,15.421,22.729,29.231,22.729h7.308s.806-.806.806-4.047c0-4.872-4.872-5.7-10.549-5.7A47.82,47.82,0,0,0,8.938,16.246L30.037,0c6.5,0,22.729.806,22.729,19.487L46.283,64.14H31.667l.806-6.5c-.806,0-5.677,7.308-17.052,7.308C9.744,64.945,0,61.7,0,47.088Z" transform="translate(73.069 16.237)" fill="#dce5e5"/>
    <path id="Path-15" data-name="Path" d="M0,64.95s4.871,1.624,18.673,1.624c4.059,0,24.356.812,24.356-21.109,0-20.3-19.485-16.237-19.485-24.356,0-4.059,3.248-5.683,8.931-5.683,2.436,0,11.366.812,11.366.812L46.277,1.624S40.594,0,30.851,0C18.673,0,14.614,4.871,14.614,21.109c0,18.673,12.178,17.049,12.178,24.356,0,4.871-5.683,5.683-9.743,5.683" transform="translate(123.405 13.802)" fill="#dce5e5"/>
    <path id="Shape-7" data-name="Shape" d="M.059,51.96c0-21.118,4.872-38.975,19.487-38.975,8.938,0,15.421,8.133,15.421,8.133L55.261,0,43.082,77.93H26.855l.806-5.677a21.644,21.644,0,0,1-15.421,6.5C-1.571,78.755.059,64.945.059,51.96Z" transform="translate(426.986 2.436)" fill="#dce5e5"/>
    <path id="Path-16" data-name="Path" d="M15.426,77.94l9.743-58.455L26.792,77.94H38.158L59.267,19.485,50.336,77.94H67.386L80.376,0h-20.3L37.346,47.9,36.534,0H27.6L0,77.94Z" transform="translate(0 1.624)" fill="#dce5e5"/>
    <path id="Path-17" data-name="Path" d="M0,63.326H17.049C21.921,36.534,22.733,14.614,34.1,18.673,35.723,8.119,38.158,4.059,39.782,0H36.534c-7.307,0-12.99,9.742-12.99,9.742L25.168.812" transform="translate(250.058 16.237)" fill="#dce5e5"/>
    <path id="Shape-8" data-name="Shape" d="M0,47.088C0,28.406,15.421,22.729,29.231,22.729h7.308s.806-.806.806-4.047c0-4.872-4.872-5.7-10.549-5.7A47.82,47.82,0,0,0,8.938,16.246L30.037,0c6.5,0,22.729.806,22.729,19.487L46.283,64.14H31.667l.806-6.5c-.806,0-5.677,7.308-17.052,7.308C9.744,64.945,0,61.7,0,47.088Z" transform="translate(336.929 16.237)" fill="#dce5e5"/>
    <path id="Path-18" data-name="Path" d="M0,63.326H17.049C21.921,36.534,22.733,14.614,34.1,18.673,35.723,8.119,38.158,4.059,39.782,0H36.534c-7.307,0-12.99,9.742-12.99,9.742L25.168.812" transform="translate(386.453 16.237)" fill="#dce5e5"/>
  </g>
</svg>
