<svg xmlns="http://www.w3.org/2000/svg" width="33.096" height="24" viewBox="0 0 33.096 24">
  <path id="notification-alarm-buzzer" d="M18.894,2.449a8.047,8.047,0,0,1,3.524,2.217,7.915,7.915,0,0,1,2.01,3.984,15.723,15.723,0,0,1,.124,2.942c0,.66-.022,1.317.027,1.945a6.053,6.053,0,0,0,.808,2.726,6.843,6.843,0,0,0,2.128,2.112,1.172,1.172,0,0,1,.493.682,1.2,1.2,0,0,1,0,.663,1.25,1.25,0,0,1-.358.563,1.193,1.193,0,0,1-.792.294H20.475a3.923,3.923,0,0,1-7.772,0H6.326a1.185,1.185,0,0,1-.822-.321,1.226,1.226,0,0,1-.337-1.212,1.164,1.164,0,0,1,.525-.69,6.608,6.608,0,0,0,2.26-2.382,6.816,6.816,0,0,0,.682-3.233c0-.423,0-.663,0-.908a16.854,16.854,0,0,1,.14-3.192,8,8,0,0,1,5.566-6.2,2.306,2.306,0,0,1,.924-1.021,2.694,2.694,0,0,1,2.694,0,2.317,2.317,0,0,1,.935,1.035ZM4.807.91a.563.563,0,0,1-.167.162,8.753,8.753,0,0,0-1.1.835,7.721,7.721,0,0,0-.908.954,7.08,7.08,0,0,0-.687,1.056,6.39,6.39,0,0,0-.458,1.137,6.164,6.164,0,0,0-.226,1.207,6.555,6.555,0,0,0,0,1.258A7.659,7.659,0,0,0,1.5,8.82a9.16,9.16,0,0,0,.48,1.315.568.568,0,0,1,.054.226A.585.585,0,0,1,2,10.59a.606.606,0,0,1-.113.189.582.582,0,0,1-.164.127.288.288,0,0,1-.059.027.539.539,0,0,1-.213.043.539.539,0,0,1-.218-.038.587.587,0,0,1-.189-.113.652.652,0,0,1-.132-.172l-.019-.04a10.4,10.4,0,0,1-.539-1.5A8.785,8.785,0,0,1,.084,7.618a7.727,7.727,0,0,1,0-1.476,7.589,7.589,0,0,1,.269-1.42h0A7.371,7.371,0,0,1,.892,3.375a7.945,7.945,0,0,1,.789-1.245,8.775,8.775,0,0,1,1.048-1.1A9.925,9.925,0,0,1,3.985.075h0a.606.606,0,0,1,.229-.1.676.676,0,0,1,.221,0h0a.609.609,0,0,1,.21.092.563.563,0,0,1,.162.167h0A.571.571,0,0,1,4.89.452a.609.609,0,0,1,0,.232A.614.614,0,0,1,4.8.894ZM7.929,3.569h0a7.058,7.058,0,0,0-.808.579,5.213,5.213,0,0,0-.636.63h0a4.213,4.213,0,0,0-.466.684,3.473,3.473,0,0,0-.326.744,3.564,3.564,0,0,0-.124.773,4.31,4.31,0,0,0,.04.827,5.167,5.167,0,0,0,.21.884h0a6.466,6.466,0,0,0,.385.927.614.614,0,0,1,.059.226.555.555,0,0,1-.027.221h0a.6.6,0,0,1-.108.194.617.617,0,0,1-.172.14H5.938a.614.614,0,0,1-.224.059.574.574,0,0,1-.224-.027h0a.6.6,0,0,1-.194-.108.539.539,0,0,1-.14-.172v-.019A8.042,8.042,0,0,1,4.7,9.014a6.177,6.177,0,0,1-.253-1.078A5.216,5.216,0,0,1,4.4,6.878a4.658,4.658,0,0,1,.172-1.013,4.755,4.755,0,0,1,.385-.951,5.218,5.218,0,0,1,.6-.881,6.415,6.415,0,0,1,.787-.792,8.432,8.432,0,0,1,.97-.7h0a.566.566,0,0,1,.218-.081.558.558,0,0,1,.232,0,.593.593,0,0,1,.2.089.566.566,0,0,1,.154.156l.022.035a.576.576,0,0,1,.075.213.588.588,0,0,1-.251.6l-.019.013Zm20.607-2.5A.563.563,0,0,1,28.369.91.614.614,0,0,1,28.275.7a.609.609,0,0,1,0-.232A.571.571,0,0,1,28.358.25h0A.563.563,0,0,1,28.52.083a.609.609,0,0,1,.21-.092h0a.676.676,0,0,1,.221,0,.606.606,0,0,1,.218.086h0a9.925,9.925,0,0,1,1.258.951,8.774,8.774,0,0,1,1.067,1.1A7.945,7.945,0,0,1,32.3,3.367a7.371,7.371,0,0,1,.539,1.347h0a7.589,7.589,0,0,1,.269,1.42,7.956,7.956,0,0,1,0,1.476A8.785,8.785,0,0,1,32.841,9.1a10.4,10.4,0,0,1-.539,1.5l-.019.04a.652.652,0,0,1-.132.172.587.587,0,0,1-.189.113.6.6,0,0,1-.431,0l-.059-.027a.582.582,0,0,1-.164-.127.606.606,0,0,1-.113-.189.584.584,0,0,1-.038-.229.568.568,0,0,1,.054-.226,9.16,9.16,0,0,0,.48-1.315,7.659,7.659,0,0,0,.245-1.3,6.553,6.553,0,0,0,0-1.258,6.164,6.164,0,0,0-.226-1.207,6.39,6.39,0,0,0-.458-1.137,6.891,6.891,0,0,0-.69-1.056,7.5,7.5,0,0,0-.905-.954,8.754,8.754,0,0,0-1.107-.835Zm-3.279,2.5-.03-.019a.592.592,0,0,1-.256-.579.576.576,0,0,1,.075-.213l.022-.035a.566.566,0,0,1,.154-.156.6.6,0,0,1,.652-.016h0a8.432,8.432,0,0,1,.97.7,6.414,6.414,0,0,1,.787.792,5.219,5.219,0,0,1,.6.881,4.755,4.755,0,0,1,.385.951,4.828,4.828,0,0,1,.172,1.013,5.216,5.216,0,0,1-.043,1.059,6.177,6.177,0,0,1-.253,1.078,8.043,8.043,0,0,1-.461,1.118v.019a.539.539,0,0,1-.14.172.6.6,0,0,1-.194.108h0a.574.574,0,0,1-.224.027.614.614,0,0,1-.224-.059h-.019a.617.617,0,0,1-.172-.14.6.6,0,0,1-.108-.194h0a.555.555,0,0,1-.027-.221.587.587,0,0,1,.059-.224,6.615,6.615,0,0,0,.385-.929h0a5.167,5.167,0,0,0,.21-.884,4.31,4.31,0,0,0,.04-.827,3.564,3.564,0,0,0-.132-.779,3.473,3.473,0,0,0-.3-.73,4.214,4.214,0,0,0-.477-.692h0a5.213,5.213,0,0,0-.636-.63,7.058,7.058,0,0,0-.808-.579ZM21.486,5.53a6.776,6.776,0,0,0-3.233-1.945.636.636,0,0,1-.436-.439,1.078,1.078,0,0,0-.5-.641,1.4,1.4,0,0,0-.7-.183,1.347,1.347,0,0,0-.69.181,1.078,1.078,0,0,0-.485.636.633.633,0,0,1-.461.442A6.735,6.735,0,0,0,10,8.866a16.1,16.1,0,0,0-.119,2.963c0,.388,0,.768,0,.927a8.036,8.036,0,0,1-.827,3.812,7.729,7.729,0,0,1-2.527,2.745h20.1a7.9,7.9,0,0,1-2.328-2.387,7.3,7.3,0,0,1-.989-3.289c-.051-.649-.038-1.347-.027-2.058a14.718,14.718,0,0,0-.116-2.694,6.654,6.654,0,0,0-1.684-3.338Z" transform="translate(-0.049 0.034)" fill="#283891"/>
</svg>
