<svg id="Illus_5" data-name="Illus / 5" xmlns="http://www.w3.org/2000/svg" xmlns:xlink="http://www.w3.org/1999/xlink" width="368.115" height="230.758" viewBox="0 0 368.115 230.758">
  <defs>
    <clipPath id="clip-path">
      <path id="Clip_2" data-name="Clip 2" d="M0,0H368.115V230.758H0Z" fill="none"/>
    </clipPath>
    <linearGradient id="linear-gradient" x1="0.032" y1="0.568" x2="1" y2="0.768" gradientUnits="objectBoundingBox">
      <stop offset="0" stop-color="#d2469e" stop-opacity="0.502"/>
      <stop offset="1" stop-color="#4bd5cf" stop-opacity="0.502"/>
    </linearGradient>
    <clipPath id="clip-path-2">
      <path id="Clip_2-2" data-name="Clip 2" d="M0,0H17.873V12.139H0Z" fill="none"/>
    </clipPath>
    <clipPath id="clip-path-3">
      <path id="Clip_5" data-name="Clip 5" d="M0,0H21.931V23.858H0Z" fill="none"/>
    </clipPath>
    <filter id="Fill_4" x="150.837" y="68.339" width="69.931" height="71.859" filterUnits="userSpaceOnUse">
      <feOffset dx="2" dy="4" input="SourceAlpha"/>
      <feGaussianBlur stdDeviation="8" result="blur"/>
      <feFlood flood-opacity="0.102"/>
      <feComposite operator="in" in2="blur"/>
      <feComposite in="SourceGraphic"/>
    </filter>
    <clipPath id="clip-path-4">
      <path id="Clip_8" data-name="Clip 8" d="M0,0H47.145V41.619H0Z" fill="none"/>
    </clipPath>
    <filter id="Fill_7" x="138.485" y="91.795" width="95.145" height="89.619" filterUnits="userSpaceOnUse">
      <feOffset dx="2" dy="4" input="SourceAlpha"/>
      <feGaussianBlur stdDeviation="8" result="blur-2"/>
      <feFlood flood-opacity="0.102"/>
      <feComposite operator="in" in2="blur-2"/>
      <feComposite in="SourceGraphic"/>
    </filter>
    <filter id="Fill_18" x="150.811" y="69.442" width="66.165" height="70.847" filterUnits="userSpaceOnUse">
      <feOffset dx="2" dy="4" input="SourceAlpha"/>
      <feGaussianBlur stdDeviation="8" result="blur-3"/>
      <feFlood flood-opacity="0.102"/>
      <feComposite operator="in" in2="blur-3"/>
      <feComposite in="SourceGraphic"/>
    </filter>
    <filter id="Fill_30" x="162.489" y="92.196" width="48.649" height="48.187" filterUnits="userSpaceOnUse">
      <feOffset dx="2" dy="4" input="SourceAlpha"/>
      <feGaussianBlur stdDeviation="8" result="blur-4"/>
      <feFlood flood-opacity="0.102"/>
      <feComposite operator="in" in2="blur-4"/>
      <feComposite in="SourceGraphic"/>
    </filter>
    <filter id="Fill_32" x="162.489" y="92.231" width="48.649" height="48.116" filterUnits="userSpaceOnUse">
      <feOffset dx="2" dy="4" input="SourceAlpha"/>
      <feGaussianBlur stdDeviation="8" result="blur-5"/>
      <feFlood flood-opacity="0.102"/>
      <feComposite operator="in" in2="blur-5"/>
      <feComposite in="SourceGraphic"/>
    </filter>
    <clipPath id="clip-path-5">
      <path id="Clip_2-3" data-name="Clip 2" d="M0,0H12.817V9.247H0Z" fill="none"/>
    </clipPath>
    <clipPath id="clip-path-6">
      <path id="Clip_7" data-name="Clip 7" d="M0,0H5.97V4.338H0Z" fill="none"/>
    </clipPath>
    <clipPath id="clip-path-7">
      <path id="Clip_12" data-name="Clip 12" d="M0,0H5.805V4.619H0Z" fill="none"/>
    </clipPath>
    <clipPath id="clip-path-8">
      <path id="Clip_17" data-name="Clip 17" d="M0,0H20.77V32.6H0Z" fill="none"/>
    </clipPath>
    <linearGradient id="linear-gradient-2" x1="0.5" x2="0.5" y2="1" gradientUnits="objectBoundingBox">
      <stop offset="0" stop-color="#4bd5cf"/>
      <stop offset="1" stop-color="#266b68"/>
    </linearGradient>
    <linearGradient id="linear-gradient-3" x1="0.5" x2="0.5" y2="1" gradientUnits="objectBoundingBox">
      <stop offset="0" stop-color="#4bd5cf" stop-opacity="0.498"/>
      <stop offset="1" stop-color="#266b68" stop-opacity="0.498"/>
    </linearGradient>
    <clipPath id="clip-path-9">
      <path id="Clip_11" data-name="Clip 11" d="M0,0H40.355V25.1H0Z" fill="none"/>
    </clipPath>
  </defs>
  <g id="Group_3" data-name="Group 3">
    <path id="Clip_2-4" data-name="Clip 2" d="M0,0H368.115V230.758H0Z" fill="none"/>
    <g id="Group_3-2" data-name="Group 3" clip-path="url(#clip-path)">
      <path id="Fill_1" data-name="Fill 1" d="M4.552,136.393s9.63-16.345,39.324-28.672c2.675-2.144,44.942-12.039,50.159-55.459C97.245,46.626,126,4.555,169.607,0c4.815,0,47.216,1.206,77.311,27.332,3.611,3.439,12.841,11.254,29.694,6.833,4.414-3.394,67.413-9.245,72.763,42.74,0,5.627,1.605,7.771-5.885,25.724-1.873,3.216-11.5,20.633,0,32.156,3.477,4.019,28.624,35.639,24.076,53.593-1.07,4.555-11.771,30.012-58.853,36.711-15.248,1.34-193.412,12.058-261.627,0C29.654,215.616,2.546,193.295.94,170.806c-2.006-3.922-.8-25.436,3.611-34.413" opacity="0.55" fill="url(#linear-gradient)"/>
    </g>
  </g>
  <g id="Phone" transform="translate(129.967 10.988)">
    <path id="Path" d="M91.017,219.77l-74.8-.342A16.272,16.272,0,0,1,0,203.116L.8,16.177A16.271,16.271,0,0,1,17.164,0l74.8.343a16.271,16.271,0,0,1,16.22,16.312l-.8,186.938A16.267,16.267,0,0,1,91.017,219.77Z" transform="translate(0 0)" fill="rgba(143,67,138,0.5)"/>
    <path id="Path-2" data-name="Path" d="M86.637.35,72.177.283a3.6,3.6,0,0,0-3.529,3.665l-.013,2.627a3.6,3.6,0,0,1-3.527,3.665l-28.189-.128a3.6,3.6,0,0,1-3.494-3.7l.013-2.627a3.607,3.607,0,0,0-3.5-3.7L24.856.061,12.2,0A11.4,11.4,0,0,0,.773,11.359L0,194.344A11.387,11.387,0,0,0,11.323,205.8l74.434.343a11.4,11.4,0,0,0,11.43-11.359L97.959,11.8A11.38,11.38,0,0,0,86.637.35Z" transform="translate(5.111 5.963)" fill="#fff"/>
  </g>
  <g id="Dress" transform="translate(160.485 88.332)">
    <g id="Dress-2" data-name="Dress" transform="translate(0 0)">
      <g id="Group_3-3" data-name="Group 3" transform="translate(15.052 0)">
        <path id="Clip_2-5" data-name="Clip 2" d="M0,0H17.873V12.139H0Z" transform="translate(0 0)" fill="none"/>
        <g id="Group_3-4" data-name="Group 3" transform="translate(0 0)" clip-path="url(#clip-path-2)">
          <path id="Fill_1-2" data-name="Fill 1" d="M0,.562,2,0A10.081,10.081,0,0,0,8.464,2.145,17.152,17.152,0,0,0,14.671.326l3.2.76s-4.831,12.09-8.936,10.982S0,.562,0,.562" transform="translate(0 0)" fill="#8f5f43"/>
        </g>
      </g>
      <g id="Group_6" data-name="Group 6" transform="translate(12.352 0.007)">
        <path id="Clip_5-2" data-name="Clip 5" d="M0,0H21.931V23.858H0Z" transform="translate(0)" fill="none"/>
        <g id="Group_6-2" data-name="Group 6" transform="translate(0)" clip-path="url(#clip-path-3)">
          <g transform="matrix(1, 0, 0, 1, -172.84, -88.34)" filter="url(#Fill_4)">
            <path id="Fill_4-2" data-name="Fill 4" d="M1.343,11.075a21.338,21.338,0,0,0,.432,4.117c.36.939,1.007,2.672,1.007,2.672l.791,5.995H18.4l.648-6.392a20.031,20.031,0,0,0,1.3-4.009V10.534q0-.34.033-.679c.15-1.545.887-7.364,1.559-8.408L17.437.337s-2.566,8.258-7.1,7.295S4.845,0,4.845,0L0,1.42s2.422,7.632,1.343,9.654" transform="translate(172.84 88.34)" fill="#390b12"/>
          </g>
        </g>
      </g>
      <g id="Group_9" data-name="Group 9" transform="translate(0 23.463)">
        <path id="Clip_8-2" data-name="Clip 8" d="M0,0H47.145V41.619H0Z" transform="translate(0 0)" fill="none"/>
        <g id="Group_9-2" data-name="Group 9" transform="translate(0 0)" clip-path="url(#clip-path-4)">
          <g transform="matrix(1, 0, 0, 1, -160.48, -111.8)" filter="url(#Fill_7)">
            <path id="Fill_7-2" data-name="Fill 7" d="M15.958,0H30.621s8.921,11.3,12.907,24.034,3.606,13.693,3.606,13.693-10.724,5.458-19.74,3.447S5.951,43.464,0,37.46c0,0,8.864-30.3,15.958-37.46" transform="translate(160.48 111.8)" fill="#390b12"/>
          </g>
        </g>
      </g>
      <g transform="matrix(1, 0, 0, 1, -160.48, -88.33)" filter="url(#Fill_18)">
        <path id="Fill_18-2" data-name="Fill 18" d="M7.879,21.221C4.2,19.332,3.143,5.781,1.032,0L0,.311s2.369,7.665,1.313,9.7a21.989,21.989,0,0,0,.422,4.135c.352.943.985,2.684.985,2.684L3.5,22.847h14.5l.173-1.753c-1.664.677-7.064,1.781-10.286.128" transform="translate(172.81 89.44)" fill="#390b12"/>
      </g>
      <path id="Fill_20" data-name="Fill 20" d="M7.485,1.306A31.834,31.834,0,0,1,0,.741L.091.014A33.224,33.224,0,0,0,7.485.586,41.8,41.8,0,0,0,14.921,0l-.015.737a41.351,41.351,0,0,1-7.421.569" transform="translate(15.57 23.304)" fill="#fff"/>
      <path id="Fill_22" data-name="Fill 22" d="M5.19.9a.811.811,0,0,1-.1.4c-.181.008-.367.011-.555.011-.15,0-.3,0-.441-.005-.065,0-.127,0-.189-.005A12.438,12.438,0,0,1,.237.753.392.392,0,0,1,.01.3.363.363,0,0,1,.474.018a13.308,13.308,0,0,0,3.434.47c.061,0,.123.005.186.005C4.237.5,4.383.5,4.532.5,4.718.5,4.9.5,5.079.49A.8.8,0,0,1,5.19.9" transform="translate(19.463 23.304)" fill="#745075"/>
      <path id="Fill_24" data-name="Fill 24" d="M5.013,1.3l0,0A15.3,15.3,0,0,1,.236.752.389.389,0,0,1,.01.3.372.372,0,0,1,.365,0,.386.386,0,0,1,.474.019,16.053,16.053,0,0,0,5,.494a.528.528,0,0,1,.013.8" transform="translate(19.463 23.304)" fill="#fff"/>
      <path id="Fill_26" data-name="Fill 26" d="M2.484,1.363A1.6,1.6,0,0,1,0,1.374c.122,0,.2,0,.351,0a1.307,1.307,0,0,0,.89.313,1.29,1.29,0,0,0,.9-.32C2.839.6,1.241-.164.4.544.28.538.153.533.04.522A1.5,1.5,0,0,1,1.241,0C2.23,0,2.862.741,2.484,1.363" transform="translate(22.058 23.304)" fill="#8f5f43"/>
      <path id="Fill_28" data-name="Fill 28" d="M.216.122a.1.1,0,0,1-.094.1.1.1,0,0,1-.094-.1.1.1,0,0,1,.094-.1.1.1,0,0,1,.094.1" transform="translate(23.883 23.835)" fill="#3c233d"/>
      <g transform="matrix(1, 0, 0, 1, -160.48, -88.33)" filter="url(#Fill_30)">
        <path id="Fill_30-2" data-name="Fill 30" d="M.48.215H.168C.075.215,0,.173,0,.122S.075.028.168.028H.48C.573.028.649.07.649.122S.573.215.48.215" transform="translate(184.49 112.17)" fill="#390b12"/>
      </g>
      <g transform="matrix(1, 0, 0, 1, -160.48, -88.33)" filter="url(#Fill_32)">
        <path id="Fill_32-2" data-name="Fill 32" d="M.64.061A.186.186,0,0,1,.473.132H0A.231.231,0,0,0,.147.177H.473C.57.177.649.135.649.083A.059.059,0,0,0,.64.061" transform="translate(184.49 112.17)" fill="#390b12"/>
      </g>
      <path id="Fill_34" data-name="Fill 34" d="M0,.209A1.518,1.518,0,0,1,1.924.5c.067.081-.035.2-.1.122L1.815.616A1.473,1.473,0,0,0,0,.209" transform="translate(22.706 23.304)" fill="#8f5f43"/>
      <path id="Fill_36" data-name="Fill 36" d="M0,.459A1.548,1.548,0,0,0,1.925.145c.067-.08-.037-.2-.1-.119l-.007.01A1.5,1.5,0,0,1,0,.459" transform="translate(22.706 24.61)" fill="#8f5f43"/>
    </g>
  </g>
  <g id="T-shirt" transform="translate(248.949 123.407)">
    <g id="Group_23" data-name="Group 23" transform="translate(0 0)">
      <g id="Group_3-5" data-name="Group 3" transform="translate(7.769 0)">
        <path id="Clip_2-6" data-name="Clip 2" d="M0,0H12.817V9.247H0Z" transform="translate(0)" fill="none"/>
        <g id="Group_3-6" data-name="Group 3" transform="translate(0)" clip-path="url(#clip-path-5)">
          <path id="Fill_1-3" data-name="Fill 1" d="M1.9,8.866,0,.924.895.477S6.426,1.673,10.905,0l1.911.693L11.039,9.247Z" transform="translate(0 0)" fill="#390b12"/>
        </g>
      </g>
      <path id="Fill_4-3" data-name="Fill 4" d="M11.971.5l.835.245.011-.052L10.905,0C6.426,1.673.895.477.895.477L0,.924l.029.12c1.6.228,7.238.876,11.942-.544" transform="translate(7.769 0.137)" fill="#8f5f43"/>
      <g id="Group_8" data-name="Group 8" transform="translate(0 11.151)">
        <path id="Clip_7-2" data-name="Clip 7" d="M0,0H5.97V4.338H0Z" transform="translate(0 0)" fill="none"/>
        <g id="Group_8-2" data-name="Group 8" transform="translate(0 0)" clip-path="url(#clip-path-6)">
          <path id="Fill_6" data-name="Fill 6" d="M3.324,0,.063.138s-.348.6.589,1.535S5.867,4.7,5.958,4.285a4.156,4.156,0,0,0-.686-2.237C4.91,1.686,3.324,0,3.324,0" transform="translate(0)" fill="#390b12"/>
        </g>
      </g>
      <path id="Fill_9" data-name="Fill 9" d="M0,8.231s5.235,2.192,5.895,4.147L6.616,9.13,7.042,2.6,3.716,0Z" transform="translate(0.063 3.058)" fill="#8f5f43"/>
      <g id="Group_13" data-name="Group 13" transform="translate(22.54 10.637)">
        <path id="Clip_12-2" data-name="Clip 12" d="M0,0H5.805V4.619H0Z" transform="translate(0 0)" fill="none"/>
        <g id="Group_13-2" data-name="Group 13" transform="translate(0 0)" clip-path="url(#clip-path-7)">
          <path id="Fill_11" data-name="Fill 11" d="M5.8,0C5.983.539.885,4.961,0,4.6A8.022,8.022,0,0,1,.364,2.683C.689,1.688,4.149-.079,5.8,0" transform="translate(0 0)" fill="#390b12"/>
        </g>
      </g>
      <path id="Fill_14" data-name="Fill 14" d="M2.592,0,6.383,8.375s-5.321,1.718-5.8,4.6L0,10.045V4.757Z" transform="translate(21.957 2.265)" fill="#8f5f43"/>
      <g id="Group_18" data-name="Group 18" transform="translate(3.779 0.152)">
        <path id="Clip_17-2" data-name="Clip 17" d="M0,0H20.77V32.6H0Z" transform="translate(0 0)" fill="none"/>
        <g id="Group_18-2" data-name="Group 18" transform="translate(0 0)" clip-path="url(#clip-path-8)">
          <path id="Fill_16" data-name="Fill 16" d="M0,2.906s2.937,6.845,2.937,8.562S1.828,27.336.929,31.366c0,0,12.048,2.527,18.7.346,0,0-2.172-13.071-1.453-19.554.04-.356,2.592-10.045,2.592-10.045L14.936,0S13.608,4.981,9.622,4.981C6.437,4.981,4.76.525,4.76.525Z" fill="#390b12"/>
        </g>
      </g>
      <path id="Fill_19" data-name="Fill 19" d="M3.99,20.553c.574-2.369,6.094-1.452,2.048-5.5C2.7,11.713,2.465,2.946,2.486,0L0,1.244S2.937,8.088,2.937,9.806,1.828,25.674.929,29.7a68.182,68.182,0,0,0,9.028,1.154,4.83,4.83,0,0,0-.767-3.59c-1.868-2.547-5.774-4.345-5.2-6.715" transform="translate(3.779 1.814)" fill="#390b12"/>
      <path id="Fill_21" data-name="Fill 21" d="M5.473,5.67c2.93,0,4.952-3.562,5.819-5.449L10.684,0S9.33,4.8,5.344,4.8C2.16,4.8.673.477.673.477L0,.813C1.022,2.551,3.175,5.67,5.473,5.67" transform="translate(7.991 0.137)" fill="#8f5f43"/>
    </g>
  </g>
  <g id="Group_17" data-name="Group 17" transform="translate(81.315 115.379)">
    <g id="Group_3-7" data-name="Group 3" transform="translate(7.979 0)">
      <path id="Clip_2-7" data-name="Clip 2" d="M0,0H35.9V31.4H0Z" transform="translate(0 0)" fill="none"/>
      <g id="Group_9-3" data-name="Group 9" transform="translate(0 0)">
        <path id="Fill_1-4" data-name="Fill 1" d="M35.883,15.022l-4.819,16.36,0,.016-1.027-.618-6.492-3.9-5.531-3.322L0,12.731v-.013L11.459,1.61l.066-.063L12.544.556l.07-.066L12.77.339a.809.809,0,0,1,.353-.2c.915-.249,4.125-.791,13.207,5.154,6.488,4.291,9.884,8.231,9.554,9.733" transform="translate(0 0)" fill="url(#linear-gradient-2)"/>
      </g>
    </g>
    <path id="Fill_4-4" data-name="Fill 4" d="M9.764,4.926A36.182,36.182,0,0,0,0,0C2.717,2.61,5.451,5.759,6.635,8.651,8.864,14.1,3.756,20.641,1.28,23.373L15.188,31.95l4.13-17.291c.33-1.5-3.065-5.442-9.554-9.733" transform="translate(24.544 0.363)" fill="url(#linear-gradient-3)"/>
    <path id="Fill_6-2" data-name="Fill 6" d="M39.659,19.655C38.61,18.45,33.251,14.135,24.489,8.71S8.993-.232,7.927.012L0,2.986,40.28,27.941Z" transform="translate(0.075 12.697)" fill="#8f5f43"/>
    <path id="Fill_8" data-name="Fill 8" d="M9.517,7.342C9.571,6.582,5.845,3.843,0,0A58.306,58.306,0,0,1,3.972,6.157a23.664,23.664,0,0,1,1.952,6.863l4.215,2.609Z" transform="translate(30.216 25.01)" fill="#8f5f43"/>
    <g id="Group_12" data-name="Group 12" transform="translate(0 15.676)">
      <path id="Clip_11-2" data-name="Clip 11" d="M0,0H40.355V25.1H0Z" transform="translate(0 0)" fill="none"/>
      <g id="Group_12-2" data-name="Group 12" transform="translate(0 0)" clip-path="url(#clip-path-9)">
        <path id="Fill_10" data-name="Fill 10" d="M40.352,24.982c-.313.97-9.992-4.016-21.12-10.905S-.791.58.056.015c.453-.3,9.989,4.036,21.117,10.925S40.538,24.4,40.352,24.982" transform="translate(0 0)" fill="#390b12"/>
      </g>
    </g>
    <path id="Fill_13" data-name="Fill 13" d="M21.849,15.155a.043.043,0,0,1-.031-.015c-.224-.22-.464-.448-.712-.676a.03.03,0,0,1-.015-.023.044.044,0,0,1,.015-.036.048.048,0,0,1,.032-.014.027.027,0,0,1,.022.01c.221.2.457.426.72.68a.044.044,0,0,1,0,.058A.035.035,0,0,1,21.849,15.155Zm-1.443-1.341a.032.032,0,0,1-.024-.016l-.311-.274-.018-.016-.409-.36a.047.047,0,0,1,0-.062.036.036,0,0,1,.028-.013.044.044,0,0,1,.03.013l.084.074c.217.19.441.386.655.58a.03.03,0,0,1,.015.024.037.037,0,0,1-.015.031A.033.033,0,0,1,20.406,13.814Zm-1.485-1.3A.028.028,0,0,1,18.9,12.5l-.383-.32-.371-.31a.032.032,0,0,1-.018-.022.044.044,0,0,1,.01-.036.04.04,0,0,1,.058,0c.188.152.37.306.547.455l.208.175a.04.04,0,0,1,.019.028.044.044,0,0,1-.011.034A.047.047,0,0,1,18.921,12.514ZM17.4,11.262a.041.041,0,0,1-.018,0l-.009,0c-.16-.131-.322-.26-.484-.39l-.282-.226a.041.041,0,0,1-.02-.031.032.032,0,0,1,.012-.027.037.037,0,0,1,.031-.017.032.032,0,0,1,.024.01c.271.206.531.416.774.614a.037.037,0,0,1,.014.025.044.044,0,0,1-.01.034A.035.035,0,0,1,17.4,11.262Zm-1.549-1.217a.041.041,0,0,1-.027-.012c-.275-.213-.524-.4-.782-.6a.032.032,0,0,1-.015-.022.042.042,0,0,1,.007-.032.04.04,0,0,1,.036-.018.062.062,0,0,1,.027.006l.124.095c.226.173.439.336.654.5a.041.041,0,0,1,.012.058A.054.054,0,0,1,15.855,10.045ZM14.284,8.854a.039.039,0,0,1-.019,0l-.008,0-.219-.16c-.19-.139-.381-.279-.575-.419a.045.045,0,0,1-.008-.062.046.046,0,0,1,.035-.016.038.038,0,0,1,.024.008l.055.04c.256.185.5.359.739.54a.051.051,0,0,1,.012.062A.048.048,0,0,1,14.284,8.854ZM12.689,7.7a.042.042,0,0,1-.024-.008l-.4-.284-.4-.284a.034.034,0,0,1-.018-.022.047.047,0,0,1,.006-.037.044.044,0,0,1,.035-.018.051.051,0,0,1,.023.006l.329.232c.161.114.318.226.476.335a.036.036,0,0,1,.017.024.05.05,0,0,1-.009.038A.049.049,0,0,1,12.689,7.7ZM11.07,6.57a.051.051,0,0,1-.018,0l-.005,0c-.234-.161-.494-.337-.817-.553a.036.036,0,0,1-.017-.025.042.042,0,0,1,.009-.034.031.031,0,0,1,.031-.019.047.047,0,0,1,.024.007l.1.069c.234.157.475.32.714.484a.046.046,0,0,1,.018.029.038.038,0,0,1-.006.03A.046.046,0,0,1,11.07,6.57Zm-1.637-1.1a.057.057,0,0,1-.024-.008c-.26-.172-.54-.355-.825-.537A.037.037,0,0,1,8.568,4.9a.047.047,0,0,1,.005-.032.04.04,0,0,1,.035-.019.044.044,0,0,1,.024.007c.3.187.566.363.825.537a.043.043,0,0,1,.016.058A.057.057,0,0,1,9.434,5.474ZM7.776,4.4a.025.025,0,0,1-.02-.008c-.21-.129-.423-.261-.63-.39l-.1-.063-.1-.064a.045.045,0,0,1-.02-.028.039.039,0,0,1,0-.03.047.047,0,0,1,.037-.02.046.046,0,0,1,.025.008l.008,0s0,0,.008,0c.271.172.545.342.811.505l.006,0a.05.05,0,0,1,.015.062A.056.056,0,0,1,7.776,4.4ZM6.1,3.373a.022.022,0,0,1-.02-.008q-.265-.16-.529-.316l-.319-.19a.034.034,0,0,1-.019-.021.04.04,0,0,1,0-.033.044.044,0,0,1,.038-.021.043.043,0,0,1,.02.005l.308.183.541.323a.042.042,0,0,1,.015.054A.043.043,0,0,1,6.1,3.373Zm-1.7-1a.036.036,0,0,1-.02,0c-.294-.172-.587-.334-.859-.483A.046.046,0,0,1,3.5,1.829a.042.042,0,0,1,.036-.021.038.038,0,0,1,.02.006c.193.1.388.214.577.321l.287.161a.041.041,0,0,1,.019.027.05.05,0,0,1-.043.052ZM2.681,1.421a.033.033,0,0,1-.019-.005c-.3-.162-.6-.318-.876-.461A.043.043,0,0,1,1.77.9.042.042,0,0,1,1.805.874.035.035,0,0,1,1.825.88l.5.264.01.005.021.011.338.178a.045.045,0,0,1,.024.028.037.037,0,0,1,0,.03A.054.054,0,0,1,2.681,1.421ZM.931.514A.053.053,0,0,1,.907.507C.606.356.3.212.024.079A.041.041,0,0,1,0,.025.038.038,0,0,1,.04,0,.043.043,0,0,1,.059,0C.332.13.611.267.945.433a.045.045,0,0,1,.02.058A.05.05,0,0,1,.931.514Z" transform="translate(21.643 0.995)" fill="#4a6792"/>
    <path id="Fill_15" data-name="Fill 15" d="M23.311,15.8a.084.084,0,0,1-.028-.007c-.248-.239-.489-.468-.718-.681a.044.044,0,0,1-.012-.031.038.038,0,0,1,.012-.027.043.043,0,0,1,.059,0c.265.244.521.489.715.676a.052.052,0,0,1,0,.062l-.012,0A.072.072,0,0,1,23.311,15.8Zm-1.443-1.342a.066.066,0,0,1-.025-.006l-.005,0c-.239-.219-.494-.443-.736-.654a.039.039,0,0,1,0-.058.041.041,0,0,1,.057-.008c.179.156.357.314.533.47l.006.005.2.178a.049.049,0,0,1,0,.062A.045.045,0,0,1,21.868,14.463Zm-1.485-1.3a.033.033,0,0,1-.028-.008c-.244-.206-.495-.418-.759-.63a.045.045,0,0,1,0-.062.049.049,0,0,1,.035-.015.037.037,0,0,1,.022.007c.251.213.507.426.759.634a.048.048,0,0,1,.014.034.033.033,0,0,1-.01.024A.035.035,0,0,1,20.383,13.167Zm-1.521-1.252a.031.031,0,0,1-.024-.012c-.243-.2-.5-.4-.774-.611a.048.048,0,0,1,0-.062.05.05,0,0,1,.036-.015.037.037,0,0,1,.023.007l.324.26.006.006h0c.148.118.294.235.439.354a.036.036,0,0,1,.017.025.042.042,0,0,1-.009.034l-.008,0A.054.054,0,0,1,18.862,11.915Zm-1.549-1.222a.053.053,0,0,1-.023-.007c-.222-.172-.464-.355-.786-.6a.041.041,0,0,1,0-.062.036.036,0,0,1,.029-.017.031.031,0,0,1,.025.013c.322.24.564.424.786.6a.045.045,0,0,1,.008.057A.036.036,0,0,1,17.313,10.693ZM15.741,9.507c-.007,0-.019,0-.023-.008-.265-.195-.529-.389-.8-.583A.037.037,0,0,1,14.9,8.89a.041.041,0,0,1,.009-.033.036.036,0,0,1,.031-.017.046.046,0,0,1,.027.009l.4.29.005.005h0l.4.29a.037.037,0,0,1,.014.026.043.043,0,0,1-.01.033C15.769,9.5,15.753,9.507,15.741,9.507ZM14.147,8.348a.077.077,0,0,1-.028,0c-.258-.187-.529-.378-.805-.569a.042.042,0,0,1-.008-.057.04.04,0,0,1,.034-.02.037.037,0,0,1,.026.011l.251.175c.183.127.371.258.553.389a.043.043,0,0,1,.012.058A.033.033,0,0,1,14.147,8.348ZM12.533,7.223c-.012,0-.02,0-.024-.008-.16-.106-.318-.213-.475-.318l-.01-.007-.332-.223a.051.051,0,0,1-.019-.034.045.045,0,0,1,.041-.047.033.033,0,0,1,.021.007c.261.175.541.363.822.556a.033.033,0,0,1,.015.022.046.046,0,0,1-.038.052ZM10.9,6.127a.029.029,0,0,1-.023-.008c-.18-.119-.361-.236-.539-.351l-.006,0-.281-.182a.038.038,0,0,1-.02-.024.044.044,0,0,1,.005-.034.05.05,0,0,1,.037-.019.029.029,0,0,1,.021.008c.221.139.434.279.661.426l.168.11a.045.045,0,0,1,.015.03.038.038,0,0,1-.008.029A.034.034,0,0,1,10.9,6.127ZM9.238,5.061a.048.048,0,0,1-.023-.008c-.283-.18-.56-.356-.837-.521a.043.043,0,0,1-.02-.029.036.036,0,0,1,.008-.029.035.035,0,0,1,.033-.02.062.062,0,0,1,.023,0c.291.178.573.357.836.525A.031.031,0,0,1,9.277,5a.035.035,0,0,1-.007.032A.033.033,0,0,1,9.238,5.061ZM7.562,4.026a.042.042,0,0,1-.024-.008L7.4,3.937c-.243-.144-.477-.284-.71-.42a.044.044,0,0,1-.015-.058.05.05,0,0,1,.04-.021.05.05,0,0,1,.023.006l.106.062c.241.143.49.29.738.44a.045.045,0,0,1,.011.062A.042.042,0,0,1,7.562,4.026Zm-1.7-1a.049.049,0,0,1-.024,0c-.194-.111-.385-.219-.574-.326l-.005,0-.277-.157c-.023-.008-.027-.036-.019-.059A.038.038,0,0,1,5,2.46a.048.048,0,0,1,.025.007l.141.078c.235.13.478.265.718.4a.041.041,0,0,1-.019.078ZM4.135,2.069a.056.056,0,0,1-.02,0c-.266-.144-.574-.309-.871-.459a.034.034,0,0,1-.018-.021.042.042,0,0,1,0-.034.036.036,0,0,1,.035-.024.039.039,0,0,1,.02.005c.276.141.571.295.875.459a.047.047,0,0,1,.015.058C4.165,2.066,4.155,2.069,4.135,2.069Zm-1.75-.906H2.369L2.08,1.022c-.208-.1-.4-.2-.6-.29a.042.042,0,0,1-.02-.055A.048.048,0,0,1,1.5.651a.043.043,0,0,1,.016,0L1.6.692c.263.127.535.259.807.4a.03.03,0,0,1,.019.016.044.044,0,0,1,0,.035A.034.034,0,0,1,2.384,1.163ZM.612.325A.063.063,0,0,1,.587.319L.52.291C.384.232.179.143,0,.062L.066,0c.2.088.459.2.556.245a.043.043,0,0,1,.03.048A.039.039,0,0,1,.612.325Z" transform="translate(19.438 1.548)" fill="#4a6792"/>
  </g>
</svg>
