<svg id="Illus_6" data-name="Illus / 6" xmlns="http://www.w3.org/2000/svg" xmlns:xlink="http://www.w3.org/1999/xlink" width="329.464" height="251.019" viewBox="0 0 329.464 251.019">
  <defs>
    <linearGradient id="linear-gradient" x1="0.5" x2="0.5" y2="1" gradientUnits="objectBoundingBox">
      <stop offset="0" stop-color="#4bd5cf" stop-opacity="0.498"/>
      <stop offset="1" stop-color="#d2469e" stop-opacity="0.498"/>
    </linearGradient>
    <clipPath id="clip-path">
      <path id="Clip_2" data-name="Clip 2" d="M0,0H15.216V10.271H0Z" fill="none"/>
    </clipPath>
    <filter id="Fill_4" x="130.948" y="92.18" width="66.671" height="68.186" filterUnits="userSpaceOnUse">
      <feOffset dx="2" dy="4" input="SourceAlpha"/>
      <feGaussianBlur stdDeviation="8" result="blur"/>
      <feFlood flood-opacity="0.102"/>
      <feComposite operator="in" in2="blur"/>
      <feComposite in="SourceGraphic"/>
    </filter>
    <filter id="Fill_7" x="120.432" y="112.026" width="88.135" height="83.213" filterUnits="userSpaceOnUse">
      <feOffset dx="2" dy="4" input="SourceAlpha"/>
      <feGaussianBlur stdDeviation="8" result="blur-2"/>
      <feFlood flood-opacity="0.102"/>
      <feComposite operator="in" in2="blur-2"/>
      <feComposite in="SourceGraphic"/>
    </filter>
    <filter id="Fill_18" x="130.926" y="93.114" width="63.464" height="67.33" filterUnits="userSpaceOnUse">
      <feOffset dx="2" dy="4" input="SourceAlpha"/>
      <feGaussianBlur stdDeviation="8" result="blur-3"/>
      <feFlood flood-opacity="0.102"/>
      <feComposite operator="in" in2="blur-3"/>
      <feComposite in="SourceGraphic"/>
    </filter>
    <filter id="Fill_30" x="140.867" y="112.365" width="48.552" height="48.158" filterUnits="userSpaceOnUse">
      <feOffset dx="2" dy="4" input="SourceAlpha"/>
      <feGaussianBlur stdDeviation="8" result="blur-4"/>
      <feFlood flood-opacity="0.102"/>
      <feComposite operator="in" in2="blur-4"/>
      <feComposite in="SourceGraphic"/>
    </filter>
    <filter id="Fill_32" x="140.867" y="112.395" width="48.552" height="48.098" filterUnits="userSpaceOnUse">
      <feOffset dx="2" dy="4" input="SourceAlpha"/>
      <feGaussianBlur stdDeviation="8" result="blur-5"/>
      <feFlood flood-opacity="0.102"/>
      <feComposite operator="in" in2="blur-5"/>
      <feComposite in="SourceGraphic"/>
    </filter>
  </defs>
  <path id="Path_6" data-name="Path 6" d="M15.433,104.334s-58.685,137.1,98.207,146.684c14.971-.6,165.875-4.79,182.043-10.777,7.186-2.994,50.3-20.356,35.331-56.279-3.593-8.382-17.965-32.929-20.36-34.725-2.994-3.592-17.965-20.955-2.4-37.719,1.8-3.592,22.755-47.9-24.552-70.648-8.384-3.592-36.528-8.382-48.5-4.191-5.389,1.2-19.761,5.987-32.337-7.185C192.087,21.113,138.791-19,86.095,10.935,73.52,17.521,45.375,39.075,33.4,69.01,29.206,82.182,15.433,104.334,15.433,104.334Z" transform="translate(-4.686 0)" fill="url(#linear-gradient)"/>
  <g id="Phone" transform="translate(106.732 27.891)">
    <g id="Phone-2" data-name="Phone" transform="translate(0 0)">
      <path id="Path" d="M92.258,223.127l-75.817-.348A16.507,16.507,0,0,1,0,206.219L.806,16.424A16.506,16.506,0,0,1,17.4,0L93.215.348a16.507,16.507,0,0,1,16.442,16.561L108.851,206.7A16.5,16.5,0,0,1,92.258,223.127Z" transform="translate(0)" fill="rgba(143,67,138,0.5)"/>
      <path id="Path-2" data-name="Path" d="M86.719.355,72.245.287A3.623,3.623,0,0,0,68.713,4L68.7,6.661a3.623,3.623,0,0,1-3.531,3.713l-28.216-.13a3.626,3.626,0,0,1-3.5-3.747l.014-2.662a3.635,3.635,0,0,0-3.5-3.747L24.88.061,12.215,0A11.476,11.476,0,0,0,.774,11.507L0,196.874a11.469,11.469,0,0,0,11.333,11.6l74.5.348a11.476,11.476,0,0,0,11.441-11.507l.773-185.367A11.462,11.462,0,0,0,86.719.355Z" transform="translate(5.721 6.675)" fill="#fff"/>
    </g>
    <g id="Qr" transform="translate(16.735 72.516)">
      <path id="Stroke_35" data-name="Stroke 35" d="M13.655,0a1.57,1.57,0,0,1,.09,3.138l-.09,0H3.166V13.668a1.576,1.576,0,0,1-1.493,1.568l-.09,0A1.578,1.578,0,0,1,0,13.757l0-.089V1.57A1.576,1.576,0,0,1,1.493,0l.09,0Z" fill="rgba(210,70,158,0.5)"/>
      <path id="Stroke_39" data-name="Stroke 39" d="M13.655,0a1.577,1.577,0,0,1,1.58,1.481l0,.089v12.1a1.583,1.583,0,0,1-3.163.089l0-.089V3.141H1.583A1.577,1.577,0,0,1,0,1.659L0,1.57A1.576,1.576,0,0,1,1.493,0l.09,0Z" transform="translate(61.904)" fill="rgba(210,70,158,0.5)"/>
      <path id="Stroke_43" data-name="Stroke 43" d="M1.583,0a1.578,1.578,0,0,1,1.58,1.481l0,.089V12.1H13.655a1.578,1.578,0,0,1,1.58,1.481l0,.089a1.576,1.576,0,0,1-1.493,1.568l-.09,0H1.583A1.578,1.578,0,0,1,0,13.757l0-.089V1.57A1.577,1.577,0,0,1,1.583,0Z" transform="translate(0 60.952)" fill="rgba(210,70,158,0.5)"/>
      <path id="Stroke_47" data-name="Stroke 47" d="M13.655,0a1.577,1.577,0,0,1,1.58,1.481l0,.089v12.1a1.576,1.576,0,0,1-1.493,1.568l-.09,0H1.583a1.57,1.57,0,0,1-.09-3.138l.09,0H12.072V1.57A1.576,1.576,0,0,1,13.565,0Z" transform="translate(61.904 62.857)" fill="rgba(210,70,158,0.5)"/>
    </g>
    <g id="Dress" transform="translate(35.7 84.284)">
      <g id="Dress-2" data-name="Dress" transform="translate(0 0)">
        <g id="Group_3" data-name="Group 3" transform="translate(12.814 0)">
          <path id="Clip_2-2" data-name="Clip 2" d="M0,0H15.216V10.271H0Z" transform="translate(0 0)" fill="none"/>
          <g id="Group_3-2" data-name="Group 3" transform="translate(0 0)" clip-path="url(#clip-path)">
            <path id="Fill_1" data-name="Fill 1" d="M0,.476,1.7,0A8.613,8.613,0,0,0,7.206,1.815,14.666,14.666,0,0,0,12.49.276l2.726.643S11.1,11.147,7.608,10.21,0,.476,0,.476" transform="translate(0 0)" fill="#8f5f43"/>
          </g>
        </g>
        <g id="Group_6" data-name="Group 6" transform="translate(10.516 0.006)">
          <path id="Clip_5" data-name="Clip 5" d="M0,0H18.671V20.186H0Z" transform="translate(0 0)" fill="none"/>
          <g id="Group_2590" data-name="Group 2590" transform="translate(0 0)">
            <g transform="matrix(1, 0, 0, 1, -152.95, -112.18)" filter="url(#Fill_4)">
              <path id="Fill_4-2" data-name="Fill 4" d="M1.143,9.37a17.946,17.946,0,0,0,.368,3.483c.306.794.858,2.261.858,2.261l.674,5.072H15.661l.551-5.408a16.874,16.874,0,0,0,1.1-3.392V8.912q0-.288.028-.574c.128-1.307.755-6.23,1.327-7.113L14.844.285S12.66,7.272,8.8,6.457,4.125,0,4.125,0L0,1.2S2.062,7.659,1.143,9.37" transform="translate(152.95 112.18)" fill="#4fd1ce"/>
            </g>
          </g>
        </g>
        <g id="Group_9" data-name="Group 9" transform="translate(0 19.851)">
          <path id="Clip_8" data-name="Clip 8" d="M0,0H40.135V35.213H0Z" transform="translate(0)" fill="none"/>
          <g id="Group_2589" data-name="Group 2589">
            <g transform="matrix(1, 0, 0, 1, -142.43, -132.03)" filter="url(#Fill_7)">
              <path id="Fill_7-2" data-name="Fill 7" d="M13.586,0H26.069s7.595,9.56,10.988,20.335,3.07,11.585,3.07,11.585S31,36.538,23.322,34.836,5.066,36.774,0,31.694C0,31.694,7.546,6.056,13.586,0" transform="translate(142.43 132.03)" fill="rgba(210,70,158,0.5)"/>
            </g>
          </g>
        </g>
        <g transform="matrix(1, 0, 0, 1, -142.43, -112.17)" filter="url(#Fill_18)">
          <path id="Fill_18-2" data-name="Fill 18" d="M6.707,17.955C3.572,16.356,2.676,4.891.878,0L0,.263s2.017,6.485,1.118,8.2a18.493,18.493,0,0,0,.36,3.5c.3.8.839,2.271.839,2.271l.659,5.094H15.317l.147-1.484c-1.416.573-6.013,1.507-8.757.108" transform="translate(152.93 113.11)" fill="rgba(75,213,207,0.5)"/>
        </g>
        <path id="Fill_20" data-name="Fill 20" d="M6.372,1.1A27.264,27.264,0,0,1,0,.627L.077.012A28.455,28.455,0,0,0,6.372.5,35.8,35.8,0,0,0,12.7,0L12.69.623A35.416,35.416,0,0,1,6.372,1.1" transform="translate(13.255 19.717)" fill="#fff"/>
        <path id="Fill_22" data-name="Fill 22" d="M4.418.761a.683.683,0,0,1-.087.335c-.154.007-.312.009-.473.009-.128,0-.254,0-.376,0-.055,0-.108,0-.161,0A10.649,10.649,0,0,1,.2.637.331.331,0,0,1,.009.253.309.309,0,0,1,.4.015a11.4,11.4,0,0,0,2.924.4c.052,0,.1,0,.158,0,.122,0,.246,0,.373,0,.158,0,.314,0,.465-.007a.67.67,0,0,1,.094.346" transform="translate(16.569 19.717)" fill="#745075"/>
        <path id="Fill_24" data-name="Fill 24" d="M4.267,1.1l0,0A13.1,13.1,0,0,1,.2.637.328.328,0,0,1,.009.255.316.316,0,0,1,.31,0,.33.33,0,0,1,.4.016a13.747,13.747,0,0,0,3.854.4.445.445,0,0,1,.011.677" transform="translate(16.569 19.717)" fill="#fff"/>
        <path id="Fill_26" data-name="Fill 26" d="M2.115,1.153A1.37,1.37,0,0,1,0,1.163c.1,0,.171,0,.3,0a1.117,1.117,0,0,0,.758.265,1.1,1.1,0,0,0,.769-.271C2.417.511,1.057-.139.339.46.238.455.131.451.034.441A1.278,1.278,0,0,1,1.056,0C1.9,0,2.437.627,2.115,1.153" transform="translate(18.778 19.717)" fill="#8f5f43"/>
        <path id="Fill_28" data-name="Fill 28" d="M.183.1A.081.081,0,0,1,.1.186.081.081,0,0,1,.023.1.081.081,0,0,1,.1.02.081.081,0,0,1,.183.1" transform="translate(20.332 20.166)" fill="#3c233d"/>
        <g transform="matrix(1, 0, 0, 1, -142.43, -112.17)" filter="url(#Fill_30)">
          <path id="Fill_30-2" data-name="Fill 30" d="M.409.182H.143C.064.182,0,.146,0,.1S.064.024.143.024H.409C.488.024.552.059.552.1S.488.182.409.182" transform="translate(162.87 132.34)" fill="#390b12"/>
        </g>
        <g transform="matrix(1, 0, 0, 1, -142.43, -112.17)" filter="url(#Fill_32)">
          <path id="Fill_32-2" data-name="Fill 32" d="M.545.051A.159.159,0,0,1,.4.111H0A.2.2,0,0,0,.125.149H.4C.485.149.552.113.552.07A.05.05,0,0,0,.545.051" transform="translate(162.87 132.34)" fill="#390b12"/>
        </g>
        <path id="Fill_34" data-name="Fill 34" d="M0,.176a1.3,1.3,0,0,1,1.638.25c.057.068-.03.172-.087.1L1.545.521A1.259,1.259,0,0,0,0,.176" transform="translate(19.33 19.717)" fill="#8f5f43"/>
        <path id="Fill_36" data-name="Fill 36" d="M0,.389A1.323,1.323,0,0,0,1.639.123c.057-.068-.031-.168-.088-.1L1.544.031A1.282,1.282,0,0,1,0,.389" transform="translate(19.33 20.821)" fill="#8f5f43"/>
      </g>
    </g>
  </g>
</svg>
