<svg id="orders" xmlns="http://www.w3.org/2000/svg" width="23.004" height="24.506" viewBox="0 0 23.004 24.506">
  <path id="Path_10611" data-name="Path 10611" d="M5.039,17.333a.65.65,0,0,1,0-1.3H9.325a.65.65,0,0,1,0,1.3Zm7.145-1.884a.359.359,0,0,1,0-.718h.963a1.654,1.654,0,0,1,.863.227,1.363,1.363,0,0,1,.582.828.035.035,0,0,0,.01.028l.092.363h7.955a.356.356,0,0,1,.355.355.547.547,0,0,1-.018.11l-.927,3.737a.35.35,0,0,1-.345.273H15.9a1.46,1.46,0,0,0,.427.846,2.378,2.378,0,0,0,1.183.136h4.118a.355.355,0,1,1,0,.71H17.511a2.779,2.779,0,0,1-1.591-.255,2.281,2.281,0,0,1-.782-1.482h0l-1.218-4.612c0-.01,0-.01-.008-.018a.629.629,0,0,0-.273-.409.926.926,0,0,0-.5-.118h-.953Zm8.373,7.311a.873.873,0,1,1-.873.873.873.873,0,0,1,.873-.873Zm-3.829,0a.873.873,0,1,1-.873.873.873.873,0,0,1,.873-.873ZM5.039,6.7a.65.65,0,0,1,0-1.3H15.114a.65.65,0,1,1,0,1.3ZM1.51,0H18.585a1.5,1.5,0,0,1,1.508,1.508V13.468H18.8V1.514a.211.211,0,0,0-.213-.213H1.51a.221.221,0,0,0-.152.062.207.207,0,0,0-.06.152V21.19a.221.221,0,0,0,.062.152.206.206,0,0,0,.152.062H12.489a7.2,7.2,0,0,0,.445,1.29H1.51a1.507,1.507,0,0,1-1.067-.441A1.492,1.492,0,0,1,0,21.188V1.51A1.5,1.5,0,0,1,1.51,0Zm3.53,12.015a.65.65,0,1,1,0-1.3H15.114a.65.65,0,1,1,0,1.3Z" transform="translate(0 0)" fill="#777"/>
</svg>
