<svg id="paypal_2_" data-name="paypal (2)" xmlns="http://www.w3.org/2000/svg" width="511.482" height="142.311" viewBox="0 0 511.482 142.311">
  <path id="Shape" d="M.628,55.323c4.183-20.09,24.273-25.962,54.4-25.962,1.689-9.21-4.183-10.88-14.219-10.88a110.294,110.294,0,0,0-25.962,5.852L17.361,5.088C25.727,3.418,35.782.06,48.331.06c18.421-.825,38.511,6.7,34.328,29.3L70.935,83.779H44.148l1.669-9.21c-5.584,5.915-14.654,9.38-23.258,9.38C9.252,83.947-2.938,75.657.628,55.323Z" transform="translate(350.971 25.049)" fill="#32a6ce"/>
  <path id="Shape-2" data-name="Shape" d="M.628,54.418c4.183-20.09,24.273-25.962,54.4-25.962,1.689-9.21-4.183-10.88-14.219-10.88a109.166,109.166,0,0,0-25.962,5.872L48.331,0C66.752,0,87.686,5.852,82.659,28.456L70.935,82.874H44.148l1.669-9.21c-5.584,5.915-14.654,9.38-23.258,9.379C9.252,83.042-2.938,74.753.628,54.418Z" transform="translate(350.971 25.951)" fill="#1a80ad"/>
  <path id="Path" d="M21.765,0,0,108.825H26.788L49.39,0Z" transform="translate(434.467 0)" fill="#32a6ce"/>
  <path id="Path-2" data-name="Path" d="M41.019,0,0,108.825H26.788L49.39,0H41.019Z" transform="translate(434.467 0)" fill="#1a80ad"/>
  <path id="Shape-3" data-name="Shape" d="M0,108.817,21.76,0H71.151c14.238,0,31.814,18.421,27.631,42.694C94.6,63.629,77.847,75.333,57.757,75.333H36.842L29.3,108.817Z" transform="translate(260.345 0)" fill="#32a6ce"/>
  <path id="Shape-4" data-name="Shape" d="M0,108.817,38.511,0H72c14.238,0,31.814,18.421,26.787,42.694C94.6,63.629,77.847,75.333,57.757,75.333H36.842L29.3,108.817Z" transform="translate(259.508 0)" fill="#1a80ad"/>
  <path id="Shape-5" data-name="Shape" d="M.637,55.323C4.82,35.233,24.911,29.361,54.212,29.361c1.689-9.21-4.183-10.88-14.219-10.88-10.055.844-22.6,4.183-25.962,5.852L16.545,5.088C24.086,3.418,34.121.06,46.69.06c18.421-.825,39.336,6.7,35.153,29.3L70.119,83.779H43.332l1.689-9.21c-5.591,5.915-14.535,9.38-22.986,9.38C8.966,83.947-2.917,75.657.637,55.323Z" transform="translate(91.44 25.049)" fill="#21789e"/>
  <path id="Shape-6" data-name="Shape" d="M.637,54.418C4.82,34.328,24.911,28.456,54.212,28.456c1.689-9.21-4.183-10.88-14.219-10.88-10.055.844-22.6,4.183-25.962,5.872L46.69,0C65.111,0,86.026,5.852,81,28.456l-11.7,54.418H42.507l2.514-9.21c-5.591,5.915-14.535,9.38-22.986,9.379C8.966,83.042-2.917,74.753.637,54.418Z" transform="translate(92.277 25.951)" fill="#1a5b80"/>
  <path id="Path-3" data-name="Path" d="M8.371,0H35.159l4.186,46.879L66.133,0H93.758L30.136,117.2H0L19.254,82.038Z" transform="translate(175.796 25.114)" fill="#21789e"/>
  <path id="Path-4" data-name="Path" d="M35.159,1.674l4.186,46.042L66.133,0H93.758L30.136,117.2H0L19.254,82.875" transform="translate(175.796 25.114)" fill="#1a5b80"/>
  <path id="Shape-7" data-name="Shape" d="M0,108.817,21.76,0H72c14.238,0,31.814,18.421,26.787,42.694C94.6,63.629,77.847,75.333,57.757,75.333H36.842L29.3,108.817Z" transform="translate(0 0)" fill="#21789e"/>
  <path id="Shape-8" data-name="Shape" d="M0,108.817,49.391,0H72c14.238,0,31.814,18.421,26.787,42.694C94.6,63.629,77.847,75.333,57.757,75.333H36.842L29.3,108.817Z" transform="translate(0 0)" fill="#1a5b80"/>
  <g id="Group" transform="translate(2.511 25.114)">
    <path id="Shape-9" data-name="Shape" d="M43.332,54.418,45.02,44.363C30.783,59.426-5.215,58.6.638,25.118,4,8.366,19.058,1.669,41.662,0L74.3,34.328l-4.183,20.09Z" transform="translate(88.929 29.299)" fill="#06435e"/>
    <path id="Path-5" data-name="Path" d="M1.674,46.042,0,48.553,17.58,65.3,54.413,0H26.788Z" transform="translate(212.629 0)" fill="#06435e"/>
    <path id="Path-6" data-name="Path" d="M26.788,33.485,34.322,0,0,33.485Z" transform="translate(0 50.227)" fill="#06435e"/>
  </g>
  <g id="Group-2" data-name="Group" transform="translate(262.02 54.413)">
    <path id="Path-7" data-name="Path" d="M26.788,35.159,34.322,0V.837L0,35.159Z" transform="translate(0 19.254)" fill="#2273aa"/>
    <path id="Shape-10" data-name="Shape" d="M43.323,54.418l2.494-10.055C31.6,59.426-5.243,58.6.628,25.118,3.967,8.366,19.03,1.669,41.634,0L74.293,34.328,70.11,54.418Z" transform="translate(89.788 0)" fill="#2273aa"/>
    <path id="Path-8" data-name="Path" d="M19.254,0,0,49.39H26.788l7.534-33.485Z" transform="translate(172.447 5.023)" fill="#2273aa"/>
  </g>
  <g id="Group-3" data-name="Group" transform="translate(485.532 3.573)">
    <path id="Path-9" data-name="Path" d="M4.186,18.193V2.274H0V0H10.883V2.274H6.7V18.193Z" transform="translate(0 1.137)" fill="#32a6ce"/>
    <path id="Path-10" data-name="Path" d="M0,19.33V1.137H2.511L5.86,13.645A4.531,4.531,0,0,0,6.7,15.919c0-1.137,0-1.137.837-3.411L10.883,0h2.511V18.193H11.72V2.274L7.534,18.193H5.023L.837,2.274V18.193H0Z" transform="translate(12.557 0)" fill="#32a6ce"/>
  </g>
</svg>
