<svg id="single-01" xmlns="http://www.w3.org/2000/svg" width="24" height="26.286" viewBox="0 0 24 26.286">
  <g id="single-01-2" data-name="single-01" transform="translate(0 0)">
    <path id="Combined_Shape" data-name="Combined Shape" d="M1.2,26.286A1.2,1.2,0,0,1,0,25.092V22.948a5.331,5.331,0,0,1,4.067-5.1A31.972,31.972,0,0,1,12,16.727a32.028,32.028,0,0,1,7.932,1.115A5.334,5.334,0,0,1,24,22.948v2.144a1.2,1.2,0,0,1-1.2,1.194ZM4.67,20.156A2.94,2.94,0,0,0,2.4,22.948V23.9H21.6v-.948a2.917,2.917,0,0,0-2.06-2.73l-.21-.063A29.612,29.612,0,0,0,12,19.116,29.557,29.557,0,0,0,4.67,20.156ZM4.857,7.712V6.626A6.617,6.617,0,0,1,11.176.006L11.457,0a6.621,6.621,0,0,1,6.6,6.626V7.712a6.619,6.619,0,0,1-6.319,6.62l-.282.005A6.621,6.621,0,0,1,4.857,7.712Zm6.4-5.318a4.212,4.212,0,0,0-4,4.232V7.712a4.21,4.21,0,0,0,4.173,4.236l.225,0a4.212,4.212,0,0,0,4-4.232V6.626a4.223,4.223,0,0,0-4.2-4.237Z" transform="translate(0 0)" fill="#707070"/>
  </g>
</svg>
