<svg xmlns="http://www.w3.org/2000/svg" width="24" height="26.526" viewBox="0 0 24 26.526">
  <g id="single-01" transform="translate(0)">
    <g id="single-01-2" data-name="single-01" transform="translate(0)">
      <path id="Combined_Shape" data-name="Combined Shape" d="M1.2,26.526A1.2,1.2,0,0,1,0,25.321V23.158a5.37,5.37,0,0,1,4.067-5.152A31.7,31.7,0,0,1,12,16.88a31.756,31.756,0,0,1,7.932,1.125A5.373,5.373,0,0,1,24,23.158v2.163a1.2,1.2,0,0,1-1.2,1.205ZM4.67,20.341A2.961,2.961,0,0,0,2.4,23.158v.957H21.6v-.957A2.941,2.941,0,0,0,19.54,20.4l-.21-.063A29.361,29.361,0,0,0,12,19.291,29.306,29.306,0,0,0,4.67,20.341ZM4.857,7.783v-1.1A6.651,6.651,0,0,1,11.176.006L11.457,0a6.652,6.652,0,0,1,6.6,6.687v1.1a6.653,6.653,0,0,1-6.319,6.681l-.282.005A6.652,6.652,0,0,1,4.857,7.783Zm6.4-5.367a4.234,4.234,0,0,0-4,4.27v1.1a4.23,4.23,0,0,0,4.173,4.275l.225,0a4.234,4.234,0,0,0,4-4.27v-1.1a4.243,4.243,0,0,0-4.2-4.276Z" transform="translate(0)" fill="#283891"/>
    </g>
  </g>
</svg>
