<svg xmlns="http://www.w3.org/2000/svg" width="117.39" height="75.465" viewBox="0 0 117.39 75.465">
  <g id="Password" transform="translate(-2 -7)">
    <path id="Path_1406" data-name="Path 1406" d="M49.348,40.54H24.193A4.193,4.193,0,0,1,20,36.348V23.77a16.77,16.77,0,1,1,33.54,0V36.348A4.193,4.193,0,0,1,49.348,40.54ZM28.385,32.155h16.77V23.77a8.385,8.385,0,0,0-16.77,0Z" transform="translate(57.465)" fill="#283891"/>
    <path id="Path_1407" data-name="Path 1407" d="M81.658,45.348a4.193,4.193,0,0,1-4.193-4.193V20.193A4.193,4.193,0,0,0,73.273,16h-58.7A12.578,12.578,0,0,0,2,28.578V41.155A12.578,12.578,0,0,0,14.578,53.733h67.08a4.193,4.193,0,0,0,0-8.385Z" transform="translate(0 28.733)" fill="#d8e1ef"/>
    <path id="Path_1408" data-name="Path 1408" d="M16.933,19.634a2.012,2.012,0,0,0-2.935,0l-2.725,2.683L8.548,19.634a2.075,2.075,0,1,0-2.935,2.935L8.3,25.294,5.613,28.019a2.075,2.075,0,0,0,2.935,2.935l2.725-2.683L14,30.954a2.075,2.075,0,0,0,2.935-2.935l-2.683-2.725,2.683-2.725a2.012,2.012,0,0,0,0-2.935Z" transform="translate(9.594 38.305)" fill="#283891"/>
    <path id="Path_1409" data-name="Path 1409" d="M20.933,19.634a2.012,2.012,0,0,0-2.935,0l-2.725,2.683-2.725-2.683a2.075,2.075,0,1,0-2.935,2.935L12.3,25.294,9.613,28.019a2.075,2.075,0,0,0,2.935,2.935l2.725-2.683L18,30.954a2.075,2.075,0,0,0,2.935-2.935l-2.683-2.725,2.683-2.725a2.012,2.012,0,0,0,0-2.935Z" transform="translate(22.364 38.305)" fill="#283891"/>
    <path id="Path_1410" data-name="Path 1410" d="M22.249,25.273l2.683-2.725A2.075,2.075,0,1,0,22,19.613L19.273,22.3l-2.725-2.683a2.075,2.075,0,1,0-2.935,2.935L16.3,25.273,13.613,28a2.075,2.075,0,1,0,2.935,2.935l2.725-2.683L22,30.933A2.075,2.075,0,0,0,24.933,28Z" transform="translate(35.134 38.326)" fill="#283891"/>
    <rect id="Rectangle_924" data-name="Rectangle 924" width="50.453" height="50.453" rx="3" transform="translate(68.937 32.012)" fill="#283891"/>
    <path id="Path_1411" data-name="Path 1411" d="M38.771,24.424a8.385,8.385,0,1,0-12.578,7.211V37a4.193,4.193,0,1,0,8.385,0V31.635A8.385,8.385,0,0,0,38.771,24.424Z" transform="translate(63.85 28.694)" fill="#fff"/>
  </g>
</svg>
